<svg xmlns="http://www.w3.org/2000/svg" width="512" height="512" viewBox="0 0 512 512">
  <defs>
    <linearGradient id="bg" x1="0" y1="0" x2="1" y2="1">
      <stop offset="0%" stop-color="#0a84ff"/>
      <stop offset="100%" stop-color="#0055b3"/>
    </linearGradient>
  </defs>
  <!-- 背景 -->
  <rect width="512" height="512" rx="96" fill="url(#bg)"/>
  <!-- 上部横梁 -->
  <rect x="96" y="96" width="320" height="36" rx="10" fill="#ffffff"/>
  <!-- 两个闸墩 -->
  <rect x="128" y="132" width="40" height="180" rx="8" fill="#ffffff"/>
  <rect x="344" y="132" width="40" height="180" rx="8" fill="#ffffff"/>
  <!-- 闸门（中间，红色提升门） -->
  <rect x="176" y="160" width="160" height="120" rx="6" fill="#ff453a"/>
  <rect x="176" y="160" width="160" height="10" rx="4" fill="#ffffff" opacity="0.7"/>
  <!-- 底板 -->
  <rect x="96" y="312" width="320" height="36" rx="8" fill="#ffffff"/>
  <!-- 水波纹（三条） -->
  <path d="M96 392 Q128 372 160 392 T224 392 T288 392 T352 392 T416 392" stroke="#ffffff" stroke-width="14" fill="none" stroke-linecap="round" opacity="0.9"/>
  <path d="M96 436 Q136 414 176 436 T256 436 T336 436 T416 436" stroke="#ffffff" stroke-width="14" fill="none" stroke-linecap="round" opacity="0.6"/>
</svg>
