  0
SECTION
  2
HEADER
  9
$ACADVER
  1
AC1027
  9
$ACADMAINTVER
 70
105
  9
$DWGCODEPAGE
  3
ANSI_1252
  9
$LASTSAVEDBY
  1
ezdxf
  9
$REQUIREDVERSIONS
160
0
  9
$INSBASE
 10
0.0
 20
0.0
 30
0.0
  9
$EXTMIN
 10
1e+20
 20
1e+20
 30
1e+20
  9
$EXTMAX
 10
-1e+20
 20
-1e+20
 30
-1e+20
  9
$LIMMIN
 10
0.0
 20
0.0
  9
$LIMMAX
 10
420.0
 20
297.0
  9
$ORTHOMODE
 70
0
  9
$REGENMODE
 70
1
  9
$FILLMODE
 70
1
  9
$QTEXTMODE
 70
0
  9
$MIRRTEXT
 70
1
  9
$LTSCALE
 40
1.0
  9
$ATTMODE
 70
1
  9
$TEXTSIZE
 40
2.5
  9
$TRACEWID
 40
1.0
  9
$TEXTSTYLE
  7
Standard
  9
$CLAYER
  8
0
  9
$CELTYPE
  6
ByLayer
  9
$CECOLOR
 62
256
  9
$CELTSCALE
 40
1.0
  9
$DISPSILH
 70
0
  9
$DIMSCALE
 40
1.0
  9
$DIMASZ
 40
2.5
  9
$DIMEXO
 40
0.625
  9
$DIMDLI
 40
3.75
  9
$DIMRND
 40
0.0
  9
$DIMDLE
 40
0.0
  9
$DIMEXE
 40
1.25
  9
$DIMTP
 40
0.0
  9
$DIMTM
 40
0.0
  9
$DIMTXT
 40
2.5
  9
$DIMCEN
 40
2.5
  9
$DIMTSZ
 40
0.0
  9
$DIMTOL
 70
0
  9
$DIMLIM
 70
0
  9
$DIMTIH
 70
0
  9
$DIMTOH
 70
0
  9
$DIMSE1
 70
0
  9
$DIMSE2
 70
0
  9
$DIMTAD
 70
1
  9
$DIMZIN
 70
8
  9
$DIMBLK
  1

  9
$DIMASO
 70
1
  9
$DIMSHO
 70
1
  9
$DIMPOST
  1

  9
$DIMAPOST
  1

  9
$DIMALT
 70
0
  9
$DIMALTD
 70
3
  9
$DIMALTF
 40
0.03937007874
  9
$DIMLFAC
 40
1.0
  9
$DIMTOFL
 70
1
  9
$DIMTVP
 40
0.0
  9
$DIMTIX
 70
0
  9
$DIMSOXD
 70
0
  9
$DIMSAH
 70
0
  9
$DIMBLK1
  1

  9
$DIMBLK2
  1

  9
$DIMSTYLE
  2
ISO-25
  9
$DIMCLRD
 70
0
  9
$DIMCLRE
 70
0
  9
$DIMCLRT
 70
0
  9
$DIMTFAC
 40
1.0
  9
$DIMGAP
 40
0.625
  9
$DIMJUST
 70
0
  9
$DIMSD1
 70
0
  9
$DIMSD2
 70
0
  9
$DIMTOLJ
 70
0
  9
$DIMTZIN
 70
8
  9
$DIMALTZ
 70
0
  9
$DIMALTTZ
 70
0
  9
$DIMUPT
 70
0
  9
$DIMDEC
 70
2
  9
$DIMTDEC
 70
2
  9
$DIMALTU
 70
2
  9
$DIMALTTD
 70
3
  9
$DIMTXSTY
  7
Standard
  9
$DIMAUNIT
 70
0
  9
$DIMADEC
 70
0
  9
$DIMALTRND
 40
0.0
  9
$DIMAZIN
 70
0
  9
$DIMDSEP
 70
44
  9
$DIMATFIT
 70
3
  9
$DIMFRAC
 70
0
  9
$DIMLDRBLK
  1

  9
$DIMLUNIT
 70
2
  9
$DIMLWD
 70
-2
  9
$DIMLWE
 70
-2
  9
$DIMTMOVE
 70
0
  9
$DIMFXL
 40
1.0
  9
$DIMFXLON
 70
0
  9
$DIMJOGANG
 40
0.785398163397
  9
$DIMTFILL
 70
0
  9
$DIMTFILLCLR
 70
0
  9
$DIMARCSYM
 70
0
  9
$DIMLTYPE
  6

  9
$DIMLTEX1
  6

  9
$DIMLTEX2
  6

  9
$DIMTXTDIRECTION
 70
0
  9
$LUNITS
 70
2
  9
$LUPREC
 70
4
  9
$SKETCHINC
 40
1.0
  9
$FILLETRAD
 40
10.0
  9
$AUNITS
 70
0
  9
$AUPREC
 70
2
  9
$MENU
  1
.
  9
$ELEVATION
 40
0.0
  9
$PELEVATION
 40
0.0
  9
$THICKNESS
 40
0.0
  9
$LIMCHECK
 70
0
  9
$CHAMFERA
 40
0.0
  9
$CHAMFERB
 40
0.0
  9
$CHAMFERC
 40
0.0
  9
$CHAMFERD
 40
0.0
  9
$SKPOLY
 70
0
  9
$TDCREATE
 40
2461317.213009259
  9
$TDUCREATE
 40
2458532.153996898
  9
$TDUPDATE
 40
2461317.213009259
  9
$TDUUPDATE
 40
2458532.1544311
  9
$TDINDWG
 40
0.0
  9
$TDUSRTIMER
 40
0.0
  9
$USRTIMER
 70
1
  9
$ANGBASE
 50
0.0
  9
$ANGDIR
 70
0
  9
$PDMODE
 70
0
  9
$PDSIZE
 40
0.0
  9
$PLINEWID
 40
0.0
  9
$SPLFRAME
 70
0
  9
$SPLINETYPE
 70
6
  9
$SPLINESEGS
 70
8
  9
$HANDSEED
  5
109
  9
$SURFTAB1
 70
6
  9
$SURFTAB2
 70
6
  9
$SURFTYPE
 70
6
  9
$SURFU
 70
6
  9
$SURFV
 70
6
  9
$UCSBASE
  2

  9
$UCSNAME
  2

  9
$UCSORG
 10
0.0
 20
0.0
 30
0.0
  9
$UCSXDIR
 10
1.0
 20
0.0
 30
0.0
  9
$UCSYDIR
 10
0.0
 20
1.0
 30
0.0
  9
$UCSORTHOREF
  2

  9
$UCSORTHOVIEW
 70
0
  9
$UCSORGTOP
 10
0.0
 20
0.0
 30
0.0
  9
$UCSORGBOTTOM
 10
0.0
 20
0.0
 30
0.0
  9
$UCSORGLEFT
 10
0.0
 20
0.0
 30
0.0
  9
$UCSORGRIGHT
 10
0.0
 20
0.0
 30
0.0
  9
$UCSORGFRONT
 10
0.0
 20
0.0
 30
0.0
  9
$UCSORGBACK
 10
0.0
 20
0.0
 30
0.0
  9
$PUCSBASE
  2

  9
$PUCSNAME
  2

  9
$PUCSORG
 10
0.0
 20
0.0
 30
0.0
  9
$PUCSXDIR
 10
1.0
 20
0.0
 30
0.0
  9
$PUCSYDIR
 10
0.0
 20
1.0
 30
0.0
  9
$PUCSORTHOREF
  2

  9
$PUCSORTHOVIEW
 70
0
  9
$PUCSORGTOP
 10
0.0
 20
0.0
 30
0.0
  9
$PUCSORGBOTTOM
 10
0.0
 20
0.0
 30
0.0
  9
$PUCSORGLEFT
 10
0.0
 20
0.0
 30
0.0
  9
$PUCSORGRIGHT
 10
0.0
 20
0.0
 30
0.0
  9
$PUCSORGFRONT
 10
0.0
 20
0.0
 30
0.0
  9
$PUCSORGBACK
 10
0.0
 20
0.0
 30
0.0
  9
$USERI1
 70
0
  9
$USERI2
 70
0
  9
$USERI3
 70
0
  9
$USERI4
 70
0
  9
$USERI5
 70
0
  9
$USERR1
 40
0.0
  9
$USERR2
 40
0.0
  9
$USERR3
 40
0.0
  9
$USERR4
 40
0.0
  9
$USERR5
 40
0.0
  9
$WORLDVIEW
 70
1
  9
$SHADEDGE
 70
3
  9
$SHADEDIF
 70
70
  9
$TILEMODE
 70
1
  9
$MAXACTVP
 70
64
  9
$PINSBASE
 10
0.0
 20
0.0
 30
0.0
  9
$PLIMCHECK
 70
0
  9
$PEXTMIN
 10
1e+20
 20
1e+20
 30
1e+20
  9
$PEXTMAX
 10
-1e+20
 20
-1e+20
 30
-1e+20
  9
$PLIMMIN
 10
0.0
 20
0.0
  9
$PLIMMAX
 10
420.0
 20
297.0
  9
$UNITMODE
 70
0
  9
$VISRETAIN
 70
1
  9
$PLINEGEN
 70
0
  9
$PSLTSCALE
 70
1
  9
$TREEDEPTH
 70
3020
  9
$CMLSTYLE
  2
Standard
  9
$CMLJUST
 70
0
  9
$CMLSCALE
 40
20.0
  9
$PROXYGRAPHICS
 70
1
  9
$MEASUREMENT
 70
1
  9
$CELWEIGHT
370
-1
  9
$ENDCAPS
280
0
  9
$JOINSTYLE
280
0
  9
$LWDISPLAY
290
0
  9
$INSUNITS
 70
4
  9
$HYPERLINKBASE
  1

  9
$STYLESHEET
  1

  9
$XEDIT
290
1
  9
$CEPSNTYPE
380
0
  9
$PSTYLEMODE
290
1
  9
$FINGERPRINTGUID
  2
{F5FCEF55-A466-45E6-AF2D-5094B816B3DB}
  9
$VERSIONGUID
  2
{727A2BED-458F-43C8-92E2-3CCCE3C252B8}
  9
$EXTNAMES
290
1
  9
$PSVPSCALE
 40
0.0
  9
$OLESTARTUP
290
0
  9
$SORTENTS
280
127
  9
$INDEXCTL
280
0
  9
$HIDETEXT
280
1
  9
$XCLIPFRAME
280
1
  9
$HALOGAP
280
0
  9
$OBSCOLOR
 70
257
  9
$OBSLTYPE
280
0
  9
$INTERSECTIONDISPLAY
280
0
  9
$INTERSECTIONCOLOR
 70
257
  9
$DIMASSOC
280
2
  9
$PROJECTNAME
  1

  9
$CAMERADISPLAY
290
0
  9
$LENSLENGTH
 40
50.0
  9
$CAMERAHEIGHT
 40
0.0
  9
$STEPSPERSEC
 40
24.0
  9
$STEPSIZE
 40
100.0
  9
$3DDWFPREC
 40
2.0
  9
$PSOLWIDTH
 40
0.005
  9
$PSOLHEIGHT
 40
0.08
  9
$LOFTANG1
 40
1.570796326795
  9
$LOFTANG2
 40
1.570796326795
  9
$LOFTMAG1
 40
0.0
  9
$LOFTMAG2
 40
0.0
  9
$LOFTPARAM
 70
7
  9
$LOFTNORMALS
280
1
  9
$LATITUDE
 40
37.795
  9
$LONGITUDE
 40
-122.394
  9
$NORTHDIRECTION
 40
0.0
  9
$TIMEZONE
 70
-8000
  9
$LIGHTGLYPHDISPLAY
280
1
  9
$TILEMODELIGHTSYNCH
280
1
  9
$CMATERIAL
347
20
  9
$SOLIDHIST
280
0
  9
$SHOWHIST
280
1
  9
$DWFFRAME
280
2
  9
$DGNFRAME
280
2
  9
$REALWORLDSCALE
290
1
  9
$INTERFERECOLOR
 62
256
  9
$CSHADOW
280
0
  9
$SHADOWPLANELOCATION
 40
0.0
  0
ENDSEC
  0
SECTION
  2
CLASSES
  0
CLASS
  1
ACDBDICTIONARYWDFLT
  2
AcDbDictionaryWithDefault
  3
ObjectDBX Classes
 90
0
 91
0
280
0
281
0
  0
CLASS
  1
SUN
  2
AcDbSun
  3
SCENEOE
 90
1153
 91
0
280
0
281
0
  0
CLASS
  1
VISUALSTYLE
  2
AcDbVisualStyle
  3
ObjectDBX Classes
 90
4095
 91
0
280
0
281
0
  0
CLASS
  1
MATERIAL
  2
AcDbMaterial
  3
ObjectDBX Classes
 90
1153
 91
0
280
0
281
0
  0
CLASS
  1
SCALE
  2
AcDbScale
  3
ObjectDBX Classes
 90
1153
 91
0
280
0
281
0
  0
CLASS
  1
TABLESTYLE
  2
AcDbTableStyle
  3
ObjectDBX Classes
 90
4095
 91
0
280
0
281
0
  0
CLASS
  1
MLEADERSTYLE
  2
AcDbMLeaderStyle
  3
ACDB_MLEADERSTYLE_CLASS
 90
4095
 91
0
280
0
281
0
  0
CLASS
  1
DICTIONARYVAR
  2
AcDbDictionaryVar
  3
ObjectDBX Classes
 90
0
 91
0
280
0
281
0
  0
CLASS
  1
CELLSTYLEMAP
  2
AcDbCellStyleMap
  3
ObjectDBX Classes
 90
1152
 91
0
280
0
281
0
  0
CLASS
  1
MENTALRAYRENDERSETTINGS
  2
AcDbMentalRayRenderSettings
  3
SCENEOE
 90
1024
 91
0
280
0
281
0
  0
CLASS
  1
ACDBDETAILVIEWSTYLE
  2
AcDbDetailViewStyle
  3
ObjectDBX Classes
 90
1025
 91
0
280
0
281
0
  0
CLASS
  1
ACDBSECTIONVIEWSTYLE
  2
AcDbSectionViewStyle
  3
ObjectDBX Classes
 90
1025
 91
0
280
0
281
0
  0
CLASS
  1
RASTERVARIABLES
  2
AcDbRasterVariables
  3
ISM
 90
0
 91
0
280
0
281
0
  0
CLASS
  1
LAYOUT
  2
AcDbLayout
  3
ObjectDBX Classes
 90
0
 91
0
280
0
281
0
  0
CLASS
  1
ACDBPLACEHOLDER
  2
AcDbPlaceHolder
  3
ObjectDBX Classes
 90
0
 91
0
280
0
281
0
  0
ENDSEC
  0
SECTION
  2
TABLES
  0
TABLE
  2
VPORT
  5
8
330
0
100
AcDbSymbolTable
 70
1
  0
VPORT
  5
23
330
8
100
AcDbSymbolTableRecord
100
AcDbViewportTableRecord
  2
*Active
 70
0
 10
0.0
 20
0.0
 11
1.0
 21
1.0
 12
0.0
 22
0.0
 13
0.0
 23
0.0
 14
0.5
 24
0.5
 15
0.5
 25
0.5
 16
0.0
 26
0.0
 36
1.0
 17
0.0
 27
0.0
 37
0.0
 40
1000.0
 41
1.34
 42
50.0
 43
0.0
 44
0.0
 50
0.0
 51
0.0
 71
0
 72
1000
 73
1
 74
3
 75
0
 76
0
 77
0
 78
0
281
0
 65
0
146
0.0
  0
ENDTAB
  0
TABLE
  2
LTYPE
  5
2
330
0
100
AcDbSymbolTable
 70
21
  0
LTYPE
  5
24
330
2
100
AcDbSymbolTableRecord
100
AcDbLinetypeTableRecord
  2
ByBlock
 70
0
  3

 72
65
 73
0
 40
0.0
  0
LTYPE
  5
25
330
2
100
AcDbSymbolTableRecord
100
AcDbLinetypeTableRecord
  2
ByLayer
 70
0
  3

 72
65
 73
0
 40
0.0
  0
LTYPE
  5
26
330
2
100
AcDbSymbolTableRecord
100
AcDbLinetypeTableRecord
  2
Continuous
 70
0
  3

 72
65
 73
0
 40
0.0
  0
LTYPE
  5
30
330
2
100
AcDbSymbolTableRecord
100
AcDbLinetypeTableRecord
  2
CENTER
 70
0
  3
Center ____ _ ____ _ ____ _ ____ _ ____ _ ____
 72
65
 73
4
 40
5.08
 49
3.175
 74
0
 49
-0.635
 74
0
 49
0.635
 74
0
 49
-0.635
 74
0
  0
LTYPE
  5
31
330
2
100
AcDbSymbolTableRecord
100
AcDbLinetypeTableRecord
  2
CENTERX2
 70
0
  3
Center (2x) ________  __  ________  __  ________
 72
65
 73
4
 40
8.89
 49
6.35
 74
0
 49
-0.635
 74
0
 49
1.27
 74
0
 49
-0.635
 74
0
  0
LTYPE
  5
32
330
2
100
AcDbSymbolTableRecord
100
AcDbLinetypeTableRecord
  2
CENTER2
 70
0
  3
Center (.5x) ____ _ ____ _ ____ _ ____ _ ____
 72
65
 73
4
 40
2.54
 49
1.587
 74
0
 49
-0.318
 74
0
 49
0.318
 74
0
 49
-0.318
 74
0
  0
LTYPE
  5
33
330
2
100
AcDbSymbolTableRecord
100
AcDbLinetypeTableRecord
  2
DASHED
 70
0
  3
Dashed __ __ __ __ __ __ __ __ __ __ __ __ __ _
 72
65
 73
2
 40
1.524
 49
1.27
 74
0
 49
-0.254
 74
0
  0
LTYPE
  5
34
330
2
100
AcDbSymbolTableRecord
100
AcDbLinetypeTableRecord
  2
DASHEDX2
 70
0
  3
Dashed (2x) ____  ____  ____  ____  ____  ____
 72
65
 73
2
 40
3.048
 49
2.54
 74
0
 49
-0.508
 74
0
  0
LTYPE
  5
35
330
2
100
AcDbSymbolTableRecord
100
AcDbLinetypeTableRecord
  2
DASHED2
 70
0
  3
Dashed (.5x) _ _ _ _ _ _ _ _ _ _ _ _ _ _
 72
65
 73
2
 40
0.762
 49
0.635
 74
0
 49
-0.127
 74
0
  0
LTYPE
  5
36
330
2
100
AcDbSymbolTableRecord
100
AcDbLinetypeTableRecord
  2
PHANTOM
 70
0
  3
Phantom ______  __  __  ______  __  __  ______
 72
65
 73
6
 40
6.35
 49
3.175
 74
0
 49
-0.635
 74
0
 49
0.635
 74
0
 49
-0.635
 74
0
 49
0.635
 74
0
 49
-0.635
 74
0
  0
LTYPE
  5
37
330
2
100
AcDbSymbolTableRecord
100
AcDbLinetypeTableRecord
  2
PHANTOMX2
 70
0
  3
Phantom (2x)____________    ____    ____    ____________
 72
65
 73
6
 40
10.795
 49
6.35
 74
0
 49
-0.635
 74
0
 49
1.27
 74
0
 49
-0.635
 74
0
 49
1.27
 74
0
 49
-0.635
 74
0
  0
LTYPE
  5
38
330
2
100
AcDbSymbolTableRecord
100
AcDbLinetypeTableRecord
  2
PHANTOM2
 70
0
  3
Phantom (.5x) ___ _ _ ___ _ _ ___ _ _ ___ _ _ ___
 72
65
 73
6
 40
3.175
 49
1.587
 74
0
 49
-0.318
 74
0
 49
0.318
 74
0
 49
-0.318
 74
0
 49
0.318
 74
0
 49
-0.318
 74
0
  0
LTYPE
  5
39
330
2
100
AcDbSymbolTableRecord
100
AcDbLinetypeTableRecord
  2
DASHDOT
 70
0
  3
Dash dot __ . __ . __ . __ . __ . __ . __ . __
 72
65
 73
4
 40
3.556
 49
2.54
 74
0
 49
-0.508
 74
0
 49
0.0
 74
0
 49
-0.508
 74
0
  0
LTYPE
  5
3A
330
2
100
AcDbSymbolTableRecord
100
AcDbLinetypeTableRecord
  2
DASHDOTX2
 70
0
  3
Dash dot (2x) ____  .  ____  .  ____  .  ____
 72
65
 73
4
 40
6.096
 49
5.08
 74
0
 49
-0.508
 74
0
 49
0.0
 74
0
 49
-0.508
 74
0
  0
LTYPE
  5
3B
330
2
100
AcDbSymbolTableRecord
100
AcDbLinetypeTableRecord
  2
DASHDOT2
 70
0
  3
Dash dot (.5x) _ . _ . _ . _ . _ . _ . _ . _
 72
65
 73
4
 40
1.778
 49
1.27
 74
0
 49
-0.254
 74
0
 49
0.0
 74
0
 49
-0.254
 74
0
  0
LTYPE
  5
3C
330
2
100
AcDbSymbolTableRecord
100
AcDbLinetypeTableRecord
  2
DOT
 70
0
  3
Dot .  .  .  .  .  .  .  .  .  .  .  .  .  .  .  .
 72
65
 73
2
 40
0.508
 49
0.0
 74
0
 49
-0.508
 74
0
  0
LTYPE
  5
3D
330
2
100
AcDbSymbolTableRecord
100
AcDbLinetypeTableRecord
  2
DOTX2
 70
0
  3
Dot (2x) .    .    .    .    .    .    .    . 
 72
65
 73
2
 40
1.016
 49
0.0
 74
0
 49
-1.016
 74
0
  0
LTYPE
  5
3E
330
2
100
AcDbSymbolTableRecord
100
AcDbLinetypeTableRecord
  2
DOT2
 70
0
  3
Dot (.5) . . . . . . . . . . . . . . . . . . . 
 72
65
 73
2
 40
0.254
 49
0.0
 74
0
 49
-0.254
 74
0
  0
LTYPE
  5
3F
330
2
100
AcDbSymbolTableRecord
100
AcDbLinetypeTableRecord
  2
DIVIDE
 70
0
  3
Divide __ . . __ . . __ . . __ . . __ . . __
 72
65
 73
6
 40
4.064
 49
2.54
 74
0
 49
-0.508
 74
0
 49
0.0
 74
0
 49
-0.508
 74
0
 49
0.0
 74
0
 49
-0.508
 74
0
  0
LTYPE
  5
40
330
2
100
AcDbSymbolTableRecord
100
AcDbLinetypeTableRecord
  2
DIVIDEX2
 70
0
  3
Divide (2x) ____  . .  ____  . .  ____  . .  ____
 72
65
 73
6
 40
6.604
 49
5.08
 74
0
 49
-0.508
 74
0
 49
0.0
 74
0
 49
-0.508
 74
0
 49
0.0
 74
0
 49
-0.508
 74
0
  0
LTYPE
  5
41
330
2
100
AcDbSymbolTableRecord
100
AcDbLinetypeTableRecord
  2
DIVIDE2
 70
0
  3
Divide(.5x) _ . _ . _ . _ . _ . _ . _ . _
 72
65
 73
6
 40
2.032
 49
1.27
 74
0
 49
-0.254
 74
0
 49
0.0
 74
0
 49
-0.254
 74
0
 49
0.0
 74
0
 49
-0.254
 74
0
  0
ENDTAB
  0
TABLE
  2
LAYER
  5
1
330
0
100
AcDbSymbolTable
 70
24
  0
LAYER
  5
27
330
1
100
AcDbSymbolTableRecord
100
AcDbLayerTableRecord
  2
0
 70
0
 62
7
  6
Continuous
370
50
390
13
347
21
  0
LAYER
  5
28
330
1
100
AcDbSymbolTableRecord
100
AcDbLayerTableRecord
  2
Defpoints
 70
0
 62
7
  6
Continuous
290
0
370
50
390
13
347
21
  0
LAYER
  5
42
330
1
100
AcDbSymbolTableRecord
100
AcDbLayerTableRecord
  2
铺盖
 70
0
 62
7
  6
Continuous
370
50
390
13
347
21
  0
LAYER
  5
43
330
1
100
AcDbSymbolTableRecord
100
AcDbLayerTableRecord
  2
底板
 70
0
 62
7
  6
Continuous
370
50
390
13
347
21
  0
LAYER
  5
44
330
1
100
AcDbSymbolTableRecord
100
AcDbLayerTableRecord
  2
消力池底板
 70
0
 62
7
  6
Continuous
370
50
390
13
347
21
  0
LAYER
  5
45
330
1
100
AcDbSymbolTableRecord
100
AcDbLayerTableRecord
  2
反滤层-砾石
 70
0
 62
7
  6
Continuous
370
18
390
13
347
21
  0
LAYER
  5
46
330
1
100
AcDbSymbolTableRecord
100
AcDbLayerTableRecord
  2
反滤层-碎石
 70
0
 62
7
  6
Continuous
370
18
390
13
347
21
  0
LAYER
  5
47
330
1
100
AcDbSymbolTableRecord
100
AcDbLayerTableRecord
  2
反滤层-粗砂
 70
0
 62
7
  6
Continuous
370
18
390
13
347
21
  0
LAYER
  5
48
330
1
100
AcDbSymbolTableRecord
100
AcDbLayerTableRecord
  2
海漫-浆砌石
 70
0
 62
7
  6
Continuous
370
50
390
13
347
21
  0
LAYER
  5
49
330
1
100
AcDbSymbolTableRecord
100
AcDbLayerTableRecord
  2
海漫-干砌石
 70
0
 62
7
  6
Continuous
370
50
390
13
347
21
  0
LAYER
  5
4A
330
1
100
AcDbSymbolTableRecord
100
AcDbLayerTableRecord
  2
海漫-粗砂垫层
 70
0
 62
7
  6
Continuous
370
18
390
13
347
21
  0
LAYER
  5
4B
330
1
100
AcDbSymbolTableRecord
100
AcDbLayerTableRecord
  2
防冲槽
 70
0
 62
7
  6
Continuous
370
50
390
13
347
21
  0
LAYER
  5
4C
330
1
100
AcDbSymbolTableRecord
100
AcDbLayerTableRecord
  2
防冲槽-堆石
 70
0
 62
7
  6
Continuous
370
50
390
13
347
21
  0
LAYER
  5
4D
330
1
100
AcDbSymbolTableRecord
100
AcDbLayerTableRecord
  2
齿墙
 70
0
 62
7
  6
Continuous
370
50
390
13
347
21
  0
LAYER
  5
4E
330
1
100
AcDbSymbolTableRecord
100
AcDbLayerTableRecord
  2
闸门
 70
0
 62
7
  6
Continuous
370
50
390
13
347
21
  0
LAYER
  5
4F
330
1
100
AcDbSymbolTableRecord
100
AcDbLayerTableRecord
  2
轮廓
 70
0
 62
7
  6
Continuous
370
50
390
13
347
21
  0
LAYER
  5
50
330
1
100
AcDbSymbolTableRecord
100
AcDbLayerTableRecord
  2
尺寸标注
 70
0
 62
7
  6
Continuous
370
50
390
13
347
21
  0
LAYER
  5
51
330
1
100
AcDbSymbolTableRecord
100
AcDbLayerTableRecord
  2
文字
 70
0
 62
7
  6
Continuous
370
50
390
13
347
21
  0
LAYER
  5
52
330
1
100
AcDbSymbolTableRecord
100
AcDbLayerTableRecord
  2
标题
 70
0
 62
7
  6
Continuous
370
50
390
13
347
21
  0
LAYER
  5
53
330
1
100
AcDbSymbolTableRecord
100
AcDbLayerTableRecord
  2
钢筋混凝土-钢筋
 70
0
 62
7
  6
Continuous
370
50
390
13
347
21
  0
LAYER
  5
54
330
1
100
AcDbSymbolTableRecord
100
AcDbLayerTableRecord
  2
钢筋混凝土-混凝土
 70
0
 62
7
  6
Continuous
370
50
390
13
347
21
  0
LAYER
  5
55
330
1
100
AcDbSymbolTableRecord
100
AcDbLayerTableRecord
  2
图幅
 70
0
 62
3
  6
Continuous
370
18
390
13
347
21
  0
LAYER
  5
56
330
1
100
AcDbSymbolTableRecord
100
AcDbLayerTableRecord
  2
图框
 70
0
 62
5
  6
Continuous
370
50
390
13
347
21
  0
LAYER
  5
57
330
1
100
AcDbSymbolTableRecord
100
AcDbLayerTableRecord
  2
标题栏
 70
0
 62
7
  6
Continuous
370
18
390
13
347
21
  0
ENDTAB
  0
TABLE
  2
STYLE
  5
5
330
0
100
AcDbSymbolTable
 70
2
  0
STYLE
  5
29
330
5
100
AcDbSymbolTableRecord
100
AcDbTextStyleTableRecord
  2
Standard
 70
0
 40
0.0
 41
1.0
 50
0.0
 71
0
 42
2.5
  3
txt
  4

  0
STYLE
  5
2F
330
5
100
AcDbSymbolTableRecord
100
AcDbTextStyleTableRecord
  2
CN
 70
0
 40
0.0
 41
1.0
 50
0.0
 71
0
 42
2.5
  3
simhei.ttf
  4

  0
ENDTAB
  0
TABLE
  2
VIEW
  5
7
330
0
100
AcDbSymbolTable
 70
0
  0
ENDTAB
  0
TABLE
  2
UCS
  5
6
330
0
100
AcDbSymbolTable
 70
0
  0
ENDTAB
  0
TABLE
  2
APPID
  5
3
330
0
100
AcDbSymbolTable
 70
3
  0
APPID
  5
2A
330
3
100
AcDbSymbolTableRecord
100
AcDbRegAppTableRecord
  2
ACAD
 70
0
  0
APPID
  5
106
330
3
100
AcDbSymbolTableRecord
100
AcDbRegAppTableRecord
  2
HATCHBACKGROUNDCOLOR
 70
0
  0
APPID
  5
107
330
3
100
AcDbSymbolTableRecord
100
AcDbRegAppTableRecord
  2
EZDXF
 70
0
  0
ENDTAB
  0
TABLE
  2
DIMSTYLE
  5
4
330
0
100
AcDbSymbolTable
 70
1
100
AcDbDimStyleTable
  0
DIMSTYLE
105
2B
330
4
100
AcDbSymbolTableRecord
100
AcDbDimStyleTableRecord
  2
Standard
 70
0
 40
1.0
 41
2.5
 42
0.625
 43
3.75
 44
1.25
 45
0.0
 46
0.0
 47
0.0
 48
0.0
 49
2.5
140
2.5
141
2.5
142
0.0
143
0.03937007874
144
1.0
145
0.0
146
1.0
147
0.625
148
0.0
 69
0
 70
0
 71
0
 72
0
 73
0
 74
0
 75
0
 76
0
 77
1
 78
8
 79
3
170
0
171
3
172
1
173
0
174
0
175
0
176
0
177
0
178
0
179
2
271
2
272
2
273
2
274
3
275
0
276
0
277
2
278
44
279
0
280
0
281
0
282
0
283
0
284
8
285
0
286
0
288
0
289
3
290
0
371
-2
372
-2
  0
ENDTAB
  0
TABLE
  2
BLOCK_RECORD
  5
9
330
0
100
AcDbSymbolTable
 70
2
  0
BLOCK_RECORD
  5
17
330
9
100
AcDbSymbolTableRecord
100
AcDbBlockTableRecord
  2
*Model_Space
340
1A
 70
0
280
1
281
0
  0
BLOCK_RECORD
  5
1B
330
9
100
AcDbSymbolTableRecord
100
AcDbBlockTableRecord
  2
*Paper_Space
340
1E
 70
0
280
1
281
0
  0
ENDTAB
  0
ENDSEC
  0
SECTION
  2
BLOCKS
  0
BLOCK
  5
18
330
17
100
AcDbEntity
  8
0
100
AcDbBlockBegin
  2
*Model_Space
 70
0
 10
0.0
 20
0.0
 30
0.0
  3
*Model_Space
  1

  0
ENDBLK
  5
19
330
17
100
AcDbEntity
  8
0
100
AcDbBlockEnd
  0
BLOCK
  5
1C
330
1B
100
AcDbEntity
  8
0
100
AcDbBlockBegin
  2
*Paper_Space
 70
0
 10
0.0
 20
0.0
 30
0.0
  3
*Paper_Space
  1

  0
ENDBLK
  5
1D
330
1B
100
AcDbEntity
  8
0
100
AcDbBlockEnd
  0
ENDSEC
  0
SECTION
  2
ENTITIES
  0
LWPOLYLINE
  5
58
330
17
100
AcDbEntity
  8
铺盖
100
AcDbPolyline
 90
4
 70
0
 10
15000.0
 20
72600.0
 10
15000.0
 20
73100.0
 10
0.0
 20
73100.0
 10
0.0
 20
72600.0
  0
HATCH
  5
59
330
17
100
AcDbEntity
  8
钢筋混凝土-钢筋
 62
7
100
AcDbHatch
 10
0.0
 20
0.0
 30
0.0
210
0.0
220
0.0
230
1.0
  2
ANSI31
 70
0
 71
0
 91
1
 92
3
 72
0
 73
1
 93
4
 10
0.0
 20
72600.0
 10
15000.0
 20
72600.0
 10
15000.0
 20
73100.0
 10
0.0
 20
73100.0
 97
0
 75
1
 76
1
 52
0.0
 41
400.0
 77
0
 78
1
 53
45.0
 43
0.0
 44
0.0
 45
-898.02561212
 46
898.02561212
 79
0
 98
0
  0
HATCH
  5
5A
330
17
100
AcDbEntity
  8
钢筋混凝土-混凝土
 62
7
100
AcDbHatch
 10
0.0
 20
0.0
 30
0.0
210
0.0
220
0.0
230
1.0
  2
AR-CONC
 70
0
 71
0
 91
1
 92
3
 72
0
 73
1
 93
4
 10
0.0
 20
72600.0
 10
15000.0
 20
72600.0
 10
15000.0
 20
73100.0
 10
0.0
 20
73100.0
 97
0
 75
0
 76
1
 52
0.0
 41
200.0
 77
0
 78
13
 53
50.0
 43
0.0
 44
0.0
 45
182.184668996
 46
-15.9390855389
 79
2
 49
19.05
 49
-209.55
 53
355.0
 43
0.0
 44
0.0
 45
-35.243421425
 46
191.056845239
 79
2
 49
15.24
 49
-167.64058417
 53
100.4514447
 43
15.182007
 44
-1.3282535
 45
146.9412470904
 46
175.1177519122
 79
2
 49
16.1900088
 49
-178.0902446
 53
46.1842
 43
0.0
 44
50.8
 45
271.0790408921
 46
-42.0423279327
 79
2
 49
28.575
 49
-314.325
 53
96.63555761
 43
22.5899
 44
47.2965
 45
237.4041340515
 46
247.4261245977
 79
2
 49
24.28502314
 49
-267.13560816
 53
351.18415117
 43
0.0
 44
50.8
 45
237.404134065
 46
247.4261245855
 79
2
 49
22.85996707
 49
-251.45973192
 53
21.0
 43
25.4
 44
38.1
 45
151.6143912691
 46
-102.2651981871
 79
2
 49
19.05
 49
-209.55
 53
326.0
 43
25.4
 44
38.1
 45
61.8020283476
 46
184.1879661223
 79
2
 49
15.24
 49
-167.64
 53
71.451445
 43
38.0345326
 44
29.5779001
 45
213.4164192787
 46
81.9227688859
 79
2
 49
16.1900088
 49
-178.0899376
 53
37.5
 43
0.0
 44
0.0
 45
3.0886032506
 46
84.5550388732
 79
6
 49
0.0
 49
-165.608
 49
0.0
 49
-170.18
 49
0.0
 49
-168.275
 53
7.5
 43
0.0
 44
0.0
 45
66.8196625103
 46
100.1805748181
 79
6
 49
0.0
 49
-97.028
 49
0.0
 49
-161.798
 49
0.0
 49
-64.135
 53
-32.5
 43
-56.642
 44
0.0
 45
135.5905951669
 46
-5.7287439927
 79
6
 49
0.0
 49
-63.5
 49
0.0
 49
-198.12
 49
0.0
 49
-262.89
 53
-42.5
 43
-82.042
 44
0.0
 45
148.129181386
 46
25.4264910333
 79
6
 49
0.0
 49
-82.55
 49
0.0
 49
-131.572
 49
0.0
 49
-186.69
 98
0
  0
LWPOLYLINE
  5
5B
330
17
100
AcDbEntity
  8
铺盖
100
AcDbPolyline
 90
2
 70
0
 10
1000.0
 20
72600.0
 10
14000.0
 20
72600.0
  0
HATCH
  5
5C
330
17
100
AcDbEntity
  8
钢筋混凝土-钢筋
 62
7
100
AcDbHatch
 10
0.0
 20
0.0
 30
0.0
210
0.0
220
0.0
230
1.0
  2
ANSI31
 70
0
 71
0
 91
1
 92
3
 72
0
 73
1
 93
4
 10
0.0
 20
72600.0
 10
0.0
 20
72100.0
 10
500.0
 20
72100.0
 10
1000.0
 20
72600.0
 97
0
 75
1
 76
1
 52
0.0
 41
400.0
 77
0
 78
1
 53
45.0
 43
0.0
 44
0.0
 45
-898.02561212
 46
898.02561212
 79
0
 98
0
  0
HATCH
  5
5D
330
17
100
AcDbEntity
  8
钢筋混凝土-混凝土
 62
7
100
AcDbHatch
 10
0.0
 20
0.0
 30
0.0
210
0.0
220
0.0
230
1.0
  2
AR-CONC
 70
0
 71
0
 91
1
 92
3
 72
0
 73
1
 93
4
 10
0.0
 20
72600.0
 10
0.0
 20
72100.0
 10
500.0
 20
72100.0
 10
1000.0
 20
72600.0
 97
0
 75
0
 76
1
 52
0.0
 41
200.0
 77
0
 78
13
 53
50.0
 43
0.0
 44
0.0
 45
182.184668996
 46
-15.9390855389
 79
2
 49
19.05
 49
-209.55
 53
355.0
 43
0.0
 44
0.0
 45
-35.243421425
 46
191.056845239
 79
2
 49
15.24
 49
-167.64058417
 53
100.4514447
 43
15.182007
 44
-1.3282535
 45
146.9412470904
 46
175.1177519122
 79
2
 49
16.1900088
 49
-178.0902446
 53
46.1842
 43
0.0
 44
50.8
 45
271.0790408921
 46
-42.0423279327
 79
2
 49
28.575
 49
-314.325
 53
96.63555761
 43
22.5899
 44
47.2965
 45
237.4041340515
 46
247.4261245977
 79
2
 49
24.28502314
 49
-267.13560816
 53
351.18415117
 43
0.0
 44
50.8
 45
237.404134065
 46
247.4261245855
 79
2
 49
22.85996707
 49
-251.45973192
 53
21.0
 43
25.4
 44
38.1
 45
151.6143912691
 46
-102.2651981871
 79
2
 49
19.05
 49
-209.55
 53
326.0
 43
25.4
 44
38.1
 45
61.8020283476
 46
184.1879661223
 79
2
 49
15.24
 49
-167.64
 53
71.451445
 43
38.0345326
 44
29.5779001
 45
213.4164192787
 46
81.9227688859
 79
2
 49
16.1900088
 49
-178.0899376
 53
37.5
 43
0.0
 44
0.0
 45
3.0886032506
 46
84.5550388732
 79
6
 49
0.0
 49
-165.608
 49
0.0
 49
-170.18
 49
0.0
 49
-168.275
 53
7.5
 43
0.0
 44
0.0
 45
66.8196625103
 46
100.1805748181
 79
6
 49
0.0
 49
-97.028
 49
0.0
 49
-161.798
 49
0.0
 49
-64.135
 53
-32.5
 43
-56.642
 44
0.0
 45
135.5905951669
 46
-5.7287439927
 79
6
 49
0.0
 49
-63.5
 49
0.0
 49
-198.12
 49
0.0
 49
-262.89
 53
-42.5
 43
-82.042
 44
0.0
 45
148.129181386
 46
25.4264910333
 79
6
 49
0.0
 49
-82.55
 49
0.0
 49
-131.572
 49
0.0
 49
-186.69
 98
0
  0
LWPOLYLINE
  5
5E
330
17
100
AcDbEntity
  8
齿墙
100
AcDbPolyline
 90
4
 70
0
 10
0.0
 20
72600.0
 10
0.0
 20
72100.0
 10
500.0
 20
72100.0
 10
1000.0
 20
72600.0
  0
HATCH
  5
5F
330
17
100
AcDbEntity
  8
钢筋混凝土-钢筋
 62
7
100
AcDbHatch
 10
0.0
 20
0.0
 30
0.0
210
0.0
220
0.0
230
1.0
  2
ANSI31
 70
0
 71
0
 91
1
 92
3
 72
0
 73
1
 93
4
 10
15000.0
 20
72600.0
 10
15000.0
 20
72100.0
 10
14500.0
 20
72100.0
 10
14000.0
 20
72600.0
 97
0
 75
1
 76
1
 52
0.0
 41
400.0
 77
0
 78
1
 53
45.0
 43
0.0
 44
0.0
 45
-898.02561212
 46
898.02561212
 79
0
 98
0
  0
HATCH
  5
60
330
17
100
AcDbEntity
  8
钢筋混凝土-混凝土
 62
7
100
AcDbHatch
 10
0.0
 20
0.0
 30
0.0
210
0.0
220
0.0
230
1.0
  2
AR-CONC
 70
0
 71
0
 91
1
 92
3
 72
0
 73
1
 93
4
 10
15000.0
 20
72600.0
 10
15000.0
 20
72100.0
 10
14500.0
 20
72100.0
 10
14000.0
 20
72600.0
 97
0
 75
0
 76
1
 52
0.0
 41
200.0
 77
0
 78
13
 53
50.0
 43
0.0
 44
0.0
 45
182.184668996
 46
-15.9390855389
 79
2
 49
19.05
 49
-209.55
 53
355.0
 43
0.0
 44
0.0
 45
-35.243421425
 46
191.056845239
 79
2
 49
15.24
 49
-167.64058417
 53
100.4514447
 43
15.182007
 44
-1.3282535
 45
146.9412470904
 46
175.1177519122
 79
2
 49
16.1900088
 49
-178.0902446
 53
46.1842
 43
0.0
 44
50.8
 45
271.0790408921
 46
-42.0423279327
 79
2
 49
28.575
 49
-314.325
 53
96.63555761
 43
22.5899
 44
47.2965
 45
237.4041340515
 46
247.4261245977
 79
2
 49
24.28502314
 49
-267.13560816
 53
351.18415117
 43
0.0
 44
50.8
 45
237.404134065
 46
247.4261245855
 79
2
 49
22.85996707
 49
-251.45973192
 53
21.0
 43
25.4
 44
38.1
 45
151.6143912691
 46
-102.2651981871
 79
2
 49
19.05
 49
-209.55
 53
326.0
 43
25.4
 44
38.1
 45
61.8020283476
 46
184.1879661223
 79
2
 49
15.24
 49
-167.64
 53
71.451445
 43
38.0345326
 44
29.5779001
 45
213.4164192787
 46
81.9227688859
 79
2
 49
16.1900088
 49
-178.0899376
 53
37.5
 43
0.0
 44
0.0
 45
3.0886032506
 46
84.5550388732
 79
6
 49
0.0
 49
-165.608
 49
0.0
 49
-170.18
 49
0.0
 49
-168.275
 53
7.5
 43
0.0
 44
0.0
 45
66.8196625103
 46
100.1805748181
 79
6
 49
0.0
 49
-97.028
 49
0.0
 49
-161.798
 49
0.0
 49
-64.135
 53
-32.5
 43
-56.642
 44
0.0
 45
135.5905951669
 46
-5.7287439927
 79
6
 49
0.0
 49
-63.5
 49
0.0
 49
-198.12
 49
0.0
 49
-262.89
 53
-42.5
 43
-82.042
 44
0.0
 45
148.129181386
 46
25.4264910333
 79
6
 49
0.0
 49
-82.55
 49
0.0
 49
-131.572
 49
0.0
 49
-186.69
 98
0
  0
LWPOLYLINE
  5
61
330
17
100
AcDbEntity
  8
齿墙
100
AcDbPolyline
 90
4
 70
0
 10
15000.0
 20
72600.0
 10
15000.0
 20
72100.0
 10
14500.0
 20
72100.0
 10
14000.0
 20
72600.0
  0
LWPOLYLINE
  5
62
330
17
100
AcDbEntity
  8
底板
100
AcDbPolyline
 90
4
 70
0
 10
29000.0
 20
71900.0
 10
29000.0
 20
73100.0
 10
15000.0
 20
73100.0
 10
15000.0
 20
71900.0
  0
HATCH
  5
63
330
17
100
AcDbEntity
  8
钢筋混凝土-钢筋
 62
7
100
AcDbHatch
 10
0.0
 20
0.0
 30
0.0
210
0.0
220
0.0
230
1.0
  2
ANSI31
 70
0
 71
0
 91
1
 92
3
 72
0
 73
1
 93
4
 10
15000.0
 20
71900.0
 10
29000.0
 20
71900.0
 10
29000.0
 20
73100.0
 10
15000.0
 20
73100.0
 97
0
 75
1
 76
1
 52
0.0
 41
400.0
 77
0
 78
1
 53
45.0
 43
0.0
 44
0.0
 45
-898.02561212
 46
898.02561212
 79
0
 98
0
  0
HATCH
  5
64
330
17
100
AcDbEntity
  8
钢筋混凝土-混凝土
 62
7
100
AcDbHatch
 10
0.0
 20
0.0
 30
0.0
210
0.0
220
0.0
230
1.0
  2
AR-CONC
 70
0
 71
0
 91
1
 92
3
 72
0
 73
1
 93
4
 10
15000.0
 20
71900.0
 10
29000.0
 20
71900.0
 10
29000.0
 20
73100.0
 10
15000.0
 20
73100.0
 97
0
 75
0
 76
1
 52
0.0
 41
200.0
 77
0
 78
13
 53
50.0
 43
0.0
 44
0.0
 45
182.184668996
 46
-15.9390855389
 79
2
 49
19.05
 49
-209.55
 53
355.0
 43
0.0
 44
0.0
 45
-35.243421425
 46
191.056845239
 79
2
 49
15.24
 49
-167.64058417
 53
100.4514447
 43
15.182007
 44
-1.3282535
 45
146.9412470904
 46
175.1177519122
 79
2
 49
16.1900088
 49
-178.0902446
 53
46.1842
 43
0.0
 44
50.8
 45
271.0790408921
 46
-42.0423279327
 79
2
 49
28.575
 49
-314.325
 53
96.63555761
 43
22.5899
 44
47.2965
 45
237.4041340515
 46
247.4261245977
 79
2
 49
24.28502314
 49
-267.13560816
 53
351.18415117
 43
0.0
 44
50.8
 45
237.404134065
 46
247.4261245855
 79
2
 49
22.85996707
 49
-251.45973192
 53
21.0
 43
25.4
 44
38.1
 45
151.6143912691
 46
-102.2651981871
 79
2
 49
19.05
 49
-209.55
 53
326.0
 43
25.4
 44
38.1
 45
61.8020283476
 46
184.1879661223
 79
2
 49
15.24
 49
-167.64
 53
71.451445
 43
38.0345326
 44
29.5779001
 45
213.4164192787
 46
81.9227688859
 79
2
 49
16.1900088
 49
-178.0899376
 53
37.5
 43
0.0
 44
0.0
 45
3.0886032506
 46
84.5550388732
 79
6
 49
0.0
 49
-165.608
 49
0.0
 49
-170.18
 49
0.0
 49
-168.275
 53
7.5
 43
0.0
 44
0.0
 45
66.8196625103
 46
100.1805748181
 79
6
 49
0.0
 49
-97.028
 49
0.0
 49
-161.798
 49
0.0
 49
-64.135
 53
-32.5
 43
-56.642
 44
0.0
 45
135.5905951669
 46
-5.7287439927
 79
6
 49
0.0
 49
-63.5
 49
0.0
 49
-198.12
 49
0.0
 49
-262.89
 53
-42.5
 43
-82.042
 44
0.0
 45
148.129181386
 46
25.4264910333
 79
6
 49
0.0
 49
-82.55
 49
0.0
 49
-131.572
 49
0.0
 49
-186.69
 98
0
  0
LWPOLYLINE
  5
65
330
17
100
AcDbEntity
  8
底板
100
AcDbPolyline
 90
2
 70
0
 10
17000.0
 20
71900.0
 10
27000.0
 20
71900.0
  0
HATCH
  5
66
330
17
100
AcDbEntity
  8
钢筋混凝土-钢筋
 62
7
100
AcDbHatch
 10
0.0
 20
0.0
 30
0.0
210
0.0
220
0.0
230
1.0
  2
ANSI31
 70
0
 71
0
 91
1
 92
3
 72
0
 73
1
 93
4
 10
15000.0
 20
71900.0
 10
15000.0
 20
70900.0
 10
16000.0
 20
70900.0
 10
17000.0
 20
71900.0
 97
0
 75
1
 76
1
 52
0.0
 41
400.0
 77
0
 78
1
 53
45.0
 43
0.0
 44
0.0
 45
-898.02561212
 46
898.02561212
 79
0
 98
0
  0
HATCH
  5
67
330
17
100
AcDbEntity
  8
钢筋混凝土-混凝土
 62
7
100
AcDbHatch
 10
0.0
 20
0.0
 30
0.0
210
0.0
220
0.0
230
1.0
  2
AR-CONC
 70
0
 71
0
 91
1
 92
3
 72
0
 73
1
 93
4
 10
15000.0
 20
71900.0
 10
15000.0
 20
70900.0
 10
16000.0
 20
70900.0
 10
17000.0
 20
71900.0
 97
0
 75
0
 76
1
 52
0.0
 41
200.0
 77
0
 78
13
 53
50.0
 43
0.0
 44
0.0
 45
182.184668996
 46
-15.9390855389
 79
2
 49
19.05
 49
-209.55
 53
355.0
 43
0.0
 44
0.0
 45
-35.243421425
 46
191.056845239
 79
2
 49
15.24
 49
-167.64058417
 53
100.4514447
 43
15.182007
 44
-1.3282535
 45
146.9412470904
 46
175.1177519122
 79
2
 49
16.1900088
 49
-178.0902446
 53
46.1842
 43
0.0
 44
50.8
 45
271.0790408921
 46
-42.0423279327
 79
2
 49
28.575
 49
-314.325
 53
96.63555761
 43
22.5899
 44
47.2965
 45
237.4041340515
 46
247.4261245977
 79
2
 49
24.28502314
 49
-267.13560816
 53
351.18415117
 43
0.0
 44
50.8
 45
237.404134065
 46
247.4261245855
 79
2
 49
22.85996707
 49
-251.45973192
 53
21.0
 43
25.4
 44
38.1
 45
151.6143912691
 46
-102.2651981871
 79
2
 49
19.05
 49
-209.55
 53
326.0
 43
25.4
 44
38.1
 45
61.8020283476
 46
184.1879661223
 79
2
 49
15.24
 49
-167.64
 53
71.451445
 43
38.0345326
 44
29.5779001
 45
213.4164192787
 46
81.9227688859
 79
2
 49
16.1900088
 49
-178.0899376
 53
37.5
 43
0.0
 44
0.0
 45
3.0886032506
 46
84.5550388732
 79
6
 49
0.0
 49
-165.608
 49
0.0
 49
-170.18
 49
0.0
 49
-168.275
 53
7.5
 43
0.0
 44
0.0
 45
66.8196625103
 46
100.1805748181
 79
6
 49
0.0
 49
-97.028
 49
0.0
 49
-161.798
 49
0.0
 49
-64.135
 53
-32.5
 43
-56.642
 44
0.0
 45
135.5905951669
 46
-5.7287439927
 79
6
 49
0.0
 49
-63.5
 49
0.0
 49
-198.12
 49
0.0
 49
-262.89
 53
-42.5
 43
-82.042
 44
0.0
 45
148.129181386
 46
25.4264910333
 79
6
 49
0.0
 49
-82.55
 49
0.0
 49
-131.572
 49
0.0
 49
-186.69
 98
0
  0
LWPOLYLINE
  5
68
330
17
100
AcDbEntity
  8
齿墙
100
AcDbPolyline
 90
4
 70
0
 10
15000.0
 20
71900.0
 10
15000.0
 20
70900.0
 10
16000.0
 20
70900.0
 10
17000.0
 20
71900.0
  0
HATCH
  5
69
330
17
100
AcDbEntity
  8
钢筋混凝土-钢筋
 62
7
100
AcDbHatch
 10
0.0
 20
0.0
 30
0.0
210
0.0
220
0.0
230
1.0
  2
ANSI31
 70
0
 71
0
 91
1
 92
3
 72
0
 73
1
 93
4
 10
29000.0
 20
71900.0
 10
29000.0
 20
70900.0
 10
28000.0
 20
70900.0
 10
27000.0
 20
71900.0
 97
0
 75
1
 76
1
 52
0.0
 41
400.0
 77
0
 78
1
 53
45.0
 43
0.0
 44
0.0
 45
-898.02561212
 46
898.02561212
 79
0
 98
0
  0
HATCH
  5
6A
330
17
100
AcDbEntity
  8
钢筋混凝土-混凝土
 62
7
100
AcDbHatch
 10
0.0
 20
0.0
 30
0.0
210
0.0
220
0.0
230
1.0
  2
AR-CONC
 70
0
 71
0
 91
1
 92
3
 72
0
 73
1
 93
4
 10
29000.0
 20
71900.0
 10
29000.0
 20
70900.0
 10
28000.0
 20
70900.0
 10
27000.0
 20
71900.0
 97
0
 75
0
 76
1
 52
0.0
 41
200.0
 77
0
 78
13
 53
50.0
 43
0.0
 44
0.0
 45
182.184668996
 46
-15.9390855389
 79
2
 49
19.05
 49
-209.55
 53
355.0
 43
0.0
 44
0.0
 45
-35.243421425
 46
191.056845239
 79
2
 49
15.24
 49
-167.64058417
 53
100.4514447
 43
15.182007
 44
-1.3282535
 45
146.9412470904
 46
175.1177519122
 79
2
 49
16.1900088
 49
-178.0902446
 53
46.1842
 43
0.0
 44
50.8
 45
271.0790408921
 46
-42.0423279327
 79
2
 49
28.575
 49
-314.325
 53
96.63555761
 43
22.5899
 44
47.2965
 45
237.4041340515
 46
247.4261245977
 79
2
 49
24.28502314
 49
-267.13560816
 53
351.18415117
 43
0.0
 44
50.8
 45
237.404134065
 46
247.4261245855
 79
2
 49
22.85996707
 49
-251.45973192
 53
21.0
 43
25.4
 44
38.1
 45
151.6143912691
 46
-102.2651981871
 79
2
 49
19.05
 49
-209.55
 53
326.0
 43
25.4
 44
38.1
 45
61.8020283476
 46
184.1879661223
 79
2
 49
15.24
 49
-167.64
 53
71.451445
 43
38.0345326
 44
29.5779001
 45
213.4164192787
 46
81.9227688859
 79
2
 49
16.1900088
 49
-178.0899376
 53
37.5
 43
0.0
 44
0.0
 45
3.0886032506
 46
84.5550388732
 79
6
 49
0.0
 49
-165.608
 49
0.0
 49
-170.18
 49
0.0
 49
-168.275
 53
7.5
 43
0.0
 44
0.0
 45
66.8196625103
 46
100.1805748181
 79
6
 49
0.0
 49
-97.028
 49
0.0
 49
-161.798
 49
0.0
 49
-64.135
 53
-32.5
 43
-56.642
 44
0.0
 45
135.5905951669
 46
-5.7287439927
 79
6
 49
0.0
 49
-63.5
 49
0.0
 49
-198.12
 49
0.0
 49
-262.89
 53
-42.5
 43
-82.042
 44
0.0
 45
148.129181386
 46
25.4264910333
 79
6
 49
0.0
 49
-82.55
 49
0.0
 49
-131.572
 49
0.0
 49
-186.69
 98
0
  0
LWPOLYLINE
  5
6B
330
17
100
AcDbEntity
  8
齿墙
100
AcDbPolyline
 90
4
 70
0
 10
29000.0
 20
71900.0
 10
29000.0
 20
70900.0
 10
28000.0
 20
70900.0
 10
27000.0
 20
71900.0
  0
LWPOLYLINE
  5
6C
330
17
100
AcDbEntity
  8
消力池底板
100
AcDbPolyline
 90
4
 70
0
 10
44500.0
 20
72500.0
 10
44500.0
 20
73100.0
 10
29000.0
 20
73100.0
 10
29000.0
 20
72500.0
  0
HATCH
  5
6D
330
17
100
AcDbEntity
  8
钢筋混凝土-钢筋
 62
7
100
AcDbHatch
 10
0.0
 20
0.0
 30
0.0
210
0.0
220
0.0
230
1.0
  2
ANSI31
 70
0
 71
0
 91
1
 92
3
 72
0
 73
1
 93
4
 10
29000.0
 20
72500.0
 10
44500.0
 20
72500.0
 10
44500.0
 20
73100.0
 10
29000.0
 20
73100.0
 97
0
 75
1
 76
1
 52
0.0
 41
400.0
 77
0
 78
1
 53
45.0
 43
0.0
 44
0.0
 45
-898.02561212
 46
898.02561212
 79
0
 98
0
  0
HATCH
  5
6E
330
17
100
AcDbEntity
  8
钢筋混凝土-混凝土
 62
7
100
AcDbHatch
 10
0.0
 20
0.0
 30
0.0
210
0.0
220
0.0
230
1.0
  2
AR-CONC
 70
0
 71
0
 91
1
 92
3
 72
0
 73
1
 93
4
 10
29000.0
 20
72500.0
 10
44500.0
 20
72500.0
 10
44500.0
 20
73100.0
 10
29000.0
 20
73100.0
 97
0
 75
0
 76
1
 52
0.0
 41
200.0
 77
0
 78
13
 53
50.0
 43
0.0
 44
0.0
 45
182.184668996
 46
-15.9390855389
 79
2
 49
19.05
 49
-209.55
 53
355.0
 43
0.0
 44
0.0
 45
-35.243421425
 46
191.056845239
 79
2
 49
15.24
 49
-167.64058417
 53
100.4514447
 43
15.182007
 44
-1.3282535
 45
146.9412470904
 46
175.1177519122
 79
2
 49
16.1900088
 49
-178.0902446
 53
46.1842
 43
0.0
 44
50.8
 45
271.0790408921
 46
-42.0423279327
 79
2
 49
28.575
 49
-314.325
 53
96.63555761
 43
22.5899
 44
47.2965
 45
237.4041340515
 46
247.4261245977
 79
2
 49
24.28502314
 49
-267.13560816
 53
351.18415117
 43
0.0
 44
50.8
 45
237.404134065
 46
247.4261245855
 79
2
 49
22.85996707
 49
-251.45973192
 53
21.0
 43
25.4
 44
38.1
 45
151.6143912691
 46
-102.2651981871
 79
2
 49
19.05
 49
-209.55
 53
326.0
 43
25.4
 44
38.1
 45
61.8020283476
 46
184.1879661223
 79
2
 49
15.24
 49
-167.64
 53
71.451445
 43
38.0345326
 44
29.5779001
 45
213.4164192787
 46
81.9227688859
 79
2
 49
16.1900088
 49
-178.0899376
 53
37.5
 43
0.0
 44
0.0
 45
3.0886032506
 46
84.5550388732
 79
6
 49
0.0
 49
-165.608
 49
0.0
 49
-170.18
 49
0.0
 49
-168.275
 53
7.5
 43
0.0
 44
0.0
 45
66.8196625103
 46
100.1805748181
 79
6
 49
0.0
 49
-97.028
 49
0.0
 49
-161.798
 49
0.0
 49
-64.135
 53
-32.5
 43
-56.642
 44
0.0
 45
135.5905951669
 46
-5.7287439927
 79
6
 49
0.0
 49
-63.5
 49
0.0
 49
-198.12
 49
0.0
 49
-262.89
 53
-42.5
 43
-82.042
 44
0.0
 45
148.129181386
 46
25.4264910333
 79
6
 49
0.0
 49
-82.55
 49
0.0
 49
-131.572
 49
0.0
 49
-186.69
 98
0
  0
LWPOLYLINE
  5
6F
330
17
100
AcDbEntity
  8
消力池底板
100
AcDbPolyline
 90
2
 70
0
 10
30000.0
 20
72500.0
 10
43500.0
 20
72500.0
  0
HATCH
  5
70
330
17
100
AcDbEntity
  8
钢筋混凝土-钢筋
 62
7
100
AcDbHatch
 10
0.0
 20
0.0
 30
0.0
210
0.0
220
0.0
230
1.0
  2
ANSI31
 70
0
 71
0
 91
1
 92
3
 72
0
 73
1
 93
4
 10
29000.0
 20
72500.0
 10
29000.0
 20
72000.0
 10
29500.0
 20
72000.0
 10
30000.0
 20
72500.0
 97
0
 75
1
 76
1
 52
0.0
 41
400.0
 77
0
 78
1
 53
45.0
 43
0.0
 44
0.0
 45
-898.02561212
 46
898.02561212
 79
0
 98
0
  0
HATCH
  5
71
330
17
100
AcDbEntity
  8
钢筋混凝土-混凝土
 62
7
100
AcDbHatch
 10
0.0
 20
0.0
 30
0.0
210
0.0
220
0.0
230
1.0
  2
AR-CONC
 70
0
 71
0
 91
1
 92
3
 72
0
 73
1
 93
4
 10
29000.0
 20
72500.0
 10
29000.0
 20
72000.0
 10
29500.0
 20
72000.0
 10
30000.0
 20
72500.0
 97
0
 75
0
 76
1
 52
0.0
 41
200.0
 77
0
 78
13
 53
50.0
 43
0.0
 44
0.0
 45
182.184668996
 46
-15.9390855389
 79
2
 49
19.05
 49
-209.55
 53
355.0
 43
0.0
 44
0.0
 45
-35.243421425
 46
191.056845239
 79
2
 49
15.24
 49
-167.64058417
 53
100.4514447
 43
15.182007
 44
-1.3282535
 45
146.9412470904
 46
175.1177519122
 79
2
 49
16.1900088
 49
-178.0902446
 53
46.1842
 43
0.0
 44
50.8
 45
271.0790408921
 46
-42.0423279327
 79
2
 49
28.575
 49
-314.325
 53
96.63555761
 43
22.5899
 44
47.2965
 45
237.4041340515
 46
247.4261245977
 79
2
 49
24.28502314
 49
-267.13560816
 53
351.18415117
 43
0.0
 44
50.8
 45
237.404134065
 46
247.4261245855
 79
2
 49
22.85996707
 49
-251.45973192
 53
21.0
 43
25.4
 44
38.1
 45
151.6143912691
 46
-102.2651981871
 79
2
 49
19.05
 49
-209.55
 53
326.0
 43
25.4
 44
38.1
 45
61.8020283476
 46
184.1879661223
 79
2
 49
15.24
 49
-167.64
 53
71.451445
 43
38.0345326
 44
29.5779001
 45
213.4164192787
 46
81.9227688859
 79
2
 49
16.1900088
 49
-178.0899376
 53
37.5
 43
0.0
 44
0.0
 45
3.0886032506
 46
84.5550388732
 79
6
 49
0.0
 49
-165.608
 49
0.0
 49
-170.18
 49
0.0
 49
-168.275
 53
7.5
 43
0.0
 44
0.0
 45
66.8196625103
 46
100.1805748181
 79
6
 49
0.0
 49
-97.028
 49
0.0
 49
-161.798
 49
0.0
 49
-64.135
 53
-32.5
 43
-56.642
 44
0.0
 45
135.5905951669
 46
-5.7287439927
 79
6
 49
0.0
 49
-63.5
 49
0.0
 49
-198.12
 49
0.0
 49
-262.89
 53
-42.5
 43
-82.042
 44
0.0
 45
148.129181386
 46
25.4264910333
 79
6
 49
0.0
 49
-82.55
 49
0.0
 49
-131.572
 49
0.0
 49
-186.69
 98
0
  0
LWPOLYLINE
  5
72
330
17
100
AcDbEntity
  8
齿墙
100
AcDbPolyline
 90
4
 70
0
 10
29000.0
 20
72500.0
 10
29000.0
 20
72000.0
 10
29500.0
 20
72000.0
 10
30000.0
 20
72500.0
  0
HATCH
  5
73
330
17
100
AcDbEntity
  8
钢筋混凝土-钢筋
 62
7
100
AcDbHatch
 10
0.0
 20
0.0
 30
0.0
210
0.0
220
0.0
230
1.0
  2
ANSI31
 70
0
 71
0
 91
1
 92
3
 72
0
 73
1
 93
4
 10
44500.0
 20
72500.0
 10
44500.0
 20
72000.0
 10
44000.0
 20
72000.0
 10
43500.0
 20
72500.0
 97
0
 75
1
 76
1
 52
0.0
 41
400.0
 77
0
 78
1
 53
45.0
 43
0.0
 44
0.0
 45
-898.02561212
 46
898.02561212
 79
0
 98
0
  0
HATCH
  5
74
330
17
100
AcDbEntity
  8
钢筋混凝土-混凝土
 62
7
100
AcDbHatch
 10
0.0
 20
0.0
 30
0.0
210
0.0
220
0.0
230
1.0
  2
AR-CONC
 70
0
 71
0
 91
1
 92
3
 72
0
 73
1
 93
4
 10
44500.0
 20
72500.0
 10
44500.0
 20
72000.0
 10
44000.0
 20
72000.0
 10
43500.0
 20
72500.0
 97
0
 75
0
 76
1
 52
0.0
 41
200.0
 77
0
 78
13
 53
50.0
 43
0.0
 44
0.0
 45
182.184668996
 46
-15.9390855389
 79
2
 49
19.05
 49
-209.55
 53
355.0
 43
0.0
 44
0.0
 45
-35.243421425
 46
191.056845239
 79
2
 49
15.24
 49
-167.64058417
 53
100.4514447
 43
15.182007
 44
-1.3282535
 45
146.9412470904
 46
175.1177519122
 79
2
 49
16.1900088
 49
-178.0902446
 53
46.1842
 43
0.0
 44
50.8
 45
271.0790408921
 46
-42.0423279327
 79
2
 49
28.575
 49
-314.325
 53
96.63555761
 43
22.5899
 44
47.2965
 45
237.4041340515
 46
247.4261245977
 79
2
 49
24.28502314
 49
-267.13560816
 53
351.18415117
 43
0.0
 44
50.8
 45
237.404134065
 46
247.4261245855
 79
2
 49
22.85996707
 49
-251.45973192
 53
21.0
 43
25.4
 44
38.1
 45
151.6143912691
 46
-102.2651981871
 79
2
 49
19.05
 49
-209.55
 53
326.0
 43
25.4
 44
38.1
 45
61.8020283476
 46
184.1879661223
 79
2
 49
15.24
 49
-167.64
 53
71.451445
 43
38.0345326
 44
29.5779001
 45
213.4164192787
 46
81.9227688859
 79
2
 49
16.1900088
 49
-178.0899376
 53
37.5
 43
0.0
 44
0.0
 45
3.0886032506
 46
84.5550388732
 79
6
 49
0.0
 49
-165.608
 49
0.0
 49
-170.18
 49
0.0
 49
-168.275
 53
7.5
 43
0.0
 44
0.0
 45
66.8196625103
 46
100.1805748181
 79
6
 49
0.0
 49
-97.028
 49
0.0
 49
-161.798
 49
0.0
 49
-64.135
 53
-32.5
 43
-56.642
 44
0.0
 45
135.5905951669
 46
-5.7287439927
 79
6
 49
0.0
 49
-63.5
 49
0.0
 49
-198.12
 49
0.0
 49
-262.89
 53
-42.5
 43
-82.042
 44
0.0
 45
148.129181386
 46
25.4264910333
 79
6
 49
0.0
 49
-82.55
 49
0.0
 49
-131.572
 49
0.0
 49
-186.69
 98
0
  0
LWPOLYLINE
  5
75
330
17
100
AcDbEntity
  8
齿墙
100
AcDbPolyline
 90
4
 70
0
 10
44500.0
 20
72500.0
 10
44500.0
 20
72000.0
 10
44000.0
 20
72000.0
 10
43500.0
 20
72500.0
  0
HATCH
  5
76
330
17
100
AcDbEntity
  8
钢筋混凝土-钢筋
 62
7
100
AcDbHatch
 10
0.0
 20
0.0
 30
0.0
210
0.0
220
0.0
230
1.0
  2
ANSI31
 70
0
 71
0
 91
1
 92
3
 72
0
 73
1
 93
4
 10
44000.0
 20
73100.0
 10
44000.0
 20
73600.0
 10
44500.0
 20
73600.0
 10
44500.0
 20
73100.0
 97
0
 75
1
 76
1
 52
0.0
 41
400.0
 77
0
 78
1
 53
45.0
 43
0.0
 44
0.0
 45
-898.02561212
 46
898.02561212
 79
0
 98
0
  0
HATCH
  5
77
330
17
100
AcDbEntity
  8
钢筋混凝土-混凝土
 62
7
100
AcDbHatch
 10
0.0
 20
0.0
 30
0.0
210
0.0
220
0.0
230
1.0
  2
AR-CONC
 70
0
 71
0
 91
1
 92
3
 72
0
 73
1
 93
4
 10
44000.0
 20
73100.0
 10
44000.0
 20
73600.0
 10
44500.0
 20
73600.0
 10
44500.0
 20
73100.0
 97
0
 75
0
 76
1
 52
0.0
 41
200.0
 77
0
 78
13
 53
50.0
 43
0.0
 44
0.0
 45
182.184668996
 46
-15.9390855389
 79
2
 49
19.05
 49
-209.55
 53
355.0
 43
0.0
 44
0.0
 45
-35.243421425
 46
191.056845239
 79
2
 49
15.24
 49
-167.64058417
 53
100.4514447
 43
15.182007
 44
-1.3282535
 45
146.9412470904
 46
175.1177519122
 79
2
 49
16.1900088
 49
-178.0902446
 53
46.1842
 43
0.0
 44
50.8
 45
271.0790408921
 46
-42.0423279327
 79
2
 49
28.575
 49
-314.325
 53
96.63555761
 43
22.5899
 44
47.2965
 45
237.4041340515
 46
247.4261245977
 79
2
 49
24.28502314
 49
-267.13560816
 53
351.18415117
 43
0.0
 44
50.8
 45
237.404134065
 46
247.4261245855
 79
2
 49
22.85996707
 49
-251.45973192
 53
21.0
 43
25.4
 44
38.1
 45
151.6143912691
 46
-102.2651981871
 79
2
 49
19.05
 49
-209.55
 53
326.0
 43
25.4
 44
38.1
 45
61.8020283476
 46
184.1879661223
 79
2
 49
15.24
 49
-167.64
 53
71.451445
 43
38.0345326
 44
29.5779001
 45
213.4164192787
 46
81.9227688859
 79
2
 49
16.1900088
 49
-178.0899376
 53
37.5
 43
0.0
 44
0.0
 45
3.0886032506
 46
84.5550388732
 79
6
 49
0.0
 49
-165.608
 49
0.0
 49
-170.18
 49
0.0
 49
-168.275
 53
7.5
 43
0.0
 44
0.0
 45
66.8196625103
 46
100.1805748181
 79
6
 49
0.0
 49
-97.028
 49
0.0
 49
-161.798
 49
0.0
 49
-64.135
 53
-32.5
 43
-56.642
 44
0.0
 45
135.5905951669
 46
-5.7287439927
 79
6
 49
0.0
 49
-63.5
 49
0.0
 49
-198.12
 49
0.0
 49
-262.89
 53
-42.5
 43
-82.042
 44
0.0
 45
148.129181386
 46
25.4264910333
 79
6
 49
0.0
 49
-82.55
 49
0.0
 49
-131.572
 49
0.0
 49
-186.69
 98
0
  0
LWPOLYLINE
  5
78
330
17
100
AcDbEntity
  8
齿墙
100
AcDbPolyline
 90
4
 70
0
 10
44000.0
 20
73100.0
 10
44000.0
 20
73600.0
 10
44500.0
 20
73600.0
 10
44500.0
 20
73100.0
  0
LWPOLYLINE
  5
79
330
17
100
AcDbEntity
  8
反滤层-砾石
100
AcDbPolyline
 90
4
 70
1
 10
30000.0
 20
72300.0
 10
43500.0
 20
72300.0
 10
43500.0
 20
72500.0
 10
30000.0
 20
72500.0
  0
LWPOLYLINE
  5
7A
330
17
100
AcDbEntity
  8
反滤层-碎石
100
AcDbPolyline
 90
4
 70
1
 10
30000.0
 20
72000.0
 10
43500.0
 20
72000.0
 10
43500.0
 20
72300.0
 10
30000.0
 20
72300.0
  0
LWPOLYLINE
  5
7B
330
17
100
AcDbEntity
  8
反滤层-粗砂
100
AcDbPolyline
 90
4
 70
1
 10
29000.0
 20
71800.0
 10
44500.0
 20
71800.0
 10
44500.0
 20
72000.0
 10
29000.0
 20
72000.0
  0
LWPOLYLINE
  5
7C
330
17
100
AcDbEntity
  8
海漫-浆砌石
100
AcDbPolyline
 90
4
 70
0
 10
54500.0
 20
73100.0
 10
54500.0
 20
73600.0
 10
44500.0
 20
73600.0
 10
44500.0
 20
73100.0
  0
HATCH
  5
7D
330
17
100
AcDbEntity
  8
钢筋混凝土-钢筋
 62
7
100
AcDbHatch
 10
0.0
 20
0.0
 30
0.0
210
0.0
220
0.0
230
1.0
  2
ANSI31
 70
0
 71
0
 91
1
 92
3
 72
0
 73
1
 93
4
 10
44500.0
 20
73100.0
 10
54500.0
 20
73100.0
 10
54500.0
 20
73600.0
 10
44500.0
 20
73600.0
 97
0
 75
1
 76
1
 52
0.0
 41
400.0
 77
0
 78
1
 53
45.0
 43
0.0
 44
0.0
 45
-898.02561212
 46
898.02561212
 79
0
 98
0
  0
HATCH
  5
7E
330
17
100
AcDbEntity
  8
钢筋混凝土-混凝土
 62
7
100
AcDbHatch
 10
0.0
 20
0.0
 30
0.0
210
0.0
220
0.0
230
1.0
  2
AR-CONC
 70
0
 71
0
 91
1
 92
3
 72
0
 73
1
 93
4
 10
44500.0
 20
73100.0
 10
54500.0
 20
73100.0
 10
54500.0
 20
73600.0
 10
44500.0
 20
73600.0
 97
0
 75
0
 76
1
 52
0.0
 41
200.0
 77
0
 78
13
 53
50.0
 43
0.0
 44
0.0
 45
182.184668996
 46
-15.9390855389
 79
2
 49
19.05
 49
-209.55
 53
355.0
 43
0.0
 44
0.0
 45
-35.243421425
 46
191.056845239
 79
2
 49
15.24
 49
-167.64058417
 53
100.4514447
 43
15.182007
 44
-1.3282535
 45
146.9412470904
 46
175.1177519122
 79
2
 49
16.1900088
 49
-178.0902446
 53
46.1842
 43
0.0
 44
50.8
 45
271.0790408921
 46
-42.0423279327
 79
2
 49
28.575
 49
-314.325
 53
96.63555761
 43
22.5899
 44
47.2965
 45
237.4041340515
 46
247.4261245977
 79
2
 49
24.28502314
 49
-267.13560816
 53
351.18415117
 43
0.0
 44
50.8
 45
237.404134065
 46
247.4261245855
 79
2
 49
22.85996707
 49
-251.45973192
 53
21.0
 43
25.4
 44
38.1
 45
151.6143912691
 46
-102.2651981871
 79
2
 49
19.05
 49
-209.55
 53
326.0
 43
25.4
 44
38.1
 45
61.8020283476
 46
184.1879661223
 79
2
 49
15.24
 49
-167.64
 53
71.451445
 43
38.0345326
 44
29.5779001
 45
213.4164192787
 46
81.9227688859
 79
2
 49
16.1900088
 49
-178.0899376
 53
37.5
 43
0.0
 44
0.0
 45
3.0886032506
 46
84.5550388732
 79
6
 49
0.0
 49
-165.608
 49
0.0
 49
-170.18
 49
0.0
 49
-168.275
 53
7.5
 43
0.0
 44
0.0
 45
66.8196625103
 46
100.1805748181
 79
6
 49
0.0
 49
-97.028
 49
0.0
 49
-161.798
 49
0.0
 49
-64.135
 53
-32.5
 43
-56.642
 44
0.0
 45
135.5905951669
 46
-5.7287439927
 79
6
 49
0.0
 49
-63.5
 49
0.0
 49
-198.12
 49
0.0
 49
-262.89
 53
-42.5
 43
-82.042
 44
0.0
 45
148.129181386
 46
25.4264910333
 79
6
 49
0.0
 49
-82.55
 49
0.0
 49
-131.572
 49
0.0
 49
-186.69
 98
0
  0
LWPOLYLINE
  5
7F
330
17
100
AcDbEntity
  8
海漫-浆砌石
100
AcDbPolyline
 90
2
 70
0
 10
45500.0
 20
73100.0
 10
53500.0
 20
73100.0
  0
LWPOLYLINE
  5
80
330
17
100
AcDbEntity
  8
海漫-干砌石
100
AcDbPolyline
 90
4
 70
1
 10
54500.0
 20
73600.0
 10
64500.0
 20
72600.0
 10
64500.0
 20
72100.0
 10
54500.0
 20
73100.0
  0
HATCH
  5
81
330
17
100
AcDbEntity
  8
钢筋混凝土-钢筋
 62
7
100
AcDbHatch
 10
0.0
 20
0.0
 30
0.0
210
0.0
220
0.0
230
1.0
  2
ANSI31
 70
0
 71
0
 91
1
 92
3
 72
0
 73
1
 93
4
 10
54500.0
 20
73600.0
 10
64500.0
 20
72600.0
 10
64500.0
 20
72100.0
 10
54500.0
 20
73100.0
 97
0
 75
1
 76
1
 52
0.0
 41
400.0
 77
0
 78
1
 53
45.0
 43
0.0
 44
0.0
 45
-898.02561212
 46
898.02561212
 79
0
 98
0
  0
HATCH
  5
82
330
17
100
AcDbEntity
  8
钢筋混凝土-混凝土
 62
7
100
AcDbHatch
 10
0.0
 20
0.0
 30
0.0
210
0.0
220
0.0
230
1.0
  2
AR-CONC
 70
0
 71
0
 91
1
 92
3
 72
0
 73
1
 93
4
 10
54500.0
 20
73600.0
 10
64500.0
 20
72600.0
 10
64500.0
 20
72100.0
 10
54500.0
 20
73100.0
 97
0
 75
0
 76
1
 52
0.0
 41
200.0
 77
0
 78
13
 53
50.0
 43
0.0
 44
0.0
 45
182.184668996
 46
-15.9390855389
 79
2
 49
19.05
 49
-209.55
 53
355.0
 43
0.0
 44
0.0
 45
-35.243421425
 46
191.056845239
 79
2
 49
15.24
 49
-167.64058417
 53
100.4514447
 43
15.182007
 44
-1.3282535
 45
146.9412470904
 46
175.1177519122
 79
2
 49
16.1900088
 49
-178.0902446
 53
46.1842
 43
0.0
 44
50.8
 45
271.0790408921
 46
-42.0423279327
 79
2
 49
28.575
 49
-314.325
 53
96.63555761
 43
22.5899
 44
47.2965
 45
237.4041340515
 46
247.4261245977
 79
2
 49
24.28502314
 49
-267.13560816
 53
351.18415117
 43
0.0
 44
50.8
 45
237.404134065
 46
247.4261245855
 79
2
 49
22.85996707
 49
-251.45973192
 53
21.0
 43
25.4
 44
38.1
 45
151.6143912691
 46
-102.2651981871
 79
2
 49
19.05
 49
-209.55
 53
326.0
 43
25.4
 44
38.1
 45
61.8020283476
 46
184.1879661223
 79
2
 49
15.24
 49
-167.64
 53
71.451445
 43
38.0345326
 44
29.5779001
 45
213.4164192787
 46
81.9227688859
 79
2
 49
16.1900088
 49
-178.0899376
 53
37.5
 43
0.0
 44
0.0
 45
3.0886032506
 46
84.5550388732
 79
6
 49
0.0
 49
-165.608
 49
0.0
 49
-170.18
 49
0.0
 49
-168.275
 53
7.5
 43
0.0
 44
0.0
 45
66.8196625103
 46
100.1805748181
 79
6
 49
0.0
 49
-97.028
 49
0.0
 49
-161.798
 49
0.0
 49
-64.135
 53
-32.5
 43
-56.642
 44
0.0
 45
135.5905951669
 46
-5.7287439927
 79
6
 49
0.0
 49
-63.5
 49
0.0
 49
-198.12
 49
0.0
 49
-262.89
 53
-42.5
 43
-82.042
 44
0.0
 45
148.129181386
 46
25.4264910333
 79
6
 49
0.0
 49
-82.55
 49
0.0
 49
-131.572
 49
0.0
 49
-186.69
 98
0
  0
HATCH
  5
83
330
17
100
AcDbEntity
  8
钢筋混凝土-钢筋
 62
7
100
AcDbHatch
 10
0.0
 20
0.0
 30
0.0
210
0.0
220
0.0
230
1.0
  2
ANSI31
 70
0
 71
0
 91
1
 92
3
 72
0
 73
1
 93
4
 10
44500.0
 20
73100.0
 10
44500.0
 20
72600.0
 10
45000.0
 20
72600.0
 10
45500.0
 20
73100.0
 97
0
 75
1
 76
1
 52
0.0
 41
400.0
 77
0
 78
1
 53
45.0
 43
0.0
 44
0.0
 45
-898.02561212
 46
898.02561212
 79
0
 98
0
  0
HATCH
  5
84
330
17
100
AcDbEntity
  8
钢筋混凝土-混凝土
 62
7
100
AcDbHatch
 10
0.0
 20
0.0
 30
0.0
210
0.0
220
0.0
230
1.0
  2
AR-CONC
 70
0
 71
0
 91
1
 92
3
 72
0
 73
1
 93
4
 10
44500.0
 20
73100.0
 10
44500.0
 20
72600.0
 10
45000.0
 20
72600.0
 10
45500.0
 20
73100.0
 97
0
 75
0
 76
1
 52
0.0
 41
200.0
 77
0
 78
13
 53
50.0
 43
0.0
 44
0.0
 45
182.184668996
 46
-15.9390855389
 79
2
 49
19.05
 49
-209.55
 53
355.0
 43
0.0
 44
0.0
 45
-35.243421425
 46
191.056845239
 79
2
 49
15.24
 49
-167.64058417
 53
100.4514447
 43
15.182007
 44
-1.3282535
 45
146.9412470904
 46
175.1177519122
 79
2
 49
16.1900088
 49
-178.0902446
 53
46.1842
 43
0.0
 44
50.8
 45
271.0790408921
 46
-42.0423279327
 79
2
 49
28.575
 49
-314.325
 53
96.63555761
 43
22.5899
 44
47.2965
 45
237.4041340515
 46
247.4261245977
 79
2
 49
24.28502314
 49
-267.13560816
 53
351.18415117
 43
0.0
 44
50.8
 45
237.404134065
 46
247.4261245855
 79
2
 49
22.85996707
 49
-251.45973192
 53
21.0
 43
25.4
 44
38.1
 45
151.6143912691
 46
-102.2651981871
 79
2
 49
19.05
 49
-209.55
 53
326.0
 43
25.4
 44
38.1
 45
61.8020283476
 46
184.1879661223
 79
2
 49
15.24
 49
-167.64
 53
71.451445
 43
38.0345326
 44
29.5779001
 45
213.4164192787
 46
81.9227688859
 79
2
 49
16.1900088
 49
-178.0899376
 53
37.5
 43
0.0
 44
0.0
 45
3.0886032506
 46
84.5550388732
 79
6
 49
0.0
 49
-165.608
 49
0.0
 49
-170.18
 49
0.0
 49
-168.275
 53
7.5
 43
0.0
 44
0.0
 45
66.8196625103
 46
100.1805748181
 79
6
 49
0.0
 49
-97.028
 49
0.0
 49
-161.798
 49
0.0
 49
-64.135
 53
-32.5
 43
-56.642
 44
0.0
 45
135.5905951669
 46
-5.7287439927
 79
6
 49
0.0
 49
-63.5
 49
0.0
 49
-198.12
 49
0.0
 49
-262.89
 53
-42.5
 43
-82.042
 44
0.0
 45
148.129181386
 46
25.4264910333
 79
6
 49
0.0
 49
-82.55
 49
0.0
 49
-131.572
 49
0.0
 49
-186.69
 98
0
  0
LWPOLYLINE
  5
85
330
17
100
AcDbEntity
  8
齿墙
100
AcDbPolyline
 90
4
 70
0
 10
44500.0
 20
73100.0
 10
44500.0
 20
72600.0
 10
45000.0
 20
72600.0
 10
45500.0
 20
73100.0
  0
HATCH
  5
86
330
17
100
AcDbEntity
  8
钢筋混凝土-钢筋
 62
7
100
AcDbHatch
 10
0.0
 20
0.0
 30
0.0
210
0.0
220
0.0
230
1.0
  2
ANSI31
 70
0
 71
0
 91
1
 92
3
 72
0
 73
1
 93
4
 10
54500.0
 20
73100.0
 10
54500.0
 20
72600.0
 10
54000.0
 20
72600.0
 10
53500.0
 20
73100.0
 97
0
 75
1
 76
1
 52
0.0
 41
400.0
 77
0
 78
1
 53
45.0
 43
0.0
 44
0.0
 45
-898.02561212
 46
898.02561212
 79
0
 98
0
  0
HATCH
  5
87
330
17
100
AcDbEntity
  8
钢筋混凝土-混凝土
 62
7
100
AcDbHatch
 10
0.0
 20
0.0
 30
0.0
210
0.0
220
0.0
230
1.0
  2
AR-CONC
 70
0
 71
0
 91
1
 92
3
 72
0
 73
1
 93
4
 10
54500.0
 20
73100.0
 10
54500.0
 20
72600.0
 10
54000.0
 20
72600.0
 10
53500.0
 20
73100.0
 97
0
 75
0
 76
1
 52
0.0
 41
200.0
 77
0
 78
13
 53
50.0
 43
0.0
 44
0.0
 45
182.184668996
 46
-15.9390855389
 79
2
 49
19.05
 49
-209.55
 53
355.0
 43
0.0
 44
0.0
 45
-35.243421425
 46
191.056845239
 79
2
 49
15.24
 49
-167.64058417
 53
100.4514447
 43
15.182007
 44
-1.3282535
 45
146.9412470904
 46
175.1177519122
 79
2
 49
16.1900088
 49
-178.0902446
 53
46.1842
 43
0.0
 44
50.8
 45
271.0790408921
 46
-42.0423279327
 79
2
 49
28.575
 49
-314.325
 53
96.63555761
 43
22.5899
 44
47.2965
 45
237.4041340515
 46
247.4261245977
 79
2
 49
24.28502314
 49
-267.13560816
 53
351.18415117
 43
0.0
 44
50.8
 45
237.404134065
 46
247.4261245855
 79
2
 49
22.85996707
 49
-251.45973192
 53
21.0
 43
25.4
 44
38.1
 45
151.6143912691
 46
-102.2651981871
 79
2
 49
19.05
 49
-209.55
 53
326.0
 43
25.4
 44
38.1
 45
61.8020283476
 46
184.1879661223
 79
2
 49
15.24
 49
-167.64
 53
71.451445
 43
38.0345326
 44
29.5779001
 45
213.4164192787
 46
81.9227688859
 79
2
 49
16.1900088
 49
-178.0899376
 53
37.5
 43
0.0
 44
0.0
 45
3.0886032506
 46
84.5550388732
 79
6
 49
0.0
 49
-165.608
 49
0.0
 49
-170.18
 49
0.0
 49
-168.275
 53
7.5
 43
0.0
 44
0.0
 45
66.8196625103
 46
100.1805748181
 79
6
 49
0.0
 49
-97.028
 49
0.0
 49
-161.798
 49
0.0
 49
-64.135
 53
-32.5
 43
-56.642
 44
0.0
 45
135.5905951669
 46
-5.7287439927
 79
6
 49
0.0
 49
-63.5
 49
0.0
 49
-198.12
 49
0.0
 49
-262.89
 53
-42.5
 43
-82.042
 44
0.0
 45
148.129181386
 46
25.4264910333
 79
6
 49
0.0
 49
-82.55
 49
0.0
 49
-131.572
 49
0.0
 49
-186.69
 98
0
  0
LWPOLYLINE
  5
88
330
17
100
AcDbEntity
  8
齿墙
100
AcDbPolyline
 90
4
 70
0
 10
54500.0
 20
73100.0
 10
54500.0
 20
72600.0
 10
54000.0
 20
72600.0
 10
53500.0
 20
73100.0
  0
HATCH
  5
89
330
17
100
AcDbEntity
  8
钢筋混凝土-钢筋
 62
7
100
AcDbHatch
 10
0.0
 20
0.0
 30
0.0
210
0.0
220
0.0
230
1.0
  2
ANSI31
 70
0
 71
0
 91
1
 92
3
 72
0
 73
1
 93
4
 10
64500.0
 20
72100.0
 10
64500.0
 20
71600.0
 10
64000.0
 20
71600.0
 10
63500.0
 20
72200.0
 97
0
 75
1
 76
1
 52
0.0
 41
400.0
 77
0
 78
1
 53
45.0
 43
0.0
 44
0.0
 45
-898.02561212
 46
898.02561212
 79
0
 98
0
  0
HATCH
  5
8A
330
17
100
AcDbEntity
  8
钢筋混凝土-混凝土
 62
7
100
AcDbHatch
 10
0.0
 20
0.0
 30
0.0
210
0.0
220
0.0
230
1.0
  2
AR-CONC
 70
0
 71
0
 91
1
 92
3
 72
0
 73
1
 93
4
 10
64500.0
 20
72100.0
 10
64500.0
 20
71600.0
 10
64000.0
 20
71600.0
 10
63500.0
 20
72200.0
 97
0
 75
0
 76
1
 52
0.0
 41
200.0
 77
0
 78
13
 53
50.0
 43
0.0
 44
0.0
 45
182.184668996
 46
-15.9390855389
 79
2
 49
19.05
 49
-209.55
 53
355.0
 43
0.0
 44
0.0
 45
-35.243421425
 46
191.056845239
 79
2
 49
15.24
 49
-167.64058417
 53
100.4514447
 43
15.182007
 44
-1.3282535
 45
146.9412470904
 46
175.1177519122
 79
2
 49
16.1900088
 49
-178.0902446
 53
46.1842
 43
0.0
 44
50.8
 45
271.0790408921
 46
-42.0423279327
 79
2
 49
28.575
 49
-314.325
 53
96.63555761
 43
22.5899
 44
47.2965
 45
237.4041340515
 46
247.4261245977
 79
2
 49
24.28502314
 49
-267.13560816
 53
351.18415117
 43
0.0
 44
50.8
 45
237.404134065
 46
247.4261245855
 79
2
 49
22.85996707
 49
-251.45973192
 53
21.0
 43
25.4
 44
38.1
 45
151.6143912691
 46
-102.2651981871
 79
2
 49
19.05
 49
-209.55
 53
326.0
 43
25.4
 44
38.1
 45
61.8020283476
 46
184.1879661223
 79
2
 49
15.24
 49
-167.64
 53
71.451445
 43
38.0345326
 44
29.5779001
 45
213.4164192787
 46
81.9227688859
 79
2
 49
16.1900088
 49
-178.0899376
 53
37.5
 43
0.0
 44
0.0
 45
3.0886032506
 46
84.5550388732
 79
6
 49
0.0
 49
-165.608
 49
0.0
 49
-170.18
 49
0.0
 49
-168.275
 53
7.5
 43
0.0
 44
0.0
 45
66.8196625103
 46
100.1805748181
 79
6
 49
0.0
 49
-97.028
 49
0.0
 49
-161.798
 49
0.0
 49
-64.135
 53
-32.5
 43
-56.642
 44
0.0
 45
135.5905951669
 46
-5.7287439927
 79
6
 49
0.0
 49
-63.5
 49
0.0
 49
-198.12
 49
0.0
 49
-262.89
 53
-42.5
 43
-82.042
 44
0.0
 45
148.129181386
 46
25.4264910333
 79
6
 49
0.0
 49
-82.55
 49
0.0
 49
-131.572
 49
0.0
 49
-186.69
 98
0
  0
LWPOLYLINE
  5
8B
330
17
100
AcDbEntity
  8
齿墙
100
AcDbPolyline
 90
4
 70
0
 10
64500.0
 20
72100.0
 10
64500.0
 20
71600.0
 10
64000.0
 20
71600.0
 10
63500.0
 20
72200.0
  0
LWPOLYLINE
  5
8C
330
17
100
AcDbEntity
  8
防冲槽
100
AcDbPolyline
 90
4
 70
1
 10
64500.0
 20
72600.0
 10
70200.0
 20
69750.0
 10
75200.0
 20
69750.0
 10
80900.0
 20
72600.0
  0
LWPOLYLINE
  5
8D
330
17
100
AcDbEntity
  8
防冲槽-堆石
100
AcDbPolyline
 90
4
 70
1
 10
64500.0
 20
72600.0
 10
70200.0
 20
69750.0
 10
70200.0
 20
70150.0
 10
64500.0
 20
72200.0
  0
LWPOLYLINE
  5
8E
330
17
100
AcDbEntity
  8
防冲槽-堆石
100
AcDbPolyline
 90
4
 70
1
 10
80900.0
 20
72600.0
 10
75200.0
 20
69750.0
 10
75200.0
 20
70150.0
 10
80900.0
 20
72200.0
  0
LWPOLYLINE
  5
8F
330
17
100
AcDbEntity
  8
防冲槽-堆石
100
AcDbPolyline
 90
4
 70
1
 10
70200.0
 20
69750.0
 10
75200.0
 20
69750.0
 10
75200.0
 20
70150.0
 10
70200.0
 20
70150.0
  0
LWPOLYLINE
  5
90
330
17
100
AcDbEntity
  8
尺寸标注
 62
7
100
AcDbPolyline
 90
2
 70
0
 10
0.0
 20
67250.0
 10
15000.0
 20
67250.0
  0
LWPOLYLINE
  5
91
330
17
100
AcDbEntity
  8
尺寸标注
 62
7
100
AcDbPolyline
 90
2
 70
0
 10
0.0
 20
67150.0
 10
0.0
 20
67550.0
  0
LWPOLYLINE
  5
92
330
17
100
AcDbEntity
  8
尺寸标注
 62
7
100
AcDbPolyline
 90
2
 70
0
 10
15000.0
 20
67150.0
 10
15000.0
 20
67550.0
  0
TEXT
  5
93
330
17
100
AcDbEntity
  8
尺寸标注
 62
7
100
AcDbText
 10
7500.0
 20
67300.0
 30
0.0
 40
350.0
  1
铺盖 15000 mm
  7
CN
 11
7500.0
 21
67300.0
 31
0.0
100
AcDbText
 73
1
  0
LWPOLYLINE
  5
94
330
17
100
AcDbEntity
  8
尺寸标注
 62
7
100
AcDbPolyline
 90
2
 70
0
 10
15000.0
 20
67250.0
 10
29000.0
 20
67250.0
  0
LWPOLYLINE
  5
95
330
17
100
AcDbEntity
  8
尺寸标注
 62
7
100
AcDbPolyline
 90
2
 70
0
 10
15000.0
 20
67150.0
 10
15000.0
 20
67550.0
  0
LWPOLYLINE
  5
96
330
17
100
AcDbEntity
  8
尺寸标注
 62
7
100
AcDbPolyline
 90
2
 70
0
 10
29000.0
 20
67150.0
 10
29000.0
 20
67550.0
  0
TEXT
  5
97
330
17
100
AcDbEntity
  8
尺寸标注
 62
7
100
AcDbText
 10
22000.0
 20
67300.0
 30
0.0
 40
350.0
  1
底板 14000 mm
  7
CN
 11
22000.0
 21
67300.0
 31
0.0
100
AcDbText
 73
1
  0
LWPOLYLINE
  5
98
330
17
100
AcDbEntity
  8
尺寸标注
 62
7
100
AcDbPolyline
 90
2
 70
0
 10
29000.0
 20
67250.0
 10
44500.0
 20
67250.0
  0
LWPOLYLINE
  5
99
330
17
100
AcDbEntity
  8
尺寸标注
 62
7
100
AcDbPolyline
 90
2
 70
0
 10
29000.0
 20
67150.0
 10
29000.0
 20
67550.0
  0
LWPOLYLINE
  5
9A
330
17
100
AcDbEntity
  8
尺寸标注
 62
7
100
AcDbPolyline
 90
2
 70
0
 10
44500.0
 20
67150.0
 10
44500.0
 20
67550.0
  0
TEXT
  5
9B
330
17
100
AcDbEntity
  8
尺寸标注
 62
7
100
AcDbText
 10
36750.0
 20
67300.0
 30
0.0
 40
350.0
  1
消力池 15500 mm
  7
CN
 11
36750.0
 21
67300.0
 31
0.0
100
AcDbText
 73
1
  0
LWPOLYLINE
  5
9C
330
17
100
AcDbEntity
  8
尺寸标注
 62
7
100
AcDbPolyline
 90
2
 70
0
 10
44500.0
 20
67250.0
 10
64500.0
 20
67250.0
  0
LWPOLYLINE
  5
9D
330
17
100
AcDbEntity
  8
尺寸标注
 62
7
100
AcDbPolyline
 90
2
 70
0
 10
44500.0
 20
67150.0
 10
44500.0
 20
67550.0
  0
LWPOLYLINE
  5
9E
330
17
100
AcDbEntity
  8
尺寸标注
 62
7
100
AcDbPolyline
 90
2
 70
0
 10
64500.0
 20
67150.0
 10
64500.0
 20
67550.0
  0
TEXT
  5
9F
330
17
100
AcDbEntity
  8
尺寸标注
 62
7
100
AcDbText
 10
54500.0
 20
67300.0
 30
0.0
 40
350.0
  1
海漫 20000 mm
  7
CN
 11
54500.0
 21
67300.0
 31
0.0
100
AcDbText
 73
1
  0
LWPOLYLINE
  5
A0
330
17
100
AcDbEntity
  8
尺寸标注
 62
7
100
AcDbPolyline
 90
2
 70
0
 10
64500.0
 20
67250.0
 10
80900.0
 20
67250.0
  0
LWPOLYLINE
  5
A1
330
17
100
AcDbEntity
  8
尺寸标注
 62
7
100
AcDbPolyline
 90
2
 70
0
 10
64500.0
 20
67150.0
 10
64500.0
 20
67550.0
  0
LWPOLYLINE
  5
A2
330
17
100
AcDbEntity
  8
尺寸标注
 62
7
100
AcDbPolyline
 90
2
 70
0
 10
80900.0
 20
67150.0
 10
80900.0
 20
67550.0
  0
TEXT
  5
A3
330
17
100
AcDbEntity
  8
尺寸标注
 62
7
100
AcDbText
 10
72700.0
 20
67300.0
 30
0.0
 40
350.0
  1
防冲槽 16400 mm
  7
CN
 11
72700.0
 21
67300.0
 31
0.0
100
AcDbText
 73
1
  0
LWPOLYLINE
  5
A4
330
17
100
AcDbEntity
  8
尺寸标注
 62
7
100
AcDbPolyline
 90
2
 70
0
 10
0.0
 20
65750.0
 10
80900.0
 20
65750.0
  0
LWPOLYLINE
  5
A5
330
17
100
AcDbEntity
  8
尺寸标注
 62
7
100
AcDbPolyline
 90
2
 70
0
 10
0.0
 20
65650.0
 10
0.0
 20
66050.0
  0
LWPOLYLINE
  5
A6
330
17
100
AcDbEntity
  8
尺寸标注
 62
7
100
AcDbPolyline
 90
2
 70
0
 10
80900.0
 20
65650.0
 10
80900.0
 20
66050.0
  0
TEXT
  5
A7
330
17
100
AcDbEntity
  8
尺寸标注
 62
7
100
AcDbText
 10
40450.0
 20
65800.0
 30
0.0
 40
350.0
  1
总长 80900 mm
  7
CN
 11
40450.0
 21
65800.0
 31
0.0
100
AcDbText
 73
1
  0
LWPOLYLINE
  5
A8
330
17
100
AcDbEntity
  8
闸门
100
AcDbPolyline
 90
4
 70
1
 10
15650.0
 20
73100.0
 10
15950.0
 20
73100.0
 10
15950.0
 20
78800.0
 10
15650.0
 20
78800.0
  0
LWPOLYLINE
  5
A9
330
17
100
AcDbEntity
  8
闸门
100
AcDbPolyline
 90
4
 70
1
 10
17850.0
 20
73100.0
 10
18650.0
 20
73100.0
 10
18650.0
 20
78800.0
 10
17850.0
 20
78800.0
  0
LWPOLYLINE
  5
AA
330
17
100
AcDbEntity
  8
闸门
100
AcDbPolyline
 90
4
 70
1
 10
15950.0
 20
78800.0
 10
16350.0
 20
78800.0
 10
16350.0
 20
84800.0
 10
15950.0
 20
84800.0
  0
HATCH
  5
AB
330
17
100
AcDbEntity
  8
钢筋混凝土-钢筋
 62
7
100
AcDbHatch
 10
0.0
 20
0.0
 30
0.0
210
0.0
220
0.0
230
1.0
  2
ANSI31
 70
0
 71
0
 91
1
 92
3
 72
0
 73
1
 93
4
 10
15950.0
 20
78800.0
 10
16350.0
 20
78800.0
 10
16350.0
 20
84800.0
 10
15950.0
 20
84800.0
 97
0
 75
1
 76
1
 52
0.0
 41
400.0
 77
0
 78
1
 53
45.0
 43
0.0
 44
0.0
 45
-898.02561212
 46
898.02561212
 79
0
 98
0
  0
HATCH
  5
AC
330
17
100
AcDbEntity
  8
钢筋混凝土-混凝土
 62
7
100
AcDbHatch
 10
0.0
 20
0.0
 30
0.0
210
0.0
220
0.0
230
1.0
  2
AR-CONC
 70
0
 71
0
 91
1
 92
3
 72
0
 73
1
 93
4
 10
15950.0
 20
78800.0
 10
16350.0
 20
78800.0
 10
16350.0
 20
84800.0
 10
15950.0
 20
84800.0
 97
0
 75
0
 76
1
 52
0.0
 41
200.0
 77
0
 78
13
 53
50.0
 43
0.0
 44
0.0
 45
182.184668996
 46
-15.9390855389
 79
2
 49
19.05
 49
-209.55
 53
355.0
 43
0.0
 44
0.0
 45
-35.243421425
 46
191.056845239
 79
2
 49
15.24
 49
-167.64058417
 53
100.4514447
 43
15.182007
 44
-1.3282535
 45
146.9412470904
 46
175.1177519122
 79
2
 49
16.1900088
 49
-178.0902446
 53
46.1842
 43
0.0
 44
50.8
 45
271.0790408921
 46
-42.0423279327
 79
2
 49
28.575
 49
-314.325
 53
96.63555761
 43
22.5899
 44
47.2965
 45
237.4041340515
 46
247.4261245977
 79
2
 49
24.28502314
 49
-267.13560816
 53
351.18415117
 43
0.0
 44
50.8
 45
237.404134065
 46
247.4261245855
 79
2
 49
22.85996707
 49
-251.45973192
 53
21.0
 43
25.4
 44
38.1
 45
151.6143912691
 46
-102.2651981871
 79
2
 49
19.05
 49
-209.55
 53
326.0
 43
25.4
 44
38.1
 45
61.8020283476
 46
184.1879661223
 79
2
 49
15.24
 49
-167.64
 53
71.451445
 43
38.0345326
 44
29.5779001
 45
213.4164192787
 46
81.9227688859
 79
2
 49
16.1900088
 49
-178.0899376
 53
37.5
 43
0.0
 44
0.0
 45
3.0886032506
 46
84.5550388732
 79
6
 49
0.0
 49
-165.608
 49
0.0
 49
-170.18
 49
0.0
 49
-168.275
 53
7.5
 43
0.0
 44
0.0
 45
66.8196625103
 46
100.1805748181
 79
6
 49
0.0
 49
-97.028
 49
0.0
 49
-161.798
 49
0.0
 49
-64.135
 53
-32.5
 43
-56.642
 44
0.0
 45
135.5905951669
 46
-5.7287439927
 79
6
 49
0.0
 49
-63.5
 49
0.0
 49
-198.12
 49
0.0
 49
-262.89
 53
-42.5
 43
-82.042
 44
0.0
 45
148.129181386
 46
25.4264910333
 79
6
 49
0.0
 49
-82.55
 49
0.0
 49
-131.572
 49
0.0
 49
-186.69
 98
0
  0
LWPOLYLINE
  5
AD
330
17
100
AcDbEntity
  8
闸门
100
AcDbPolyline
 90
4
 70
1
 10
20150.0
 20
78800.0
 10
20550.0
 20
78800.0
 10
20550.0
 20
84800.0
 10
20150.0
 20
84800.0
  0
HATCH
  5
AE
330
17
100
AcDbEntity
  8
钢筋混凝土-钢筋
 62
7
100
AcDbHatch
 10
0.0
 20
0.0
 30
0.0
210
0.0
220
0.0
230
1.0
  2
ANSI31
 70
0
 71
0
 91
1
 92
3
 72
0
 73
1
 93
4
 10
20150.0
 20
78800.0
 10
20550.0
 20
78800.0
 10
20550.0
 20
84800.0
 10
20150.0
 20
84800.0
 97
0
 75
1
 76
1
 52
0.0
 41
400.0
 77
0
 78
1
 53
45.0
 43
0.0
 44
0.0
 45
-898.02561212
 46
898.02561212
 79
0
 98
0
  0
HATCH
  5
AF
330
17
100
AcDbEntity
  8
钢筋混凝土-混凝土
 62
7
100
AcDbHatch
 10
0.0
 20
0.0
 30
0.0
210
0.0
220
0.0
230
1.0
  2
AR-CONC
 70
0
 71
0
 91
1
 92
3
 72
0
 73
1
 93
4
 10
20150.0
 20
78800.0
 10
20550.0
 20
78800.0
 10
20550.0
 20
84800.0
 10
20150.0
 20
84800.0
 97
0
 75
0
 76
1
 52
0.0
 41
200.0
 77
0
 78
13
 53
50.0
 43
0.0
 44
0.0
 45
182.184668996
 46
-15.9390855389
 79
2
 49
19.05
 49
-209.55
 53
355.0
 43
0.0
 44
0.0
 45
-35.243421425
 46
191.056845239
 79
2
 49
15.24
 49
-167.64058417
 53
100.4514447
 43
15.182007
 44
-1.3282535
 45
146.9412470904
 46
175.1177519122
 79
2
 49
16.1900088
 49
-178.0902446
 53
46.1842
 43
0.0
 44
50.8
 45
271.0790408921
 46
-42.0423279327
 79
2
 49
28.575
 49
-314.325
 53
96.63555761
 43
22.5899
 44
47.2965
 45
237.4041340515
 46
247.4261245977
 79
2
 49
24.28502314
 49
-267.13560816
 53
351.18415117
 43
0.0
 44
50.8
 45
237.404134065
 46
247.4261245855
 79
2
 49
22.85996707
 49
-251.45973192
 53
21.0
 43
25.4
 44
38.1
 45
151.6143912691
 46
-102.2651981871
 79
2
 49
19.05
 49
-209.55
 53
326.0
 43
25.4
 44
38.1
 45
61.8020283476
 46
184.1879661223
 79
2
 49
15.24
 49
-167.64
 53
71.451445
 43
38.0345326
 44
29.5779001
 45
213.4164192787
 46
81.9227688859
 79
2
 49
16.1900088
 49
-178.0899376
 53
37.5
 43
0.0
 44
0.0
 45
3.0886032506
 46
84.5550388732
 79
6
 49
0.0
 49
-165.608
 49
0.0
 49
-170.18
 49
0.0
 49
-168.275
 53
7.5
 43
0.0
 44
0.0
 45
66.8196625103
 46
100.1805748181
 79
6
 49
0.0
 49
-97.028
 49
0.0
 49
-161.798
 49
0.0
 49
-64.135
 53
-32.5
 43
-56.642
 44
0.0
 45
135.5905951669
 46
-5.7287439927
 79
6
 49
0.0
 49
-63.5
 49
0.0
 49
-198.12
 49
0.0
 49
-262.89
 53
-42.5
 43
-82.042
 44
0.0
 45
148.129181386
 46
25.4264910333
 79
6
 49
0.0
 49
-82.55
 49
0.0
 49
-131.572
 49
0.0
 49
-186.69
 98
0
  0
HATCH
  5
B0
330
17
100
AcDbEntity
  8
钢筋混凝土-钢筋
 62
7
100
AcDbHatch
 10
0.0
 20
0.0
 30
0.0
210
0.0
220
0.0
230
1.0
  2
ANSI31
 70
0
 71
0
 91
1
 92
3
 72
0
 73
1
 93
4
 10
16350.0
 20
81650.0
 10
20150.0
 20
81650.0
 10
20150.0
 20
81950.0
 10
16350.0
 20
81950.0
 97
0
 75
1
 76
1
 52
0.0
 41
400.0
 77
0
 78
1
 53
45.0
 43
0.0
 44
0.0
 45
-898.02561212
 46
898.02561212
 79
0
 98
0
  0
HATCH
  5
B1
330
17
100
AcDbEntity
  8
钢筋混凝土-混凝土
 62
7
100
AcDbHatch
 10
0.0
 20
0.0
 30
0.0
210
0.0
220
0.0
230
1.0
  2
AR-CONC
 70
0
 71
0
 91
1
 92
3
 72
0
 73
1
 93
4
 10
16350.0
 20
81650.0
 10
20150.0
 20
81650.0
 10
20150.0
 20
81950.0
 10
16350.0
 20
81950.0
 97
0
 75
0
 76
1
 52
0.0
 41
200.0
 77
0
 78
13
 53
50.0
 43
0.0
 44
0.0
 45
182.184668996
 46
-15.9390855389
 79
2
 49
19.05
 49
-209.55
 53
355.0
 43
0.0
 44
0.0
 45
-35.243421425
 46
191.056845239
 79
2
 49
15.24
 49
-167.64058417
 53
100.4514447
 43
15.182007
 44
-1.3282535
 45
146.9412470904
 46
175.1177519122
 79
2
 49
16.1900088
 49
-178.0902446
 53
46.1842
 43
0.0
 44
50.8
 45
271.0790408921
 46
-42.0423279327
 79
2
 49
28.575
 49
-314.325
 53
96.63555761
 43
22.5899
 44
47.2965
 45
237.4041340515
 46
247.4261245977
 79
2
 49
24.28502314
 49
-267.13560816
 53
351.18415117
 43
0.0
 44
50.8
 45
237.404134065
 46
247.4261245855
 79
2
 49
22.85996707
 49
-251.45973192
 53
21.0
 43
25.4
 44
38.1
 45
151.6143912691
 46
-102.2651981871
 79
2
 49
19.05
 49
-209.55
 53
326.0
 43
25.4
 44
38.1
 45
61.8020283476
 46
184.1879661223
 79
2
 49
15.24
 49
-167.64
 53
71.451445
 43
38.0345326
 44
29.5779001
 45
213.4164192787
 46
81.9227688859
 79
2
 49
16.1900088
 49
-178.0899376
 53
37.5
 43
0.0
 44
0.0
 45
3.0886032506
 46
84.5550388732
 79
6
 49
0.0
 49
-165.608
 49
0.0
 49
-170.18
 49
0.0
 49
-168.275
 53
7.5
 43
0.0
 44
0.0
 45
66.8196625103
 46
100.1805748181
 79
6
 49
0.0
 49
-97.028
 49
0.0
 49
-161.798
 49
0.0
 49
-64.135
 53
-32.5
 43
-56.642
 44
0.0
 45
135.5905951669
 46
-5.7287439927
 79
6
 49
0.0
 49
-63.5
 49
0.0
 49
-198.12
 49
0.0
 49
-262.89
 53
-42.5
 43
-82.042
 44
0.0
 45
148.129181386
 46
25.4264910333
 79
6
 49
0.0
 49
-82.55
 49
0.0
 49
-131.572
 49
0.0
 49
-186.69
 98
0
  0
LWPOLYLINE
  5
B2
330
17
100
AcDbEntity
  8
闸门
100
AcDbPolyline
 90
2
 70
0
 10
16350.0
 20
81650.0
 10
20150.0
 20
81650.0
  0
LWPOLYLINE
  5
B3
330
17
100
AcDbEntity
  8
闸门
100
AcDbPolyline
 90
2
 70
0
 10
16350.0
 20
81950.0
 10
20150.0
 20
81950.0
  0
HATCH
  5
B4
330
17
100
AcDbEntity
  8
钢筋混凝土-钢筋
 62
7
100
AcDbHatch
 10
0.0
 20
0.0
 30
0.0
210
0.0
220
0.0
230
1.0
  2
ANSI31
 70
0
 71
0
 91
1
 92
3
 72
0
 73
1
 93
4
 10
15950.0
 20
85300.0
 10
20550.0
 20
85300.0
 10
20550.0
 20
85500.0
 10
15950.0
 20
85500.0
 97
0
 75
1
 76
1
 52
0.0
 41
400.0
 77
0
 78
1
 53
45.0
 43
0.0
 44
0.0
 45
-898.02561212
 46
898.02561212
 79
0
 98
0
  0
HATCH
  5
B5
330
17
100
AcDbEntity
  8
钢筋混凝土-混凝土
 62
7
100
AcDbHatch
 10
0.0
 20
0.0
 30
0.0
210
0.0
220
0.0
230
1.0
  2
AR-CONC
 70
0
 71
0
 91
1
 92
3
 72
0
 73
1
 93
4
 10
15950.0
 20
85300.0
 10
20550.0
 20
85300.0
 10
20550.0
 20
85500.0
 10
15950.0
 20
85500.0
 97
0
 75
0
 76
1
 52
0.0
 41
200.0
 77
0
 78
13
 53
50.0
 43
0.0
 44
0.0
 45
182.184668996
 46
-15.9390855389
 79
2
 49
19.05
 49
-209.55
 53
355.0
 43
0.0
 44
0.0
 45
-35.243421425
 46
191.056845239
 79
2
 49
15.24
 49
-167.64058417
 53
100.4514447
 43
15.182007
 44
-1.3282535
 45
146.9412470904
 46
175.1177519122
 79
2
 49
16.1900088
 49
-178.0902446
 53
46.1842
 43
0.0
 44
50.8
 45
271.0790408921
 46
-42.0423279327
 79
2
 49
28.575
 49
-314.325
 53
96.63555761
 43
22.5899
 44
47.2965
 45
237.4041340515
 46
247.4261245977
 79
2
 49
24.28502314
 49
-267.13560816
 53
351.18415117
 43
0.0
 44
50.8
 45
237.404134065
 46
247.4261245855
 79
2
 49
22.85996707
 49
-251.45973192
 53
21.0
 43
25.4
 44
38.1
 45
151.6143912691
 46
-102.2651981871
 79
2
 49
19.05
 49
-209.55
 53
326.0
 43
25.4
 44
38.1
 45
61.8020283476
 46
184.1879661223
 79
2
 49
15.24
 49
-167.64
 53
71.451445
 43
38.0345326
 44
29.5779001
 45
213.4164192787
 46
81.9227688859
 79
2
 49
16.1900088
 49
-178.0899376
 53
37.5
 43
0.0
 44
0.0
 45
3.0886032506
 46
84.5550388732
 79
6
 49
0.0
 49
-165.608
 49
0.0
 49
-170.18
 49
0.0
 49
-168.275
 53
7.5
 43
0.0
 44
0.0
 45
66.8196625103
 46
100.1805748181
 79
6
 49
0.0
 49
-97.028
 49
0.0
 49
-161.798
 49
0.0
 49
-64.135
 53
-32.5
 43
-56.642
 44
0.0
 45
135.5905951669
 46
-5.7287439927
 79
6
 49
0.0
 49
-63.5
 49
0.0
 49
-198.12
 49
0.0
 49
-262.89
 53
-42.5
 43
-82.042
 44
0.0
 45
148.129181386
 46
25.4264910333
 79
6
 49
0.0
 49
-82.55
 49
0.0
 49
-131.572
 49
0.0
 49
-186.69
 98
0
  0
LWPOLYLINE
  5
B6
330
17
100
AcDbEntity
  8
闸门
100
AcDbPolyline
 90
2
 70
0
 10
15950.0
 20
85500.0
 10
20550.0
 20
85500.0
  0
LWPOLYLINE
  5
B7
330
17
100
AcDbEntity
  8
闸门
100
AcDbPolyline
 90
2
 70
0
 10
15950.0
 20
85300.0
 10
15950.0
 20
85500.0
  0
LWPOLYLINE
  5
B8
330
17
100
AcDbEntity
  8
闸门
100
AcDbPolyline
 90
2
 70
0
 10
20550.0
 20
85300.0
 10
20550.0
 20
85500.0
  0
LWPOLYLINE
  5
B9
330
17
100
AcDbEntity
  8
闸门
100
AcDbPolyline
 90
2
 70
0
 10
16350.0
 20
85300.0
 10
20150.0
 20
85300.0
  0
HATCH
  5
BA
330
17
100
AcDbEntity
  8
钢筋混凝土-钢筋
 62
7
100
AcDbHatch
 10
0.0
 20
0.0
 30
0.0
210
0.0
220
0.0
230
1.0
  2
ANSI31
 70
0
 71
0
 91
1
 92
3
 72
0
 73
1
 93
4
 10
15950.0
 20
84800.0
 10
16350.0
 20
84800.0
 10
16350.0
 20
85300.0
 10
15950.0
 20
85300.0
 97
0
 75
1
 76
1
 52
0.0
 41
400.0
 77
0
 78
1
 53
45.0
 43
0.0
 44
0.0
 45
-898.02561212
 46
898.02561212
 79
0
 98
0
  0
HATCH
  5
BB
330
17
100
AcDbEntity
  8
钢筋混凝土-混凝土
 62
7
100
AcDbHatch
 10
0.0
 20
0.0
 30
0.0
210
0.0
220
0.0
230
1.0
  2
AR-CONC
 70
0
 71
0
 91
1
 92
3
 72
0
 73
1
 93
4
 10
15950.0
 20
84800.0
 10
16350.0
 20
84800.0
 10
16350.0
 20
85300.0
 10
15950.0
 20
85300.0
 97
0
 75
0
 76
1
 52
0.0
 41
200.0
 77
0
 78
13
 53
50.0
 43
0.0
 44
0.0
 45
182.184668996
 46
-15.9390855389
 79
2
 49
19.05
 49
-209.55
 53
355.0
 43
0.0
 44
0.0
 45
-35.243421425
 46
191.056845239
 79
2
 49
15.24
 49
-167.64058417
 53
100.4514447
 43
15.182007
 44
-1.3282535
 45
146.9412470904
 46
175.1177519122
 79
2
 49
16.1900088
 49
-178.0902446
 53
46.1842
 43
0.0
 44
50.8
 45
271.0790408921
 46
-42.0423279327
 79
2
 49
28.575
 49
-314.325
 53
96.63555761
 43
22.5899
 44
47.2965
 45
237.4041340515
 46
247.4261245977
 79
2
 49
24.28502314
 49
-267.13560816
 53
351.18415117
 43
0.0
 44
50.8
 45
237.404134065
 46
247.4261245855
 79
2
 49
22.85996707
 49
-251.45973192
 53
21.0
 43
25.4
 44
38.1
 45
151.6143912691
 46
-102.2651981871
 79
2
 49
19.05
 49
-209.55
 53
326.0
 43
25.4
 44
38.1
 45
61.8020283476
 46
184.1879661223
 79
2
 49
15.24
 49
-167.64
 53
71.451445
 43
38.0345326
 44
29.5779001
 45
213.4164192787
 46
81.9227688859
 79
2
 49
16.1900088
 49
-178.0899376
 53
37.5
 43
0.0
 44
0.0
 45
3.0886032506
 46
84.5550388732
 79
6
 49
0.0
 49
-165.608
 49
0.0
 49
-170.18
 49
0.0
 49
-168.275
 53
7.5
 43
0.0
 44
0.0
 45
66.8196625103
 46
100.1805748181
 79
6
 49
0.0
 49
-97.028
 49
0.0
 49
-161.798
 49
0.0
 49
-64.135
 53
-32.5
 43
-56.642
 44
0.0
 45
135.5905951669
 46
-5.7287439927
 79
6
 49
0.0
 49
-63.5
 49
0.0
 49
-198.12
 49
0.0
 49
-262.89
 53
-42.5
 43
-82.042
 44
0.0
 45
148.129181386
 46
25.4264910333
 79
6
 49
0.0
 49
-82.55
 49
0.0
 49
-131.572
 49
0.0
 49
-186.69
 98
0
  0
LWPOLYLINE
  5
BC
330
17
100
AcDbEntity
  8
闸门
100
AcDbPolyline
 90
4
 70
0
 10
15950.0
 20
85300.0
 10
15950.0
 20
84800.0
 10
16350.0
 20
84800.0
 10
16350.0
 20
85300.0
  0
HATCH
  5
BD
330
17
100
AcDbEntity
  8
钢筋混凝土-钢筋
 62
7
100
AcDbHatch
 10
0.0
 20
0.0
 30
0.0
210
0.0
220
0.0
230
1.0
  2
ANSI31
 70
0
 71
0
 91
1
 92
3
 72
0
 73
1
 93
4
 10
20150.0
 20
84800.0
 10
20550.0
 20
84800.0
 10
20550.0
 20
85300.0
 10
20150.0
 20
85300.0
 97
0
 75
1
 76
1
 52
0.0
 41
400.0
 77
0
 78
1
 53
45.0
 43
0.0
 44
0.0
 45
-898.02561212
 46
898.02561212
 79
0
 98
0
  0
HATCH
  5
BE
330
17
100
AcDbEntity
  8
钢筋混凝土-混凝土
 62
7
100
AcDbHatch
 10
0.0
 20
0.0
 30
0.0
210
0.0
220
0.0
230
1.0
  2
AR-CONC
 70
0
 71
0
 91
1
 92
3
 72
0
 73
1
 93
4
 10
20150.0
 20
84800.0
 10
20550.0
 20
84800.0
 10
20550.0
 20
85300.0
 10
20150.0
 20
85300.0
 97
0
 75
0
 76
1
 52
0.0
 41
200.0
 77
0
 78
13
 53
50.0
 43
0.0
 44
0.0
 45
182.184668996
 46
-15.9390855389
 79
2
 49
19.05
 49
-209.55
 53
355.0
 43
0.0
 44
0.0
 45
-35.243421425
 46
191.056845239
 79
2
 49
15.24
 49
-167.64058417
 53
100.4514447
 43
15.182007
 44
-1.3282535
 45
146.9412470904
 46
175.1177519122
 79
2
 49
16.1900088
 49
-178.0902446
 53
46.1842
 43
0.0
 44
50.8
 45
271.0790408921
 46
-42.0423279327
 79
2
 49
28.575
 49
-314.325
 53
96.63555761
 43
22.5899
 44
47.2965
 45
237.4041340515
 46
247.4261245977
 79
2
 49
24.28502314
 49
-267.13560816
 53
351.18415117
 43
0.0
 44
50.8
 45
237.404134065
 46
247.4261245855
 79
2
 49
22.85996707
 49
-251.45973192
 53
21.0
 43
25.4
 44
38.1
 45
151.6143912691
 46
-102.2651981871
 79
2
 49
19.05
 49
-209.55
 53
326.0
 43
25.4
 44
38.1
 45
61.8020283476
 46
184.1879661223
 79
2
 49
15.24
 49
-167.64
 53
71.451445
 43
38.0345326
 44
29.5779001
 45
213.4164192787
 46
81.9227688859
 79
2
 49
16.1900088
 49
-178.0899376
 53
37.5
 43
0.0
 44
0.0
 45
3.0886032506
 46
84.5550388732
 79
6
 49
0.0
 49
-165.608
 49
0.0
 49
-170.18
 49
0.0
 49
-168.275
 53
7.5
 43
0.0
 44
0.0
 45
66.8196625103
 46
100.1805748181
 79
6
 49
0.0
 49
-97.028
 49
0.0
 49
-161.798
 49
0.0
 49
-64.135
 53
-32.5
 43
-56.642
 44
0.0
 45
135.5905951669
 46
-5.7287439927
 79
6
 49
0.0
 49
-63.5
 49
0.0
 49
-198.12
 49
0.0
 49
-262.89
 53
-42.5
 43
-82.042
 44
0.0
 45
148.129181386
 46
25.4264910333
 79
6
 49
0.0
 49
-82.55
 49
0.0
 49
-131.572
 49
0.0
 49
-186.69
 98
0
  0
LWPOLYLINE
  5
BF
330
17
100
AcDbEntity
  8
闸门
100
AcDbPolyline
 90
4
 70
0
 10
20550.0
 20
85300.0
 10
20550.0
 20
84800.0
 10
20150.0
 20
84800.0
 10
20150.0
 20
85300.0
  0
LWPOLYLINE
  5
C0
330
17
100
AcDbEntity
  8
闸门
100
AcDbPolyline
 90
4
 70
1
 10
22475.0
 20
78160.0
 10
27075.0
 20
78160.0
 10
27075.0
 20
78300.0
 10
22475.0
 20
78300.0
  0
LWPOLYLINE
  5
C1
330
17
100
AcDbEntity
  8
闸门
100
AcDbPolyline
 90
4
 70
1
 10
22475.0
 20
78300.0
 10
27075.0
 20
78300.0
 10
27075.0
 20
78800.0
 10
22475.0
 20
78800.0
  0
LWPOLYLINE
  5
C2
330
17
100
AcDbEntity
  8
文字
100
AcDbPolyline
 90
4
 70
1
 10
24008.213333333333
 20
78300.08
 10
24008.45333333333
 20
78300.08
 10
24008.45333333333
 20
78799.92
 10
24008.213333333333
 20
78799.92
  0
LWPOLYLINE
  5
C3
330
17
100
AcDbEntity
  8
文字
100
AcDbPolyline
 90
4
 70
1
 10
25541.54666666667
 20
78300.08
 10
25541.786666666667
 20
78300.08
 10
25541.786666666667
 20
78799.92
 10
25541.54666666667
 20
78799.92
  0
LWPOLYLINE
  5
C4
330
17
100
AcDbEntity
  8
闸门
100
AcDbPolyline
 90
4
 70
1
 10
22475.0
 20
78800.0
 10
27075.0
 20
78800.0
 10
27075.0
 20
78900.0
 10
22475.0
 20
78900.0
  0
LWPOLYLINE
  5
C5
330
17
100
AcDbEntity
  8
闸门
100
AcDbPolyline
 90
4
 70
1
 10
15950.0
 20
85500.0
 10
20550.0
 20
85500.0
 10
20550.0
 20
87500.0
 10
15950.0
 20
87500.0
  0
LWPOLYLINE
  5
C6
330
17
100
AcDbEntity
  8
闸门
100
AcDbPolyline
 90
3
 70
1
 10
15950.0
 20
87500.0
 10
18250.0
 20
89000.0
 10
20550.0
 20
87500.0
  0
LWPOLYLINE
  5
C7
330
17
100
AcDbEntity
  8
尺寸标注
 62
7
100
AcDbPolyline
 90
2
 70
0
 10
0.0
 20
78800.0
 10
80900.0
 20
78800.0
  0
LWPOLYLINE
  5
C8
330
17
100
AcDbEntity
  8
尺寸标注
 62
7
100
AcDbPolyline
 90
2
 70
0
 10
0.0
 20
73100.0
 10
0.0
 20
78800.0
  0
LWPOLYLINE
  5
C9
330
17
100
AcDbEntity
  8
尺寸标注
 62
7
100
AcDbPolyline
 90
2
 70
0
 10
80900.0
 20
72600.0
 10
80900.0
 20
78800.0
  0
LWPOLYLINE
  5
CA
330
17
100
AcDbEntity
  8
尺寸标注
100
AcDbPolyline
 90
2
 70
0
 10
15000.0
 20
73100.0
 10
15000.0
 20
78800.0
  0
LWPOLYLINE
  5
CB
330
17
100
AcDbEntity
  8
尺寸标注
100
AcDbPolyline
 90
2
 70
0
 10
29000.0
 20
73100.0
 10
29000.0
 20
78800.0
  0
LWPOLYLINE
  5
CC
330
17
100
AcDbEntity
  8
尺寸标注
100
AcDbPolyline
 90
2
 70
0
 10
44500.0
 20
73600.0
 10
44500.0
 20
78800.0
  0
LWPOLYLINE
  5
CD
330
17
100
AcDbEntity
  8
尺寸标注
100
AcDbPolyline
 90
2
 70
0
 10
64500.0
 20
72600.0
 10
64500.0
 20
78800.0
  0
LWPOLYLINE
  5
CE
330
17
100
AcDbEntity
  8
尺寸标注
 62
7
100
AcDbPolyline
 90
201
 70
0
 10
15000.0
 20
73100.0
 10
14979.208
 20
73101.5202
 10
14956.864
 20
73103.0816
 10
14933.016
 20
73104.68539999999
 10
14907.712000000001
 20
73106.3328
 10
14881.0
 20
73108.025
 10
14852.928
 20
73109.7632
 10
14823.544
 20
73111.5486
 10
14792.895999999999
 20
73113.3824
 10
14761.032000000001
 20
73115.2658
 10
14728.0
 20
73117.2
 10
14693.848
 20
73119.1862
 10
14658.624
 20
73121.2256
 10
14622.375999999998
 20
73123.31940000001
 10
14585.152
 20
73125.4688
 10
14547.0
 20
73127.675
 10
14507.968
 20
73129.9392
 10
14468.104
 20
73132.2626
 10
14427.456
 20
73134.6464
 10
14386.072
 20
73137.0918
 10
14344.0
 20
73139.6
 10
14301.288
 20
73142.1722
 10
14257.983999999999
 20
73144.8096
 10
14214.135999999999
 20
73147.5134
 10
14169.792000000001
 20
73150.28480000001
 10
14125.0
 20
73153.125
 10
14079.808
 20
73156.0352
 10
14034.264
 20
73159.0166
 10
13988.416
 20
73162.0704
 10
13942.312
 20
73165.19780000001
 10
13896.0
 20
73168.4
 10
13849.528
 20
73171.6782
 10
13802.944
 20
73175.0336
 10
13756.295999999998
 20
73178.4674
 10
13709.632000000001
 20
73181.98079999999
 10
13663.0
 20
73185.575
 10
13616.448
 20
73189.2512
 10
13570.024
 20
73193.01060000001
 10
13523.776
 20
73196.85440000001
 10
13477.752
 20
73200.7838
 10
13432.0
 20
73204.8
 10
13386.568000000001
 20
73208.90419999999
 10
13341.503999999999
 20
73213.0976
 10
13296.856
 20
73217.3814
 10
13252.672
 20
73221.7568
 10
13209.0
 20
73226.225
 10
13165.888
 20
73230.7872
 10
13123.383999999998
 20
73235.44459999999
 10
13081.536
 20
73240.19840000001
 10
13040.392
 20
73245.04980000001
 10
13000.0
 20
73250.0
 10
12959.902
 20
73254.9518
 10
12919.616
 20
73259.8144
 10
12879.154
 20
73264.5986
 10
12838.528
 20
73269.3152
 10
12797.75
 20
73273.975
 10
12756.832
 20
73278.5888
 10
12715.786
 20
73283.1674
 10
12674.624
 20
73287.7216
 10
12633.358
 20
73292.2622
 10
12592.0
 20
73296.8
 10
12550.562
 20
73301.3458
 10
12509.056
 20
73305.91040000001
 10
12467.494
 20
73310.5046
 10
12425.887999999999
 20
73315.13919999999
 10
12384.25
 20
73319.825
 10
12342.591999999999
 20
73324.5728
 10
12300.926
 20
73329.3934
 10
12259.264000000001
 20
73334.2976
 10
12217.618
 20
73339.2962
 10
12176.0
 20
73344.4
 10
12134.422
 20
73349.6198
 10
12092.896
 20
73354.9664
 10
12051.434000000001
 20
73360.4506
 10
12010.047999999999
 20
73366.0832
 10
11968.75
 20
73371.875
 10
11927.552
 20
73377.83679999999
 10
11886.466
 20
73383.9794
 10
11845.504
 20
73390.31360000001
 10
11804.678
 20
73396.8502
 10
11764.0
 20
73403.6
 10
11723.482
 20
73410.5738
 10
11683.136
 20
73417.7824
 10
11642.974
 20
73425.2366
 10
11603.008
 20
73432.9472
 10
11563.25
 20
73440.925
 10
11523.712
 20
73449.1808
 10
11484.406
 20
73457.7254
 10
11445.344000000001
 20
73466.5696
 10
11406.538
 20
73475.7242
 10
11368.0
 20
73485.2
 10
11329.742
 20
73495.00779999999
 10
11291.776
 20
73505.1584
 10
11254.114
 20
73515.6626
 10
11216.768
 20
73526.5312
 10
11179.75
 20
73537.775
 10
11143.072
 20
73549.4048
 10
11106.746000000001
 20
73561.4314
 10
11070.784
 20
73573.8656
 10
11035.198
 20
73586.7182
 10
11000.0
 20
73600.0
 10
10965.295999999998
 20
73613.1302
 10
10931.168000000001
 20
73625.5616
 10
10897.592
 20
73637.3554
 10
10864.544
 20
73648.5728
 10
10832.0
 20
73659.275
 10
10799.936
 20
73669.52320000001
 10
10768.328000000001
 20
73679.37860000001
 10
10737.152
 20
73688.90239999999
 10
10706.384
 20
73698.15580000001
 10
10676.0
 20
73707.2
 10
10645.975999999999
 20
73716.0962
 10
10616.288
 20
73724.9056
 10
10586.912
 20
73733.6894
 10
10557.823999999999
 20
73742.50880000001
 10
10529.0
 20
73751.425
 10
10500.416
 20
73760.4992
 10
10472.048
 20
73769.79259999999
 10
10443.872000000001
 20
73779.3664
 10
10415.864
 20
73789.28180000001
 10
10388.0
 20
73799.6
 10
10360.256
 20
73810.3822
 10
10332.608
 20
73821.6896
 10
10305.032000000001
 20
73833.5834
 10
10277.503999999999
 20
73846.12479999999
 10
10250.0
 20
73859.375
 10
10222.496
 20
73873.3952
 10
10194.968
 20
73888.2466
 10
10167.392
 20
73903.9904
 10
10139.743999999999
 20
73920.6878
 10
10112.0
 20
73938.4
 10
10084.135999999999
 20
73957.1882
 10
10056.128
 20
73977.11360000001
 10
10027.952000000001
 20
73998.2374
 10
9999.583999999999
 20
74020.6208
 10
9971.0
 20
74044.325
 10
9942.176
 20
74069.4112
 10
9913.088000000002
 20
74095.9406
 10
9883.712000000001
 20
74123.97439999999
 10
9854.024
 20
74153.5738
 10
9824.0
 20
74184.8
 10
9793.616
 20
74217.7142
 10
9762.848
 20
74252.37759999999
 10
9731.672
 20
74288.8514
 10
9700.063999999998
 20
74327.1968
 10
9668.0
 20
74367.475
 10
9635.455999999998
 20
74409.7472
 10
9602.408000000001
 20
74454.0746
 10
9568.832
 20
74500.5184
 10
9534.704
 20
74549.13979999999
 10
9500.0
 20
74600.0
 10
9464.41
 20
74654.0904
 10
9427.68
 20
74712.2432
 10
9389.87
 20
74774.28080000001
 10
9351.039999999999
 20
74840.0256
 10
9311.25
 20
74909.3
 10
9270.56
 20
74981.92640000001
 10
9229.03
 20
75057.72720000001
 10
9186.720000000001
 20
75136.5248
 10
9143.69
 20
75218.1416
 10
9100.0
 20
75302.4
 10
9055.71
 20
75389.12240000001
 10
9010.880000000001
 20
75478.1312
 10
8965.57
 20
75569.2488
 10
8919.84
 20
75662.2976
 10
8873.75
 20
75757.1
 10
8827.359999999999
 20
75853.4784
 10
8780.73
 20
75951.2552
 10
8733.92
 20
76050.2528
 10
8686.99
 20
76150.2936
 10
8640.0
 20
76251.2
 10
8593.01
 20
76352.7944
 10
8546.08
 20
76454.8992
 10
8499.27
 20
76557.33679999999
 10
8452.64
 20
76659.92959999999
 10
8406.25
 20
76762.5
 10
8360.16
 20
76864.8704
 10
8314.43
 20
76966.86319999999
 10
8269.12
 20
77068.3008
 10
8224.289999999999
 20
77169.0056
 10
8180.0
 20
77268.8
 10
8136.3099999999995
 20
77367.50640000001
 10
8093.280000000001
 20
77464.94720000001
 10
8050.97
 20
77560.9448
 10
8009.44
 20
77655.3216
 10
7968.75
 20
77747.9
 10
7928.959999999999
 20
77838.5024
 10
7890.13
 20
77926.9512
 10
7852.320000000001
 20
78013.0688
 10
7815.59
 20
78096.67760000001
 10
7780.0
 20
78177.6
 10
7745.610000000001
 20
78255.6584
 10
7712.4800000000005
 20
78330.6752
 10
7680.67
 20
78402.4728
 10
7650.24
 20
78470.8736
 10
7621.25
 20
78535.7
 10
7593.759999999999
 20
78596.7744
 10
7567.83
 20
78653.9192
 10
7543.52
 20
78706.9568
 10
7520.889999999999
 20
78755.7096
 10
7500.0
 20
78800.0
  0
LWPOLYLINE
  5
CF
330
17
100
AcDbEntity
  8
尺寸标注
 62
7
100
AcDbPolyline
 90
201
 70
0
 10
44500.0
 20
73600.0
 10
44520.792
 20
73601.5202
 10
44543.136
 20
73603.0816
 10
44566.984
 20
73604.68539999999
 10
44592.288
 20
73606.3328
 10
44619.0
 20
73608.025
 10
44647.072
 20
73609.7632
 10
44676.456
 20
73611.5486
 10
44707.104
 20
73613.3824
 10
44738.968
 20
73615.2658
 10
44772.0
 20
73617.2
 10
44806.152
 20
73619.1862
 10
44841.376
 20
73621.2256
 10
44877.623999999996
 20
73623.31940000001
 10
44914.848000000005
 20
73625.4688
 10
44953.0
 20
73627.675
 10
44992.03200000001
 20
73629.9392
 10
45031.896
 20
73632.2626
 10
45072.543999999994
 20
73634.6464
 10
45113.928
 20
73637.0918
 10
45156.0
 20
73639.6
 10
45198.712
 20
73642.1722
 10
45242.015999999996
 20
73644.8096
 10
45285.863999999994
 20
73647.5134
 10
45330.208000000006
 20
73650.28480000001
 10
45375.0
 20
73653.125
 10
45420.192
 20
73656.0352
 10
45465.736
 20
73659.0166
 10
45511.583999999995
 20
73662.0704
 10
45557.688
 20
73665.19780000001
 10
45604.0
 20
73668.4
 10
45650.472
 20
73671.6782
 10
45697.056
 20
73675.0336
 10
45743.704
 20
73678.4674
 10
45790.368
 20
73681.98079999999
 10
45837.0
 20
73685.575
 10
45883.552
 20
73689.2512
 10
45929.975999999995
 20
73693.01060000001
 10
45976.223999999995
 20
73696.85440000001
 10
46022.248
 20
73700.7838
 10
46068.0
 20
73704.8
 10
46113.432
 20
73708.90419999999
 10
46158.496
 20
73713.0976
 10
46203.144
 20
73717.3814
 10
46247.328
 20
73721.7568
 10
46291.0
 20
73726.225
 10
46334.112
 20
73730.7872
 10
46376.615999999995
 20
73735.44459999999
 10
46418.464
 20
73740.19840000001
 10
46459.608
 20
73745.04980000001
 10
46500.0
 20
73750.0
 10
46540.0
 20
73754.9518
 10
46580.0
 20
73759.8144
 10
46620.0
 20
73764.5986
 10
46660.0
 20
73769.3152
 10
46700.0
 20
73773.975
 10
46740.0
 20
73778.5888
 10
46780.0
 20
73783.1674
 10
46820.0
 20
73787.7216
 10
46860.0
 20
73792.2622
 10
46900.0
 20
73796.8
 10
46940.0
 20
73801.3458
 10
46980.0
 20
73805.91040000001
 10
47020.0
 20
73810.5046
 10
47060.0
 20
73815.13919999999
 10
47100.0
 20
73819.825
 10
47140.0
 20
73824.5728
 10
47180.0
 20
73829.3934
 10
47220.0
 20
73834.2976
 10
47260.0
 20
73839.2962
 10
47300.0
 20
73844.4
 10
47340.0
 20
73849.6198
 10
47380.0
 20
73854.9664
 10
47420.0
 20
73860.4506
 10
47460.0
 20
73866.0832
 10
47500.0
 20
73871.875
 10
47540.0
 20
73877.83679999999
 10
47580.0
 20
73883.9794
 10
47620.0
 20
73890.31360000001
 10
47660.0
 20
73896.8502
 10
47700.0
 20
73903.6
 10
47740.0
 20
73910.5738
 10
47780.0
 20
73917.7824
 10
47820.0
 20
73925.2366
 10
47860.0
 20
73932.9472
 10
47900.0
 20
73940.925
 10
47940.0
 20
73949.1808
 10
47980.0
 20
73957.7254
 10
48020.0
 20
73966.5696
 10
48060.0
 20
73975.7242
 10
48100.0
 20
73985.2
 10
48140.0
 20
73995.00779999999
 10
48180.0
 20
74005.1584
 10
48220.0
 20
74015.6626
 10
48260.0
 20
74026.5312
 10
48300.0
 20
74037.775
 10
48340.0
 20
74049.4048
 10
48380.0
 20
74061.4314
 10
48420.0
 20
74073.8656
 10
48460.0
 20
74086.7182
 10
48500.0
 20
74100.0
 10
48539.608
 20
74113.2282
 10
48578.464
 20
74125.9456
 10
48616.616
 20
74138.20139999999
 10
48654.112
 20
74150.0448
 10
48691.0
 20
74161.525
 10
48727.328
 20
74172.6912
 10
48763.144
 20
74183.5926
 10
48798.496
 20
74194.2784
 10
48833.432
 20
74204.7978
 10
48868.0
 20
74215.2
 10
48902.248
 20
74225.5342
 10
48936.224
 20
74235.84959999999
 10
48969.976
 20
74246.1954
 10
49003.551999999996
 20
74256.62079999999
 10
49037.0
 20
74267.175
 10
49070.367999999995
 20
74277.9072
 10
49103.704
 20
74288.86660000001
 10
49137.056000000004
 20
74300.1024
 10
49170.472
 20
74311.6638
 10
49204.0
 20
74323.6
 10
49237.688
 20
74335.9602
 10
49271.584
 20
74348.79359999999
 10
49305.736000000004
 20
74362.14940000001
 10
49340.191999999995
 20
74376.0768
 10
49375.0
 20
74390.625
 10
49410.208
 20
74405.8432
 10
49445.864
 20
74421.7806
 10
49482.016
 20
74438.4864
 10
49518.712
 20
74456.0098
 10
49556.0
 20
74474.4
 10
49593.928
 20
74493.7062
 10
49632.544
 20
74513.9776
 10
49671.896
 20
74535.2634
 10
49712.032
 20
74557.6128
 10
49753.0
 20
74581.075
 10
49794.848
 20
74605.69919999999
 10
49837.624
 20
74631.5346
 10
49881.376000000004
 20
74658.6304
 10
49926.152
 20
74687.0358
 10
49972.0
 20
74716.8
 10
50018.968
 20
74747.9722
 10
50067.104
 20
74780.6016
 10
50116.456
 20
74814.7374
 10
50167.072
 20
74850.4288
 10
50219.0
 20
74887.725
 10
50272.288
 20
74926.6752
 10
50326.984000000004
 20
74967.3286
 10
50383.136
 20
75009.7344
 10
50440.792
 20
75053.9418
 10
50500.0
 20
75100.0
 10
50561.576
 20
75148.79440000001
 10
50626.208
 20
75201.07519999999
 10
50693.752
 20
75256.6888
 10
50764.064
 20
75315.4816
 10
50837.0
 20
75377.3
 10
50912.416
 20
75441.99040000001
 10
50990.168
 20
75509.3992
 10
51070.112
 20
75579.3728
 10
51152.104
 20
75651.7576
 10
51236.0
 20
75726.4
 10
51321.655999999995
 20
75803.1464
 10
51408.928
 20
75881.8432
 10
51497.672
 20
75962.3368
 10
51587.744
 20
76044.4736
 10
51679.0
 20
76128.1
 10
51771.296
 20
76213.0624
 10
51864.488000000005
 20
76299.20719999999
 10
51958.432
 20
76386.3808
 10
52052.984
 20
76474.4296
 10
52148.0
 20
76563.2
 10
52243.335999999996
 20
76652.53839999999
 10
52338.848
 20
76742.2912
 10
52434.392
 20
76832.3048
 10
52529.824
 20
76922.4256
 10
52625.0
 20
77012.5
 10
52719.776
 20
77102.3744
 10
52814.008
 20
77191.8952
 10
52907.552
 20
77280.9088
 10
53000.263999999996
 20
77369.2616
 10
53092.0
 20
77456.8
 10
53182.616
 20
77543.3704
 10
53271.968
 20
77628.8192
 10
53359.912000000004
 20
77712.99279999999
 10
53446.304
 20
77795.7376
 10
53531.0
 20
77876.9
 10
53613.856
 20
77956.3264
 10
53694.728
 20
78033.8632
 10
53773.472
 20
78109.35680000001
 10
53849.943999999996
 20
78182.6536
 10
53924.0
 20
78253.6
 10
53995.496
 20
78322.0424
 10
54064.288
 20
78387.8272
 10
54130.232
 20
78450.8008
 10
54193.184
 20
78510.80960000001
 10
54253.0
 20
78567.7
 10
54309.536
 20
78621.31839999999
 10
54362.648
 20
78671.51120000001
 10
54412.192
 20
78718.1248
 10
54458.024
 20
78761.0056
 10
54500.0
 20
78800.0
  0
LWPOLYLINE
  5
D0
330
17
100
AcDbEntity
  8
尺寸标注
100
AcDbPolyline
 90
2
 70
0
 10
0.0
 20
75000.0
 10
9260.576991736883
 20
75000.0
  0
LWPOLYLINE
  5
D1
330
17
100
AcDbEntity
  8
尺寸标注
100
AcDbPolyline
 90
2
 70
0
 10
50370.32189833633
 20
75000.0
 10
80900.0
 20
75000.0
  0
LWPOLYLINE
  5
D2
330
17
100
AcDbEntity
  8
尺寸标注
100
AcDbPolyline
 90
2
 70
0
 10
0.0
 20
76600.0
 10
8479.8498762048
 20
76600.0
  0
LWPOLYLINE
  5
D3
330
17
100
AcDbEntity
  8
尺寸标注
100
AcDbPolyline
 90
2
 70
0
 10
52187.30401810794
 20
76600.0
 10
80900.0
 20
76600.0
  0
LWPOLYLINE
  5
D4
330
17
100
AcDbEntity
  8
尺寸标注
100
AcDbPolyline
 90
2
 70
0
 10
82100.0
 20
73100.0
 10
85100.0
 20
73100.0
  0
LWPOLYLINE
  5
D5
330
17
100
AcDbEntity
  8
尺寸标注
100
AcDbPolyline
 90
2
 70
0
 10
82100.0
 20
72950.0
 10
82100.0
 20
73250.0
  0
TEXT
  5
D6
330
17
100
AcDbEntity
  8
文字
100
AcDbText
 10
82200.0
 20
73200.0
 30
0.0
 40
350.0
  1
▽73100 铺盖顶（底板顶）
  7
CN
 11
82200.0
 21
73200.0
 31
0.0
100
AcDbText
 73
1
  0
LWPOLYLINE
  5
D7
330
17
100
AcDbEntity
  8
尺寸标注
100
AcDbPolyline
 90
2
 70
0
 10
82100.0
 20
75000.0
 10
85100.0
 20
75000.0
  0
LWPOLYLINE
  5
D8
330
17
100
AcDbEntity
  8
尺寸标注
100
AcDbPolyline
 90
2
 70
0
 10
82100.0
 20
74850.0
 10
82100.0
 20
75150.0
  0
TEXT
  5
D9
330
17
100
AcDbEntity
  8
文字
100
AcDbText
 10
82200.0
 20
75100.0
 30
0.0
 40
350.0
  1
▽75000 滩地
  7
CN
 11
82200.0
 21
75100.0
 31
0.0
100
AcDbText
 73
1
  0
LWPOLYLINE
  5
DA
330
17
100
AcDbEntity
  8
尺寸标注
100
AcDbPolyline
 90
2
 70
0
 10
82100.0
 20
76600.0
 10
85100.0
 20
76600.0
  0
LWPOLYLINE
  5
DB
330
17
100
AcDbEntity
  8
尺寸标注
100
AcDbPolyline
 90
2
 70
0
 10
82100.0
 20
76450.0
 10
82100.0
 20
76750.0
  0
TEXT
  5
DC
330
17
100
AcDbEntity
  8
文字
100
AcDbText
 10
82200.0
 20
76700.0
 30
0.0
 40
350.0
  1
▽76600 正常蓄水位
  7
CN
 11
82200.0
 21
76700.0
 31
0.0
100
AcDbText
 73
1
  0
LWPOLYLINE
  5
DD
330
17
100
AcDbEntity
  8
尺寸标注
100
AcDbPolyline
 90
2
 70
0
 10
82100.0
 20
78800.0
 10
85100.0
 20
78800.0
  0
LWPOLYLINE
  5
DE
330
17
100
AcDbEntity
  8
尺寸标注
100
AcDbPolyline
 90
2
 70
0
 10
82100.0
 20
78650.0
 10
82100.0
 20
78950.0
  0
TEXT
  5
DF
330
17
100
AcDbEntity
  8
文字
100
AcDbText
 10
82200.0
 20
78900.0
 30
0.0
 40
350.0
  1
▽78800 闸顶
  7
CN
 11
82200.0
 21
78900.0
 31
0.0
100
AcDbText
 73
1
  0
LWPOLYLINE
  5
E0
330
17
100
AcDbEntity
  8
尺寸标注
100
AcDbPolyline
 90
2
 70
0
 10
82100.0
 20
84800.0
 10
85100.0
 20
84800.0
  0
LWPOLYLINE
  5
E1
330
17
100
AcDbEntity
  8
尺寸标注
100
AcDbPolyline
 90
2
 70
0
 10
82100.0
 20
84650.0
 10
82100.0
 20
84950.0
  0
TEXT
  5
E2
330
17
100
AcDbEntity
  8
文字
100
AcDbText
 10
82200.0
 20
84900.0
 30
0.0
 40
350.0
  1
▽84800 排架
  7
CN
 11
82200.0
 21
84900.0
 31
0.0
100
AcDbText
 73
1
  0
LWPOLYLINE
  5
E3
330
17
100
AcDbEntity
  8
尺寸标注
100
AcDbPolyline
 90
2
 70
0
 10
82100.0
 20
85500.0
 10
85100.0
 20
85500.0
  0
LWPOLYLINE
  5
E4
330
17
100
AcDbEntity
  8
尺寸标注
100
AcDbPolyline
 90
2
 70
0
 10
82100.0
 20
85350.0
 10
82100.0
 20
85650.0
  0
TEXT
  5
E5
330
17
100
AcDbEntity
  8
文字
100
AcDbText
 10
82200.0
 20
85600.0
 30
0.0
 40
350.0
  1
▽85500 工作桥
  7
CN
 11
82200.0
 21
85600.0
 31
0.0
100
AcDbText
 73
1
  0
LWPOLYLINE
  5
E6
330
17
100
AcDbEntity
  8
图幅
100
AcDbPolyline
 90
2
 70
0
 10
-21322.499999999996
 20
27675.0
 10
104827.5
 20
27675.0
  0
LWPOLYLINE
  5
E7
330
17
100
AcDbEntity
  8
图幅
100
AcDbPolyline
 90
2
 70
0
 10
104827.5
 20
27675.0
 10
104827.5
 20
116775.0
  0
LWPOLYLINE
  5
E8
330
17
100
AcDbEntity
  8
图幅
100
AcDbPolyline
 90
2
 70
0
 10
104827.5
 20
116775.0
 10
-21322.499999999996
 20
116775.0
  0
LWPOLYLINE
  5
E9
330
17
100
AcDbEntity
  8
图幅
100
AcDbPolyline
 90
2
 70
0
 10
-21322.499999999996
 20
116775.0
 10
-21322.499999999996
 20
27675.0
  0
LWPOLYLINE
  5
EA
330
17
100
AcDbEntity
  8
图框
100
AcDbPolyline
 90
2
 70
0
 10
-17572.499999999996
 20
28425.0
 10
104077.5
 20
28425.0
  0
LWPOLYLINE
  5
EB
330
17
100
AcDbEntity
  8
图框
100
AcDbPolyline
 90
2
 70
0
 10
104077.5
 20
28425.0
 10
104077.5
 20
116025.0
  0
LWPOLYLINE
  5
EC
330
17
100
AcDbEntity
  8
图框
100
AcDbPolyline
 90
2
 70
0
 10
104077.5
 20
116025.0
 10
-17572.499999999996
 20
116025.0
  0
LWPOLYLINE
  5
ED
330
17
100
AcDbEntity
  8
图框
100
AcDbPolyline
 90
2
 70
0
 10
-17572.499999999996
 20
116025.0
 10
-17572.499999999996
 20
28425.0
  0
LWPOLYLINE
  5
EE
330
17
100
AcDbEntity
  8
标题栏
100
AcDbPolyline
 90
2
 70
0
 10
77077.5
 20
28425.0
 10
104077.5
 20
28425.0
  0
LWPOLYLINE
  5
EF
330
17
100
AcDbEntity
  8
标题栏
100
AcDbPolyline
 90
2
 70
0
 10
104077.5
 20
28425.0
 10
104077.5
 20
36825.0
  0
LWPOLYLINE
  5
F0
330
17
100
AcDbEntity
  8
标题栏
100
AcDbPolyline
 90
2
 70
0
 10
104077.5
 20
36825.0
 10
77077.5
 20
36825.0
  0
LWPOLYLINE
  5
F1
330
17
100
AcDbEntity
  8
标题栏
100
AcDbPolyline
 90
2
 70
0
 10
77077.5
 20
36825.0
 10
77077.5
 20
28425.0
  0
LWPOLYLINE
  5
F2
330
17
100
AcDbEntity
  8
标题栏
100
AcDbPolyline
 90
2
 70
0
 10
80506.5
 20
28425.0
 10
80506.5
 20
32793.0
  0
LWPOLYLINE
  5
F3
330
17
100
AcDbEntity
  8
标题栏
100
AcDbPolyline
 90
2
 70
0
 10
87580.5
 20
28425.0
 10
87580.5
 20
32793.0
  0
LWPOLYLINE
  5
F4
330
17
100
AcDbEntity
  8
标题栏
100
AcDbPolyline
 90
2
 70
0
 10
92575.49999999999
 20
28425.0
 10
92575.49999999999
 20
32793.0
  0
LWPOLYLINE
  5
F5
330
17
100
AcDbEntity
  8
标题栏
100
AcDbPolyline
 90
2
 70
0
 10
97840.5
 20
32793.0
 10
97840.5
 20
36825.0
  0
LWPOLYLINE
  5
F6
330
17
100
AcDbEntity
  8
标题栏
100
AcDbPolyline
 90
2
 70
0
 10
101647.5
 20
32793.0
 10
101647.5
 20
36825.0
  0
LWPOLYLINE
  5
F7
330
17
100
AcDbEntity
  8
标题栏
100
AcDbPolyline
 90
2
 70
0
 10
77077.5
 20
30609.0
 10
92575.49999999999
 20
30609.0
  0
LWPOLYLINE
  5
F8
330
17
100
AcDbEntity
  8
标题栏
100
AcDbPolyline
 90
2
 70
0
 10
77077.5
 20
32793.0
 10
104077.5
 20
32793.0
  0
LWPOLYLINE
  5
F9
330
17
100
AcDbEntity
  8
标题栏
100
AcDbPolyline
 90
2
 70
0
 10
97840.5
 20
34830.0
 10
104077.5
 20
34830.0
  0
TEXT
  5
FA
330
17
100
AcDbEntity
  8
标题栏
100
AcDbText
 10
78791.99999999999
 20
31701.0
 30
0.0
 40
600.0
  1
制 图
  7
CN
 72
1
 11
78791.99999999999
 21
31701.0
 31
0.0
100
AcDbText
 73
2
  0
TEXT
  5
FB
330
17
100
AcDbEntity
  8
标题栏
100
AcDbText
 10
78791.99999999999
 20
29517.0
 30
0.0
 40
600.0
  1
审 核
  7
CN
 72
1
 11
78791.99999999999
 21
29517.0
 31
0.0
100
AcDbText
 73
2
  0
TEXT
  5
FC
330
17
100
AcDbEntity
  8
标题栏
100
AcDbText
 10
99744.0
 20
35827.5
 30
0.0
 40
600.0
  1
比 例
  7
CN
 72
1
 11
99744.0
 21
35827.5
 31
0.0
100
AcDbText
 73
2
  0
TEXT
  5
FD
330
17
100
AcDbEntity
  8
标题栏
100
AcDbText
 10
99744.0
 20
33811.5
 30
0.0
 40
600.0
  1
图 号
  7
CN
 72
1
 11
99744.0
 21
33811.5
 31
0.0
100
AcDbText
 73
2
  0
TEXT
  5
FE
330
17
100
AcDbEntity
  8
标题栏
100
AcDbText
 10
-16372.499999999996
 20
35250.0
 30
0.0
 40
450.0
  1
说明：
  7
CN
 11
-16372.499999999996
 21
35250.0
 31
0.0
100
AcDbText
 73
2
  0
TEXT
  5
FF
330
17
100
AcDbEntity
  8
标题栏
100
AcDbText
 10
-16372.499999999996
 20
34500.0
 30
0.0
 40
450.0
  1
1、图中高程为1985国家高程；高程以m计，其余尺寸均以mm计；
  7
CN
 11
-16372.499999999996
 21
34500.0
 31
0.0
100
AcDbText
 73
2
  0
TEXT
  5
100
330
17
100
AcDbEntity
  8
标题栏
100
AcDbText
 10
-16372.499999999996
 20
33750.0
 30
0.0
 40
450.0
  1
2、排水管采用A110PVC排水管，间距为2m，呈梅花状布置；三层反滤自下而上依次为粗砂垫层厚0.2m；碎石垫层厚0.2m；碎石头垫层厚0.3m；排水管外包两层反滤土工布，土工布规格为400g/㎡；
  7
CN
 11
-16372.499999999996
 21
33750.0
 31
0.0
100
AcDbText
 73
2
  0
TEXT
  5
101
330
17
100
AcDbEntity
  8
标题栏
100
AcDbText
 10
-16372.499999999996
 20
33000.0
 30
0.0
 40
450.0
  1
3、上游铺盖、混凝土护坡、闸室、消力池底板、下游护底、左右岸两侧挡墙混凝土强度等级为C30F150W6；工作桥、检修板强度等级为C30F150，交通桥及铺装层混凝土强度等级为C40，垫层混凝土强度等级为C15；
  7
CN
 11
-16372.499999999996
 21
33000.0
 31
0.0
100
AcDbText
 73
2
  0
TEXT
  5
102
330
17
100
AcDbEntity
  8
标题栏
100
AcDbText
 10
-16372.499999999996
 20
32250.0
 30
0.0
 40
450.0
  1
4、回填土压实度不小于0.99；
  7
CN
 11
-16372.499999999996
 21
32250.0
 31
0.0
100
AcDbText
 73
2
  0
TEXT
  5
103
330
17
100
AcDbEntity
  8
标题栏
100
AcDbText
 10
-16372.499999999996
 20
31500.0
 30
0.0
 40
450.0
  1
5、结构缝宽20mm，缝内填充闭孔泡沫塑料板；橡胶止水采用651（300×8）型橡胶止水带，布置位置距离迎水面200mm；
  7
CN
 11
-16372.499999999996
 21
31500.0
 31
0.0
100
AcDbText
 73
2
  0
TEXT
  5
104
330
17
100
AcDbEntity
  8
标题栏
100
AcDbText
 10
-16372.499999999996
 20
30750.0
 30
0.0
 40
450.0
  1
6、栏杆采用不锈钢栏杆。
  7
CN
 11
-16372.499999999996
 21
30750.0
 31
0.0
100
AcDbText
 73
2
  0
TEXT
  5
105
330
17
100
AcDbEntity
  8
标题栏
100
AcDbText
 10
-16372.499999999996
 20
30000.0
 30
0.0
 40
450.0
  1
7、水闸末端与下游渠道自然顺连。
  7
CN
 11
-16372.499999999996
 21
30000.0
 31
0.0
100
AcDbText
 73
2
  0
ENDSEC
  0
SECTION
  2
OBJECTS
  0
DICTIONARY
  5
A
330
0
100
AcDbDictionary
281
1
  3
ACAD_COLOR
350
B
  3
ACAD_GROUP
350
C
  3
ACAD_LAYOUT
350
D
  3
ACAD_MATERIAL
350
E
  3
ACAD_MLEADERSTYLE
350
F
  3
ACAD_MLINESTYLE
350
10
  3
ACAD_PLOTSETTINGS
350
11
  3
ACAD_PLOTSTYLENAME
350
12
  3
ACAD_SCALELIST
350
14
  3
ACAD_TABLESTYLE
350
15
  3
ACAD_VISUALSTYLE
350
16
  3
EZDXF_META
350
2D
  0
DICTIONARY
  5
B
330
A
100
AcDbDictionary
281
1
  0
DICTIONARY
  5
C
330
A
100
AcDbDictionary
281
1
  0
DICTIONARY
  5
D
330
A
100
AcDbDictionary
281
1
  3
Model
350
1A
  3
Layout1
350
1E
  0
DICTIONARY
  5
E
330
A
100
AcDbDictionary
281
1
  3
ByBlock
350
1F
  3
ByLayer
350
20
  3
Global
350
21
  0
DICTIONARY
  5
F
330
A
100
AcDbDictionary
281
1
  3
Standard
350
2C
  0
DICTIONARY
  5
10
330
A
100
AcDbDictionary
281
1
  3
Standard
350
22
  0
DICTIONARY
  5
11
330
A
100
AcDbDictionary
281
1
  0
ACDBDICTIONARYWDFLT
  5
12
330
A
100
AcDbDictionary
281
1
  3
Normal
350
13
100
AcDbDictionaryWithDefault
340
13
  0
ACDBPLACEHOLDER
  5
13
330
12
  0
DICTIONARY
  5
14
330
A
100
AcDbDictionary
281
1
  0
DICTIONARY
  5
15
330
A
100
AcDbDictionary
281
1
  0
DICTIONARY
  5
16
330
A
100
AcDbDictionary
281
1
  0
LAYOUT
  5
1A
330
D
100
AcDbPlotSettings
  1

  4
A3
  6

 40
7.5
 41
20.0
 42
7.5
 43
20.0
 44
420.0
 45
297.0
 46
0.0
 47
0.0
 48
0.0
 49
0.0
140
0.0
141
0.0
142
1.0
143
1.0
 70
1024
 72
1
 73
0
 74
5
  7

 75
16
 76
0
 77
2
 78
300
147
1.0
148
0.0
149
0.0
100
AcDbLayout
  1
Model
 70
1
 71
0
 10
0.0
 20
0.0
 11
420.0
 21
297.0
 12
0.0
 22
0.0
 32
0.0
 14
1e+20
 24
1e+20
 34
1e+20
 15
-1e+20
 25
-1e+20
 35
-1e+20
146
0.0
 13
0.0
 23
0.0
 33
0.0
 16
1.0
 26
0.0
 36
0.0
 17
0.0
 27
1.0
 37
0.0
 76
1
330
17
  0
LAYOUT
  5
1E
330
D
100
AcDbPlotSettings
  1

  4
A3
  6

 40
7.5
 41
20.0
 42
7.5
 43
20.0
 44
420.0
 45
297.0
 46
0.0
 47
0.0
 48
0.0
 49
0.0
140
0.0
141
0.0
142
1.0
143
1.0
 70
0
 72
1
 73
0
 74
5
  7

 75
16
 76
0
 77
2
 78
300
147
1.0
148
0.0
149
0.0
100
AcDbLayout
  1
Layout1
 70
1
 71
1
 10
0.0
 20
0.0
 11
420.0
 21
297.0
 12
0.0
 22
0.0
 32
0.0
 14
1e+20
 24
1e+20
 34
1e+20
 15
-1e+20
 25
-1e+20
 35
-1e+20
146
0.0
 13
0.0
 23
0.0
 33
0.0
 16
1.0
 26
0.0
 36
0.0
 17
0.0
 27
1.0
 37
0.0
 76
1
330
1B
  0
MATERIAL
  5
1F
102
{ACAD_REACTORS
330
E
102
}
330
E
100
AcDbMaterial
  1
ByBlock
  2

 70
0
 40
1.0
 71
1
 41
1.0
 91
-1023410177
 42
1.0
 72
1
  3

 73
1
 74
1
 75
1
 44
0.5
 73
0
 45
1.0
 46
1.0
 77
1
  4

 78
1
 79
1
170
1
 48
1.0
171
1
  6

172
1
173
1
174
1
140
1.0
141
1.0
175
1
  7

176
1
177
1
178
1
143
1.0
179
1
  8

270
1
271
1
272
1
145
1.0
146
1.0
273
1
  9

274
1
275
1
276
1
 42
1.0
 72
1
  3

 73
1
 74
1
 75
1
 94
63
  0
MATERIAL
  5
20
102
{ACAD_REACTORS
330
E
102
}
330
E
100
AcDbMaterial
  1
ByLayer
  2

 70
0
 40
1.0
 71
1
 41
1.0
 91
-1023410177
 42
1.0
 72
1
  3

 73
1
 74
1
 75
1
 44
0.5
 73
0
 45
1.0
 46
1.0
 77
1
  4

 78
1
 79
1
170
1
 48
1.0
171
1
  6

172
1
173
1
174
1
140
1.0
141
1.0
175
1
  7

176
1
177
1
178
1
143
1.0
179
1
  8

270
1
271
1
272
1
145
1.0
146
1.0
273
1
  9

274
1
275
1
276
1
 42
1.0
 72
1
  3

 73
1
 74
1
 75
1
 94
63
  0
MATERIAL
  5
21
102
{ACAD_REACTORS
330
E
102
}
330
E
100
AcDbMaterial
  1
Global
  2

 70
0
 40
1.0
 71
1
 41
1.0
 91
-1023410177
 42
1.0
 72
1
  3

 73
1
 74
1
 75
1
 44
0.5
 73
0
 45
1.0
 46
1.0
 77
1
  4

 78
1
 79
1
170
1
 48
1.0
171
1
  6

172
1
173
1
174
1
140
1.0
141
1.0
175
1
  7

176
1
177
1
178
1
143
1.0
179
1
  8

270
1
271
1
272
1
145
1.0
146
1.0
273
1
  9

274
1
275
1
276
1
 42
1.0
 72
1
  3

 73
1
 74
1
 75
1
 94
63
  0
MLINESTYLE
  5
22
102
{ACAD_REACTORS
330
10
102
}
330
10
100
AcDbMlineStyle
  2
Standard
 70
0
  3

 62
256
 51
90.0
 52
90.0
 71
2
 49
0.5
 62
256
  6
BYLAYER
 49
-0.5
 62
256
  6
BYLAYER
  0
MLEADERSTYLE
  5
2C
102
{ACAD_REACTORS
330
F
102
}
330
F
100
AcDbMLeaderStyle
179
2
170
2
171
1
172
0
 90
2
 40
0.0
 41
0.0
173
1
 91
-1056964608
 92
-2
290
1
 42
2.0
291
1
 43
8.0
  3
Standard
 44
4.0
300

342
29
174
1
175
1
176
0
178
1
 93
-1056964608
 45
4.0
292
0
297
0
 46
4.0
 94
-1056964608
 47
1.0
 49
1.0
140
1.0
294
1
141
0.0
177
0
142
1.0
295
0
296
0
143
3.75
271
0
272
9
273
9
  0
DICTIONARY
  5
2D
330
A
100
AcDbDictionary
280
1
281
1
  3
CREATED_BY_EZDXF
350
2E
  3
WRITTEN_BY_EZDXF
350
108
  0
DICTIONARYVAR
  5
2E
330
2D
100
DictionaryVariables
280
0
  1
1.4.4 @ 2026-10-03T05:06:44.155488+00:00
  0
DICTIONARYVAR
  5
108
330
2D
100
DictionaryVariables
280
0
  1
1.4.4 @ 2026-10-03T05:06:44.184419+00:00
  0
ENDSEC
  0
EOF
