  0
SECTION
  2
HEADER
  9
$ACADVER
  1
AC1027
  9
$ACADMAINTVER
 70
105
  9
$DWGCODEPAGE
  3
ANSI_1252
  9
$LASTSAVEDBY
  1
ezdxf
  9
$REQUIREDVERSIONS
160
0
  9
$INSBASE
 10
0.0
 20
0.0
 30
0.0
  9
$EXTMIN
 10
-20017.767857142862
 20
-52247.142857142855
 30
0.0
  9
$EXTMAX
 10
106132.23214285713
 20
36852.857142857145
 30
0.0
  9
$LIMMIN
 10
-20017.767857142862
 20
-52247.142857142855
  9
$LIMMAX
 10
106132.23214285713
 20
36852.857142857145
  9
$ORTHOMODE
 70
0
  9
$REGENMODE
 70
1
  9
$FILLMODE
 70
1
  9
$QTEXTMODE
 70
0
  9
$MIRRTEXT
 70
1
  9
$LTSCALE
 40
1.0
  9
$ATTMODE
 70
1
  9
$TEXTSIZE
 40
2.5
  9
$TRACEWID
 40
1.0
  9
$TEXTSTYLE
  7
Standard
  9
$CLAYER
  8
0
  9
$CELTYPE
  6
ByLayer
  9
$CECOLOR
 62
256
  9
$CELTSCALE
 40
1.0
  9
$DISPSILH
 70
0
  9
$DIMSCALE
 40
1.0
  9
$DIMASZ
 40
2.5
  9
$DIMEXO
 40
0.625
  9
$DIMDLI
 40
3.75
  9
$DIMRND
 40
0.0
  9
$DIMDLE
 40
0.0
  9
$DIMEXE
 40
1.25
  9
$DIMTP
 40
0.0
  9
$DIMTM
 40
0.0
  9
$DIMTXT
 40
2.5
  9
$DIMCEN
 40
2.5
  9
$DIMTSZ
 40
0.0
  9
$DIMTOL
 70
0
  9
$DIMLIM
 70
0
  9
$DIMTIH
 70
0
  9
$DIMTOH
 70
0
  9
$DIMSE1
 70
0
  9
$DIMSE2
 70
0
  9
$DIMTAD
 70
1
  9
$DIMZIN
 70
8
  9
$DIMBLK
  1

  9
$DIMASO
 70
1
  9
$DIMSHO
 70
1
  9
$DIMPOST
  1

  9
$DIMAPOST
  1

  9
$DIMALT
 70
0
  9
$DIMALTD
 70
3
  9
$DIMALTF
 40
0.03937007874
  9
$DIMLFAC
 40
1.0
  9
$DIMTOFL
 70
1
  9
$DIMTVP
 40
0.0
  9
$DIMTIX
 70
0
  9
$DIMSOXD
 70
0
  9
$DIMSAH
 70
0
  9
$DIMBLK1
  1

  9
$DIMBLK2
  1

  9
$DIMSTYLE
  2
ISO-25
  9
$DIMCLRD
 70
0
  9
$DIMCLRE
 70
0
  9
$DIMCLRT
 70
0
  9
$DIMTFAC
 40
1.0
  9
$DIMGAP
 40
0.625
  9
$DIMJUST
 70
0
  9
$DIMSD1
 70
0
  9
$DIMSD2
 70
0
  9
$DIMTOLJ
 70
0
  9
$DIMTZIN
 70
8
  9
$DIMALTZ
 70
0
  9
$DIMALTTZ
 70
0
  9
$DIMUPT
 70
0
  9
$DIMDEC
 70
2
  9
$DIMTDEC
 70
2
  9
$DIMALTU
 70
2
  9
$DIMALTTD
 70
3
  9
$DIMTXSTY
  7
Standard
  9
$DIMAUNIT
 70
0
  9
$DIMADEC
 70
0
  9
$DIMALTRND
 40
0.0
  9
$DIMAZIN
 70
0
  9
$DIMDSEP
 70
44
  9
$DIMATFIT
 70
3
  9
$DIMFRAC
 70
0
  9
$DIMLDRBLK
  1

  9
$DIMLUNIT
 70
2
  9
$DIMLWD
 70
-2
  9
$DIMLWE
 70
-2
  9
$DIMTMOVE
 70
0
  9
$DIMFXL
 40
1.0
  9
$DIMFXLON
 70
0
  9
$DIMJOGANG
 40
0.785398163397
  9
$DIMTFILL
 70
0
  9
$DIMTFILLCLR
 70
0
  9
$DIMARCSYM
 70
0
  9
$DIMLTYPE
  6

  9
$DIMLTEX1
  6

  9
$DIMLTEX2
  6

  9
$DIMTXTDIRECTION
 70
0
  9
$LUNITS
 70
2
  9
$LUPREC
 70
4
  9
$SKETCHINC
 40
1.0
  9
$FILLETRAD
 40
10.0
  9
$AUNITS
 70
0
  9
$AUPREC
 70
2
  9
$MENU
  1
.
  9
$ELEVATION
 40
0.0
  9
$PELEVATION
 40
0.0
  9
$THICKNESS
 40
0.0
  9
$LIMCHECK
 70
0
  9
$CHAMFERA
 40
0.0
  9
$CHAMFERB
 40
0.0
  9
$CHAMFERC
 40
0.0
  9
$CHAMFERD
 40
0.0
  9
$SKPOLY
 70
0
  9
$TDCREATE
 40
2461317.3619560185
  9
$TDUCREATE
 40
2458532.153996898
  9
$TDUPDATE
 40
2461317.3619560185
  9
$TDUUPDATE
 40
2458532.1544311
  9
$TDINDWG
 40
0.0
  9
$TDUSRTIMER
 40
0.0
  9
$USRTIMER
 70
1
  9
$ANGBASE
 50
0.0
  9
$ANGDIR
 70
0
  9
$PDMODE
 70
0
  9
$PDSIZE
 40
0.0
  9
$PLINEWID
 40
0.0
  9
$SPLFRAME
 70
0
  9
$SPLINETYPE
 70
6
  9
$SPLINESEGS
 70
8
  9
$HANDSEED
  5
1E9
  9
$SURFTAB1
 70
6
  9
$SURFTAB2
 70
6
  9
$SURFTYPE
 70
6
  9
$SURFU
 70
6
  9
$SURFV
 70
6
  9
$UCSBASE
  2

  9
$UCSNAME
  2

  9
$UCSORG
 10
0.0
 20
0.0
 30
0.0
  9
$UCSXDIR
 10
1.0
 20
0.0
 30
0.0
  9
$UCSYDIR
 10
0.0
 20
1.0
 30
0.0
  9
$UCSORTHOREF
  2

  9
$UCSORTHOVIEW
 70
0
  9
$UCSORGTOP
 10
0.0
 20
0.0
 30
0.0
  9
$UCSORGBOTTOM
 10
0.0
 20
0.0
 30
0.0
  9
$UCSORGLEFT
 10
0.0
 20
0.0
 30
0.0
  9
$UCSORGRIGHT
 10
0.0
 20
0.0
 30
0.0
  9
$UCSORGFRONT
 10
0.0
 20
0.0
 30
0.0
  9
$UCSORGBACK
 10
0.0
 20
0.0
 30
0.0
  9
$PUCSBASE
  2

  9
$PUCSNAME
  2

  9
$PUCSORG
 10
0.0
 20
0.0
 30
0.0
  9
$PUCSXDIR
 10
1.0
 20
0.0
 30
0.0
  9
$PUCSYDIR
 10
0.0
 20
1.0
 30
0.0
  9
$PUCSORTHOREF
  2

  9
$PUCSORTHOVIEW
 70
0
  9
$PUCSORGTOP
 10
0.0
 20
0.0
 30
0.0
  9
$PUCSORGBOTTOM
 10
0.0
 20
0.0
 30
0.0
  9
$PUCSORGLEFT
 10
0.0
 20
0.0
 30
0.0
  9
$PUCSORGRIGHT
 10
0.0
 20
0.0
 30
0.0
  9
$PUCSORGFRONT
 10
0.0
 20
0.0
 30
0.0
  9
$PUCSORGBACK
 10
0.0
 20
0.0
 30
0.0
  9
$USERI1
 70
0
  9
$USERI2
 70
0
  9
$USERI3
 70
0
  9
$USERI4
 70
0
  9
$USERI5
 70
0
  9
$USERR1
 40
0.0
  9
$USERR2
 40
0.0
  9
$USERR3
 40
0.0
  9
$USERR4
 40
0.0
  9
$USERR5
 40
0.0
  9
$WORLDVIEW
 70
1
  9
$SHADEDGE
 70
3
  9
$SHADEDIF
 70
70
  9
$TILEMODE
 70
1
  9
$MAXACTVP
 70
64
  9
$PINSBASE
 10
0.0
 20
0.0
 30
0.0
  9
$PLIMCHECK
 70
0
  9
$PEXTMIN
 10
1e+20
 20
1e+20
 30
1e+20
  9
$PEXTMAX
 10
-1e+20
 20
-1e+20
 30
-1e+20
  9
$PLIMMIN
 10
0.0
 20
0.0
  9
$PLIMMAX
 10
420.0
 20
297.0
  9
$UNITMODE
 70
0
  9
$VISRETAIN
 70
1
  9
$PLINEGEN
 70
0
  9
$PSLTSCALE
 70
1
  9
$TREEDEPTH
 70
3020
  9
$CMLSTYLE
  2
Standard
  9
$CMLJUST
 70
0
  9
$CMLSCALE
 40
20.0
  9
$PROXYGRAPHICS
 70
1
  9
$MEASUREMENT
 70
1
  9
$CELWEIGHT
370
-1
  9
$ENDCAPS
280
0
  9
$JOINSTYLE
280
0
  9
$LWDISPLAY
290
0
  9
$INSUNITS
 70
4
  9
$HYPERLINKBASE
  1

  9
$STYLESHEET
  1

  9
$XEDIT
290
1
  9
$CEPSNTYPE
380
0
  9
$PSTYLEMODE
290
1
  9
$FINGERPRINTGUID
  2
{449068B6-AACA-466C-91AE-CBF5751DC854}
  9
$VERSIONGUID
  2
{65544FC5-C3DA-47D3-BDB2-BA85494C0996}
  9
$EXTNAMES
290
1
  9
$PSVPSCALE
 40
0.0
  9
$OLESTARTUP
290
0
  9
$SORTENTS
280
127
  9
$INDEXCTL
280
0
  9
$HIDETEXT
280
1
  9
$XCLIPFRAME
280
1
  9
$HALOGAP
280
0
  9
$OBSCOLOR
 70
257
  9
$OBSLTYPE
280
0
  9
$INTERSECTIONDISPLAY
280
0
  9
$INTERSECTIONCOLOR
 70
257
  9
$DIMASSOC
280
2
  9
$PROJECTNAME
  1

  9
$CAMERADISPLAY
290
0
  9
$LENSLENGTH
 40
50.0
  9
$CAMERAHEIGHT
 40
0.0
  9
$STEPSPERSEC
 40
24.0
  9
$STEPSIZE
 40
100.0
  9
$3DDWFPREC
 40
2.0
  9
$PSOLWIDTH
 40
0.005
  9
$PSOLHEIGHT
 40
0.08
  9
$LOFTANG1
 40
1.570796326795
  9
$LOFTANG2
 40
1.570796326795
  9
$LOFTMAG1
 40
0.0
  9
$LOFTMAG2
 40
0.0
  9
$LOFTPARAM
 70
7
  9
$LOFTNORMALS
280
1
  9
$LATITUDE
 40
37.795
  9
$LONGITUDE
 40
-122.394
  9
$NORTHDIRECTION
 40
0.0
  9
$TIMEZONE
 70
-8000
  9
$LIGHTGLYPHDISPLAY
280
1
  9
$TILEMODELIGHTSYNCH
280
1
  9
$CMATERIAL
347
20
  9
$SOLIDHIST
280
0
  9
$SHOWHIST
280
1
  9
$DWFFRAME
280
2
  9
$DGNFRAME
280
2
  9
$REALWORLDSCALE
290
1
  9
$INTERFERECOLOR
 62
256
  9
$CSHADOW
280
0
  9
$SHADOWPLANELOCATION
 40
0.0
  0
ENDSEC
  0
SECTION
  2
CLASSES
  0
CLASS
  1
ACDBDICTIONARYWDFLT
  2
AcDbDictionaryWithDefault
  3
ObjectDBX Classes
 90
0
 91
0
280
0
281
0
  0
CLASS
  1
SUN
  2
AcDbSun
  3
SCENEOE
 90
1153
 91
0
280
0
281
0
  0
CLASS
  1
VISUALSTYLE
  2
AcDbVisualStyle
  3
ObjectDBX Classes
 90
4095
 91
0
280
0
281
0
  0
CLASS
  1
MATERIAL
  2
AcDbMaterial
  3
ObjectDBX Classes
 90
1153
 91
0
280
0
281
0
  0
CLASS
  1
SCALE
  2
AcDbScale
  3
ObjectDBX Classes
 90
1153
 91
0
280
0
281
0
  0
CLASS
  1
TABLESTYLE
  2
AcDbTableStyle
  3
ObjectDBX Classes
 90
4095
 91
0
280
0
281
0
  0
CLASS
  1
MLEADERSTYLE
  2
AcDbMLeaderStyle
  3
ACDB_MLEADERSTYLE_CLASS
 90
4095
 91
0
280
0
281
0
  0
CLASS
  1
DICTIONARYVAR
  2
AcDbDictionaryVar
  3
ObjectDBX Classes
 90
0
 91
0
280
0
281
0
  0
CLASS
  1
CELLSTYLEMAP
  2
AcDbCellStyleMap
  3
ObjectDBX Classes
 90
1152
 91
0
280
0
281
0
  0
CLASS
  1
MENTALRAYRENDERSETTINGS
  2
AcDbMentalRayRenderSettings
  3
SCENEOE
 90
1024
 91
0
280
0
281
0
  0
CLASS
  1
ACDBDETAILVIEWSTYLE
  2
AcDbDetailViewStyle
  3
ObjectDBX Classes
 90
1025
 91
0
280
0
281
0
  0
CLASS
  1
ACDBSECTIONVIEWSTYLE
  2
AcDbSectionViewStyle
  3
ObjectDBX Classes
 90
1025
 91
0
280
0
281
0
  0
CLASS
  1
RASTERVARIABLES
  2
AcDbRasterVariables
  3
ISM
 90
0
 91
0
280
0
281
0
  0
CLASS
  1
LAYOUT
  2
AcDbLayout
  3
ObjectDBX Classes
 90
0
 91
0
280
0
281
0
  0
CLASS
  1
ACDBPLACEHOLDER
  2
AcDbPlaceHolder
  3
ObjectDBX Classes
 90
0
 91
0
280
0
281
0
  0
ENDSEC
  0
SECTION
  2
TABLES
  0
TABLE
  2
VPORT
  5
8
330
0
100
AcDbSymbolTable
 70
1
  0
VPORT
  5
23
330
8
100
AcDbSymbolTableRecord
100
AcDbViewportTableRecord
  2
*Active
 70
0
 10
0.0
 20
0.0
 11
1.0
 21
1.0
 12
43057.23214285713
 22
-7697.142857142855
 13
0.0
 23
0.0
 14
0.5
 24
0.5
 15
0.5
 25
0.5
 16
0.0
 26
0.0
 36
1.0
 17
43057.23214285713
 27
-7697.142857142855
 37
0.0
 40
94554.518455664
 41
1.4142
 42
50.0
 43
0.0
 44
0.0
 50
0.0
 51
0.0
 71
0
 72
1000
 73
1
 74
3
 75
0
 76
0
 77
0
 78
0
281
0
 65
0
146
0.0
  0
ENDTAB
  0
TABLE
  2
LTYPE
  5
2
330
0
100
AcDbSymbolTable
 70
21
  0
LTYPE
  5
24
330
2
100
AcDbSymbolTableRecord
100
AcDbLinetypeTableRecord
  2
ByBlock
 70
0
  3

 72
65
 73
0
 40
0.0
  0
LTYPE
  5
25
330
2
100
AcDbSymbolTableRecord
100
AcDbLinetypeTableRecord
  2
ByLayer
 70
0
  3

 72
65
 73
0
 40
0.0
  0
LTYPE
  5
26
330
2
100
AcDbSymbolTableRecord
100
AcDbLinetypeTableRecord
  2
Continuous
 70
0
  3

 72
65
 73
0
 40
0.0
  0
LTYPE
  5
31
330
2
100
AcDbSymbolTableRecord
100
AcDbLinetypeTableRecord
  2
CENTER
 70
0
  3
Center ____ _ ____ _ ____ _ ____ _ ____ _ ____
 72
65
 73
4
 40
5.08
 49
3.175
 74
0
 49
-0.635
 74
0
 49
0.635
 74
0
 49
-0.635
 74
0
  0
LTYPE
  5
32
330
2
100
AcDbSymbolTableRecord
100
AcDbLinetypeTableRecord
  2
CENTERX2
 70
0
  3
Center (2x) ________  __  ________  __  ________
 72
65
 73
4
 40
8.89
 49
6.35
 74
0
 49
-0.635
 74
0
 49
1.27
 74
0
 49
-0.635
 74
0
  0
LTYPE
  5
33
330
2
100
AcDbSymbolTableRecord
100
AcDbLinetypeTableRecord
  2
CENTER2
 70
0
  3
Center (.5x) ____ _ ____ _ ____ _ ____ _ ____
 72
65
 73
4
 40
2.54
 49
1.587
 74
0
 49
-0.318
 74
0
 49
0.318
 74
0
 49
-0.318
 74
0
  0
LTYPE
  5
34
330
2
100
AcDbSymbolTableRecord
100
AcDbLinetypeTableRecord
  2
DASHED
 70
0
  3
Dashed __ __ __ __ __ __ __ __ __ __ __ __ __ _
 72
65
 73
2
 40
1.524
 49
1.27
 74
0
 49
-0.254
 74
0
  0
LTYPE
  5
35
330
2
100
AcDbSymbolTableRecord
100
AcDbLinetypeTableRecord
  2
DASHEDX2
 70
0
  3
Dashed (2x) ____  ____  ____  ____  ____  ____
 72
65
 73
2
 40
3.048
 49
2.54
 74
0
 49
-0.508
 74
0
  0
LTYPE
  5
36
330
2
100
AcDbSymbolTableRecord
100
AcDbLinetypeTableRecord
  2
DASHED2
 70
0
  3
Dashed (.5x) _ _ _ _ _ _ _ _ _ _ _ _ _ _
 72
65
 73
2
 40
0.762
 49
0.635
 74
0
 49
-0.127
 74
0
  0
LTYPE
  5
37
330
2
100
AcDbSymbolTableRecord
100
AcDbLinetypeTableRecord
  2
PHANTOM
 70
0
  3
Phantom ______  __  __  ______  __  __  ______
 72
65
 73
6
 40
6.35
 49
3.175
 74
0
 49
-0.635
 74
0
 49
0.635
 74
0
 49
-0.635
 74
0
 49
0.635
 74
0
 49
-0.635
 74
0
  0
LTYPE
  5
38
330
2
100
AcDbSymbolTableRecord
100
AcDbLinetypeTableRecord
  2
PHANTOMX2
 70
0
  3
Phantom (2x)____________    ____    ____    ____________
 72
65
 73
6
 40
10.795
 49
6.35
 74
0
 49
-0.635
 74
0
 49
1.27
 74
0
 49
-0.635
 74
0
 49
1.27
 74
0
 49
-0.635
 74
0
  0
LTYPE
  5
39
330
2
100
AcDbSymbolTableRecord
100
AcDbLinetypeTableRecord
  2
PHANTOM2
 70
0
  3
Phantom (.5x) ___ _ _ ___ _ _ ___ _ _ ___ _ _ ___
 72
65
 73
6
 40
3.175
 49
1.587
 74
0
 49
-0.318
 74
0
 49
0.318
 74
0
 49
-0.318
 74
0
 49
0.318
 74
0
 49
-0.318
 74
0
  0
LTYPE
  5
3A
330
2
100
AcDbSymbolTableRecord
100
AcDbLinetypeTableRecord
  2
DASHDOT
 70
0
  3
Dash dot __ . __ . __ . __ . __ . __ . __ . __
 72
65
 73
4
 40
3.556
 49
2.54
 74
0
 49
-0.508
 74
0
 49
0.0
 74
0
 49
-0.508
 74
0
  0
LTYPE
  5
3B
330
2
100
AcDbSymbolTableRecord
100
AcDbLinetypeTableRecord
  2
DASHDOTX2
 70
0
  3
Dash dot (2x) ____  .  ____  .  ____  .  ____
 72
65
 73
4
 40
6.096
 49
5.08
 74
0
 49
-0.508
 74
0
 49
0.0
 74
0
 49
-0.508
 74
0
  0
LTYPE
  5
3C
330
2
100
AcDbSymbolTableRecord
100
AcDbLinetypeTableRecord
  2
DASHDOT2
 70
0
  3
Dash dot (.5x) _ . _ . _ . _ . _ . _ . _ . _
 72
65
 73
4
 40
1.778
 49
1.27
 74
0
 49
-0.254
 74
0
 49
0.0
 74
0
 49
-0.254
 74
0
  0
LTYPE
  5
3D
330
2
100
AcDbSymbolTableRecord
100
AcDbLinetypeTableRecord
  2
DOT
 70
0
  3
Dot .  .  .  .  .  .  .  .  .  .  .  .  .  .  .  .
 72
65
 73
2
 40
0.508
 49
0.0
 74
0
 49
-0.508
 74
0
  0
LTYPE
  5
3E
330
2
100
AcDbSymbolTableRecord
100
AcDbLinetypeTableRecord
  2
DOTX2
 70
0
  3
Dot (2x) .    .    .    .    .    .    .    . 
 72
65
 73
2
 40
1.016
 49
0.0
 74
0
 49
-1.016
 74
0
  0
LTYPE
  5
3F
330
2
100
AcDbSymbolTableRecord
100
AcDbLinetypeTableRecord
  2
DOT2
 70
0
  3
Dot (.5) . . . . . . . . . . . . . . . . . . . 
 72
65
 73
2
 40
0.254
 49
0.0
 74
0
 49
-0.254
 74
0
  0
LTYPE
  5
40
330
2
100
AcDbSymbolTableRecord
100
AcDbLinetypeTableRecord
  2
DIVIDE
 70
0
  3
Divide __ . . __ . . __ . . __ . . __ . . __
 72
65
 73
6
 40
4.064
 49
2.54
 74
0
 49
-0.508
 74
0
 49
0.0
 74
0
 49
-0.508
 74
0
 49
0.0
 74
0
 49
-0.508
 74
0
  0
LTYPE
  5
41
330
2
100
AcDbSymbolTableRecord
100
AcDbLinetypeTableRecord
  2
DIVIDEX2
 70
0
  3
Divide (2x) ____  . .  ____  . .  ____  . .  ____
 72
65
 73
6
 40
6.604
 49
5.08
 74
0
 49
-0.508
 74
0
 49
0.0
 74
0
 49
-0.508
 74
0
 49
0.0
 74
0
 49
-0.508
 74
0
  0
LTYPE
  5
42
330
2
100
AcDbSymbolTableRecord
100
AcDbLinetypeTableRecord
  2
DIVIDE2
 70
0
  3
Divide(.5x) _ . _ . _ . _ . _ . _ . _ . _
 72
65
 73
6
 40
2.032
 49
1.27
 74
0
 49
-0.254
 74
0
 49
0.0
 74
0
 49
-0.254
 74
0
 49
0.0
 74
0
 49
-0.254
 74
0
  0
ENDTAB
  0
TABLE
  2
LAYER
  5
1
330
0
100
AcDbSymbolTable
 70
10
  0
LAYER
  5
27
330
1
100
AcDbSymbolTableRecord
100
AcDbLayerTableRecord
  2
0
 70
0
 62
7
  6
Continuous
370
18
390
13
347
21
  0
LAYER
  5
28
330
1
100
AcDbSymbolTableRecord
100
AcDbLayerTableRecord
  2
Defpoints
 70
0
 62
7
  6
Continuous
290
0
370
18
390
13
347
21
  0
LAYER
  5
43
330
1
100
AcDbSymbolTableRecord
100
AcDbLayerTableRecord
  2
轮廓
 70
0
 62
7
  6
Continuous
370
50
390
13
347
21
  0
LAYER
  5
44
330
1
100
AcDbSymbolTableRecord
100
AcDbLayerTableRecord
  2
中心线
 70
0
 62
1
  6
Continuous
370
18
390
13
347
21
  0
LAYER
  5
45
330
1
100
AcDbSymbolTableRecord
100
AcDbLayerTableRecord
  2
高程标注
 70
0
 62
3
  6
Continuous
370
18
390
13
347
21
  0
LAYER
  5
46
330
1
100
AcDbSymbolTableRecord
100
AcDbLayerTableRecord
  2
示坡线
 70
0
 62
6
  6
Continuous
370
18
390
13
347
21
  0
LAYER
  5
47
330
1
100
AcDbSymbolTableRecord
100
AcDbLayerTableRecord
  2
尺寸标注
 70
0
 62
7
  6
Continuous
370
18
390
13
347
21
  0
LAYER
  5
48
330
1
100
AcDbSymbolTableRecord
100
AcDbLayerTableRecord
  2
图幅
 70
0
 62
3
  6
Continuous
370
18
390
13
347
21
  0
LAYER
  5
49
330
1
100
AcDbSymbolTableRecord
100
AcDbLayerTableRecord
  2
图框
 70
0
 62
5
  6
Continuous
370
50
390
13
347
21
  0
LAYER
  5
4A
330
1
100
AcDbSymbolTableRecord
100
AcDbLayerTableRecord
  2
标题栏
 70
0
 62
7
  6
Continuous
370
18
390
13
347
21
  0
ENDTAB
  0
TABLE
  2
STYLE
  5
5
330
0
100
AcDbSymbolTable
 70
3
  0
STYLE
  5
29
330
5
100
AcDbSymbolTableRecord
100
AcDbTextStyleTableRecord
  2
Standard
 70
0
 40
0.0
 41
1.0
 50
0.0
 71
0
 42
2.5
  3
txt
  4

  0
STYLE
  5
2F
330
5
100
AcDbSymbolTableRecord
100
AcDbTextStyleTableRecord
  2
CN
 70
0
 40
0.0
 41
1.0
 50
0.0
 71
0
 42
2.5
  3
simhei.ttf
  4

  0
STYLE
  5
30
330
5
100
AcDbSymbolTableRecord
100
AcDbTextStyleTableRecord
  2
数字字体
 70
0
 40
0.0
 41
1.0
 50
0.0
 71
0
 42
2.5
  3
gbenor.shx
  4

  0
ENDTAB
  0
TABLE
  2
VIEW
  5
7
330
0
100
AcDbSymbolTable
 70
0
  0
ENDTAB
  0
TABLE
  2
UCS
  5
6
330
0
100
AcDbSymbolTable
 70
0
  0
ENDTAB
  0
TABLE
  2
APPID
  5
3
330
0
100
AcDbSymbolTable
 70
3
  0
APPID
  5
2A
330
3
100
AcDbSymbolTableRecord
100
AcDbRegAppTableRecord
  2
ACAD
 70
0
  0
APPID
  5
1E6
330
3
100
AcDbSymbolTableRecord
100
AcDbRegAppTableRecord
  2
HATCHBACKGROUNDCOLOR
 70
0
  0
APPID
  5
1E7
330
3
100
AcDbSymbolTableRecord
100
AcDbRegAppTableRecord
  2
EZDXF
 70
0
  0
ENDTAB
  0
TABLE
  2
DIMSTYLE
  5
4
330
0
100
AcDbSymbolTable
 70
1
100
AcDbDimStyleTable
  0
DIMSTYLE
105
2B
330
4
100
AcDbSymbolTableRecord
100
AcDbDimStyleTableRecord
  2
Standard
 70
0
 40
1.0
 41
2.5
 42
0.625
 43
3.75
 44
1.25
 45
0.0
 46
0.0
 47
0.0
 48
0.0
 49
2.5
140
2.5
141
2.5
142
0.0
143
0.03937007874
144
1.0
145
0.0
146
1.0
147
0.625
148
0.0
 69
0
 70
0
 71
0
 72
0
 73
0
 74
0
 75
0
 76
0
 77
1
 78
8
 79
3
170
0
171
3
172
1
173
0
174
0
175
0
176
0
177
0
178
0
179
2
271
2
272
2
273
2
274
3
275
0
276
0
277
2
278
44
279
0
280
0
281
0
282
0
283
0
284
8
285
0
286
0
288
0
289
3
290
0
371
-2
372
-2
  0
ENDTAB
  0
TABLE
  2
BLOCK_RECORD
  5
9
330
0
100
AcDbSymbolTable
 70
2
  0
BLOCK_RECORD
  5
17
330
9
100
AcDbSymbolTableRecord
100
AcDbBlockTableRecord
  2
*Model_Space
340
1A
 70
0
280
1
281
0
  0
BLOCK_RECORD
  5
1B
330
9
100
AcDbSymbolTableRecord
100
AcDbBlockTableRecord
  2
*Paper_Space
340
1E
 70
0
280
1
281
0
  0
ENDTAB
  0
ENDSEC
  0
SECTION
  2
BLOCKS
  0
BLOCK
  5
18
330
17
100
AcDbEntity
  8
0
100
AcDbBlockBegin
  2
*Model_Space
 70
0
 10
0.0
 20
0.0
 30
0.0
  3
*Model_Space
  1

  0
ENDBLK
  5
19
330
17
100
AcDbEntity
  8
0
100
AcDbBlockEnd
  0
BLOCK
  5
1C
330
1B
100
AcDbEntity
  8
0
100
AcDbBlockBegin
  2
*Paper_Space
 70
0
 10
0.0
 20
0.0
 30
0.0
  3
*Paper_Space
  1

  0
ENDBLK
  5
1D
330
1B
100
AcDbEntity
  8
0
100
AcDbBlockEnd
  0
ENDSEC
  0
SECTION
  2
ENTITIES
  0
LINE
  5
4B
330
17
100
AcDbEntity
  8
中心线
  6
DASHED
100
AcDbLine
 10
-2000.0
 20
0.0
 30
0.0
 11
92900.0
 21
0.0
 31
0.0
  0
LINE
  5
4C
330
17
100
AcDbEntity
  8
轮廓
100
AcDbLine
 10
0.0
 20
-10000.0
 30
0.0
 11
15000.0
 21
-10000.0
 31
0.0
  0
LINE
  5
4D
330
17
100
AcDbEntity
  8
轮廓
100
AcDbLine
 10
15000.0
 20
-10000.0
 30
0.0
 11
15000.0
 21
10000.0
 31
0.0
  0
LINE
  5
4E
330
17
100
AcDbEntity
  8
轮廓
100
AcDbLine
 10
15000.0
 20
10000.0
 30
0.0
 11
0.0
 21
10000.0
 31
0.0
  0
LINE
  5
4F
330
17
100
AcDbEntity
  8
轮廓
100
AcDbLine
 10
0.0
 20
10000.0
 30
0.0
 11
0.0
 21
-10000.0
 31
0.0
  0
LINE
  5
50
330
17
100
AcDbEntity
  8
轮廓
100
AcDbLine
 10
15000.0
 20
-11200.0
 30
0.0
 11
29000.0
 21
-11200.0
 31
0.0
  0
LINE
  5
51
330
17
100
AcDbEntity
  8
轮廓
100
AcDbLine
 10
29000.0
 20
-11200.0
 30
0.0
 11
29000.0
 21
11200.0
 31
0.0
  0
LINE
  5
52
330
17
100
AcDbEntity
  8
轮廓
100
AcDbLine
 10
29000.0
 20
11200.0
 30
0.0
 11
15000.0
 21
11200.0
 31
0.0
  0
LINE
  5
53
330
17
100
AcDbEntity
  8
轮廓
100
AcDbLine
 10
15000.0
 20
11200.0
 30
0.0
 11
15000.0
 21
-11200.0
 31
0.0
  0
LINE
  5
54
330
17
100
AcDbEntity
  8
轮廓
100
AcDbLine
 10
15000.0
 20
-10000.0
 30
0.0
 11
15000.0
 21
-11200.0
 31
0.0
  0
LINE
  5
55
330
17
100
AcDbEntity
  8
轮廓
100
AcDbLine
 10
15000.0
 20
10000.0
 30
0.0
 11
15000.0
 21
11200.0
 31
0.0
  0
LINE
  5
56
330
17
100
AcDbEntity
  8
轮廓
100
AcDbLine
 10
29000.0
 20
-10000.0
 30
0.0
 11
29000.0
 21
-11200.0
 31
0.0
  0
LINE
  5
57
330
17
100
AcDbEntity
  8
轮廓
100
AcDbLine
 10
29000.0
 20
10000.0
 30
0.0
 11
29000.0
 21
11200.0
 31
0.0
  0
LINE
  5
58
330
17
100
AcDbEntity
  8
轮廓
100
AcDbLine
 10
15000.0
 20
-10000.0
 30
0.0
 11
15650.0
 21
-10000.0
 31
0.0
  0
LINE
  5
59
330
17
100
AcDbEntity
  8
轮廓
100
AcDbLine
 10
15950.0
 20
-10000.0
 30
0.0
 11
17850.0
 21
-10000.0
 31
0.0
  0
LINE
  5
5A
330
17
100
AcDbEntity
  8
轮廓
100
AcDbLine
 10
18650.0
 20
-10000.0
 30
0.0
 11
29000.0
 21
-10000.0
 31
0.0
  0
LINE
  5
5B
330
17
100
AcDbEntity
  8
轮廓
100
AcDbLine
 10
15500.0
 20
-4000.0
 30
0.0
 11
15650.0
 21
-4000.0
 31
0.0
  0
LINE
  5
5C
330
17
100
AcDbEntity
  8
轮廓
100
AcDbLine
 10
15950.0
 20
-4000.0
 30
0.0
 11
17850.0
 21
-4000.0
 31
0.0
  0
LINE
  5
5D
330
17
100
AcDbEntity
  8
轮廓
100
AcDbLine
 10
18650.0
 20
-4000.0
 30
0.0
 11
29000.0
 21
-4000.0
 31
0.0
  0
LINE
  5
5E
330
17
100
AcDbEntity
  8
轮廓
100
AcDbLine
 10
15500.0
 20
-3000.0
 30
0.0
 11
15650.0
 21
-3000.0
 31
0.0
  0
LINE
  5
5F
330
17
100
AcDbEntity
  8
轮廓
100
AcDbLine
 10
15950.0
 20
-3000.0
 30
0.0
 11
17850.0
 21
-3000.0
 31
0.0
  0
LINE
  5
60
330
17
100
AcDbEntity
  8
轮廓
100
AcDbLine
 10
18650.0
 20
-3000.0
 30
0.0
 11
29000.0
 21
-3000.0
 31
0.0
  0
LINE
  5
61
330
17
100
AcDbEntity
  8
轮廓
100
AcDbLine
 10
15500.0
 20
3000.0
 30
0.0
 11
15650.0
 21
3000.0
 31
0.0
  0
LINE
  5
62
330
17
100
AcDbEntity
  8
轮廓
100
AcDbLine
 10
15950.0
 20
3000.0
 30
0.0
 11
17850.0
 21
3000.0
 31
0.0
  0
LINE
  5
63
330
17
100
AcDbEntity
  8
轮廓
100
AcDbLine
 10
18650.0
 20
3000.0
 30
0.0
 11
29000.0
 21
3000.0
 31
0.0
  0
LINE
  5
64
330
17
100
AcDbEntity
  8
轮廓
100
AcDbLine
 10
15500.0
 20
4000.0
 30
0.0
 11
15650.0
 21
4000.0
 31
0.0
  0
LINE
  5
65
330
17
100
AcDbEntity
  8
轮廓
100
AcDbLine
 10
15950.0
 20
4000.0
 30
0.0
 11
17850.0
 21
4000.0
 31
0.0
  0
LINE
  5
66
330
17
100
AcDbEntity
  8
轮廓
100
AcDbLine
 10
18650.0
 20
4000.0
 30
0.0
 11
29000.0
 21
4000.0
 31
0.0
  0
LINE
  5
67
330
17
100
AcDbEntity
  8
轮廓
100
AcDbLine
 10
15000.0
 20
10000.0
 30
0.0
 11
15650.0
 21
10000.0
 31
0.0
  0
LINE
  5
68
330
17
100
AcDbEntity
  8
轮廓
100
AcDbLine
 10
15950.0
 20
10000.0
 30
0.0
 11
17850.0
 21
10000.0
 31
0.0
  0
LINE
  5
69
330
17
100
AcDbEntity
  8
轮廓
100
AcDbLine
 10
18650.0
 20
10000.0
 30
0.0
 11
29000.0
 21
10000.0
 31
0.0
  0
LINE
  5
6A
330
17
100
AcDbEntity
  8
轮廓
100
AcDbLine
 10
21775.0
 20
-11200.0
 30
0.0
 11
21775.0
 21
11200.0
 31
0.0
  0
ARC
  5
6B
330
17
100
AcDbEntity
  8
轮廓
100
AcDbCircle
 10
15500.0
 20
-3500.0
 30
0.0
 40
500.0
100
AcDbArc
 50
90.0
 51
270.0
  0
ARC
  5
6C
330
17
100
AcDbEntity
  8
轮廓
100
AcDbCircle
 10
15500.0
 20
3500.0
 30
0.0
 40
500.0
100
AcDbArc
 50
90.0
 51
270.0
  0
ARC
  5
6D
330
17
100
AcDbEntity
  8
轮廓
100
AcDbCircle
 10
15000.0
 20
20000.0
 30
0.0
 40
10000.0
100
AcDbArc
 50
180.0
 51
270.0
  0
ARC
  5
6E
330
17
100
AcDbEntity
  8
轮廓
100
AcDbCircle
 10
15000.0
 20
20000.0
 30
0.0
 40
9700.0
100
AcDbArc
 50
180.0
 51
270.0
  0
ARC
  5
6F
330
17
100
AcDbEntity
  8
轮廓
100
AcDbCircle
 10
15000.0
 20
-20000.0
 30
0.0
 40
10000.0
100
AcDbArc
 50
90.0
 51
180.0
  0
ARC
  5
70
330
17
100
AcDbEntity
  8
轮廓
100
AcDbCircle
 10
15000.0
 20
-20000.0
 30
0.0
 40
9700.0
100
AcDbArc
 50
90.0
 51
180.0
  0
ARC
  5
71
330
17
100
AcDbEntity
  8
轮廓
100
AcDbCircle
 10
29000.0
 20
20000.0
 30
0.0
 40
10000.0
100
AcDbArc
 50
270.0
 51
360.0
  0
ARC
  5
72
330
17
100
AcDbEntity
  8
轮廓
100
AcDbCircle
 10
29000.0
 20
20000.0
 30
0.0
 40
9700.0
100
AcDbArc
 50
270.0
 51
360.0
  0
ARC
  5
73
330
17
100
AcDbEntity
  8
轮廓
100
AcDbCircle
 10
29000.0
 20
-20000.0
 30
0.0
 40
10000.0
100
AcDbArc
 50
0.0
 51
90.0
  0
ARC
  5
74
330
17
100
AcDbEntity
  8
轮廓
100
AcDbCircle
 10
29000.0
 20
-20000.0
 30
0.0
 40
9700.0
100
AcDbArc
 50
0.0
 51
90.0
  0
LINE
  5
75
330
17
100
AcDbEntity
  8
轮廓
100
AcDbLine
 10
5000.0
 20
-20000.0
 30
0.0
 11
5000.0
 21
-29900.000000000007
 31
0.0
  0
LINE
  5
76
330
17
100
AcDbEntity
  8
轮廓
100
AcDbLine
 10
5300.0
 20
-20000.0
 30
0.0
 11
5300.0
 21
-29900.000000000007
 31
0.0
  0
LINE
  5
77
330
17
100
AcDbEntity
  8
轮廓
100
AcDbLine
 10
38700.0
 20
-20000.0
 30
0.0
 11
38700.0
 21
-29900.000000000007
 31
0.0
  0
LINE
  5
78
330
17
100
AcDbEntity
  8
轮廓
100
AcDbLine
 10
39000.0
 20
-20000.0
 30
0.0
 11
39000.0
 21
-29900.000000000007
 31
0.0
  0
LINE
  5
79
330
17
100
AcDbEntity
  8
轮廓
100
AcDbLine
 10
5000.0
 20
20000.0
 30
0.0
 11
5000.0
 21
29900.000000000007
 31
0.0
  0
LINE
  5
7A
330
17
100
AcDbEntity
  8
轮廓
100
AcDbLine
 10
5300.0
 20
20000.0
 30
0.0
 11
5300.0
 21
29900.000000000007
 31
0.0
  0
LINE
  5
7B
330
17
100
AcDbEntity
  8
轮廓
100
AcDbLine
 10
38700.0
 20
20000.0
 30
0.0
 11
38700.0
 21
29900.000000000007
 31
0.0
  0
LINE
  5
7C
330
17
100
AcDbEntity
  8
轮廓
100
AcDbLine
 10
39000.0
 20
20000.0
 30
0.0
 11
39000.0
 21
29900.000000000007
 31
0.0
  0
LINE
  5
7D
330
17
100
AcDbEntity
  8
轮廓
100
AcDbLine
 10
15650.0
 20
-10000.0
 30
0.0
 11
15650.0
 21
-10200.0
 31
0.0
  0
LINE
  5
7E
330
17
100
AcDbEntity
  8
轮廓
100
AcDbLine
 10
15650.0
 20
-10200.0
 30
0.0
 11
15950.0
 21
-10200.0
 31
0.0
  0
LINE
  5
7F
330
17
100
AcDbEntity
  8
轮廓
100
AcDbLine
 10
15950.0
 20
-10000.0
 30
0.0
 11
15950.0
 21
-10200.0
 31
0.0
  0
LINE
  5
80
330
17
100
AcDbEntity
  8
轮廓
100
AcDbLine
 10
17850.0
 20
-10000.0
 30
0.0
 11
17850.0
 21
-10300.0
 31
0.0
  0
LINE
  5
81
330
17
100
AcDbEntity
  8
轮廓
100
AcDbLine
 10
17850.0
 20
-10300.0
 30
0.0
 11
18650.0
 21
-10300.0
 31
0.0
  0
LINE
  5
82
330
17
100
AcDbEntity
  8
轮廓
100
AcDbLine
 10
18650.0
 20
-10000.0
 30
0.0
 11
18650.0
 21
-10300.0
 31
0.0
  0
LINE
  5
83
330
17
100
AcDbEntity
  8
轮廓
100
AcDbLine
 10
15650.0
 20
-3000.0
 30
0.0
 11
15650.0
 21
-3200.0
 31
0.0
  0
LINE
  5
84
330
17
100
AcDbEntity
  8
轮廓
100
AcDbLine
 10
15650.0
 20
-3200.0
 30
0.0
 11
15950.0
 21
-3200.0
 31
0.0
  0
LINE
  5
85
330
17
100
AcDbEntity
  8
轮廓
100
AcDbLine
 10
15950.0
 20
-3000.0
 30
0.0
 11
15950.0
 21
-3200.0
 31
0.0
  0
LINE
  5
86
330
17
100
AcDbEntity
  8
轮廓
100
AcDbLine
 10
17850.0
 20
-3000.0
 30
0.0
 11
17850.0
 21
-3300.0
 31
0.0
  0
LINE
  5
87
330
17
100
AcDbEntity
  8
轮廓
100
AcDbLine
 10
17850.0
 20
-3300.0
 30
0.0
 11
18650.0
 21
-3300.0
 31
0.0
  0
LINE
  5
88
330
17
100
AcDbEntity
  8
轮廓
100
AcDbLine
 10
18650.0
 20
-3000.0
 30
0.0
 11
18650.0
 21
-3300.0
 31
0.0
  0
LINE
  5
89
330
17
100
AcDbEntity
  8
轮廓
100
AcDbLine
 10
15650.0
 20
-4000.0
 30
0.0
 11
15650.0
 21
-3800.0
 31
0.0
  0
LINE
  5
8A
330
17
100
AcDbEntity
  8
轮廓
100
AcDbLine
 10
15650.0
 20
-3800.0
 30
0.0
 11
15950.0
 21
-3800.0
 31
0.0
  0
LINE
  5
8B
330
17
100
AcDbEntity
  8
轮廓
100
AcDbLine
 10
15950.0
 20
-4000.0
 30
0.0
 11
15950.0
 21
-3800.0
 31
0.0
  0
LINE
  5
8C
330
17
100
AcDbEntity
  8
轮廓
100
AcDbLine
 10
17850.0
 20
-4000.0
 30
0.0
 11
17850.0
 21
-3700.0
 31
0.0
  0
LINE
  5
8D
330
17
100
AcDbEntity
  8
轮廓
100
AcDbLine
 10
17850.0
 20
-3700.0
 30
0.0
 11
18650.0
 21
-3700.0
 31
0.0
  0
LINE
  5
8E
330
17
100
AcDbEntity
  8
轮廓
100
AcDbLine
 10
18650.0
 20
-4000.0
 30
0.0
 11
18650.0
 21
-3700.0
 31
0.0
  0
LINE
  5
8F
330
17
100
AcDbEntity
  8
轮廓
100
AcDbLine
 10
15650.0
 20
4000.0
 30
0.0
 11
15650.0
 21
3800.0
 31
0.0
  0
LINE
  5
90
330
17
100
AcDbEntity
  8
轮廓
100
AcDbLine
 10
15650.0
 20
3800.0
 30
0.0
 11
15950.0
 21
3800.0
 31
0.0
  0
LINE
  5
91
330
17
100
AcDbEntity
  8
轮廓
100
AcDbLine
 10
15950.0
 20
4000.0
 30
0.0
 11
15950.0
 21
3800.0
 31
0.0
  0
LINE
  5
92
330
17
100
AcDbEntity
  8
轮廓
100
AcDbLine
 10
17850.0
 20
4000.0
 30
0.0
 11
17850.0
 21
3700.0
 31
0.0
  0
LINE
  5
93
330
17
100
AcDbEntity
  8
轮廓
100
AcDbLine
 10
17850.0
 20
3700.0
 30
0.0
 11
18650.0
 21
3700.0
 31
0.0
  0
LINE
  5
94
330
17
100
AcDbEntity
  8
轮廓
100
AcDbLine
 10
18650.0
 20
4000.0
 30
0.0
 11
18650.0
 21
3700.0
 31
0.0
  0
LINE
  5
95
330
17
100
AcDbEntity
  8
轮廓
100
AcDbLine
 10
15650.0
 20
3000.0
 30
0.0
 11
15650.0
 21
3200.0
 31
0.0
  0
LINE
  5
96
330
17
100
AcDbEntity
  8
轮廓
100
AcDbLine
 10
15650.0
 20
3200.0
 30
0.0
 11
15950.0
 21
3200.0
 31
0.0
  0
LINE
  5
97
330
17
100
AcDbEntity
  8
轮廓
100
AcDbLine
 10
15950.0
 20
3000.0
 30
0.0
 11
15950.0
 21
3200.0
 31
0.0
  0
LINE
  5
98
330
17
100
AcDbEntity
  8
轮廓
100
AcDbLine
 10
17850.0
 20
3000.0
 30
0.0
 11
17850.0
 21
3300.0
 31
0.0
  0
LINE
  5
99
330
17
100
AcDbEntity
  8
轮廓
100
AcDbLine
 10
17850.0
 20
3300.0
 30
0.0
 11
18650.0
 21
3300.0
 31
0.0
  0
LINE
  5
9A
330
17
100
AcDbEntity
  8
轮廓
100
AcDbLine
 10
18650.0
 20
3000.0
 30
0.0
 11
18650.0
 21
3300.0
 31
0.0
  0
LINE
  5
9B
330
17
100
AcDbEntity
  8
轮廓
100
AcDbLine
 10
15650.0
 20
10000.0
 30
0.0
 11
15650.0
 21
10200.0
 31
0.0
  0
LINE
  5
9C
330
17
100
AcDbEntity
  8
轮廓
100
AcDbLine
 10
15650.0
 20
10200.0
 30
0.0
 11
15950.0
 21
10200.0
 31
0.0
  0
LINE
  5
9D
330
17
100
AcDbEntity
  8
轮廓
100
AcDbLine
 10
15950.0
 20
10000.0
 30
0.0
 11
15950.0
 21
10200.0
 31
0.0
  0
LINE
  5
9E
330
17
100
AcDbEntity
  8
轮廓
100
AcDbLine
 10
17850.0
 20
10000.0
 30
0.0
 11
17850.0
 21
10300.0
 31
0.0
  0
LINE
  5
9F
330
17
100
AcDbEntity
  8
轮廓
100
AcDbLine
 10
17850.0
 20
10300.0
 30
0.0
 11
18650.0
 21
10300.0
 31
0.0
  0
LINE
  5
A0
330
17
100
AcDbEntity
  8
轮廓
100
AcDbLine
 10
18650.0
 20
10000.0
 30
0.0
 11
18650.0
 21
10300.0
 31
0.0
  0
LINE
  5
A1
330
17
100
AcDbEntity
  8
轮廓
100
AcDbLine
 10
29000.0
 20
-10000.0
 30
0.0
 11
44500.0
 21
-10000.0
 31
0.0
  0
LINE
  5
A2
330
17
100
AcDbEntity
  8
轮廓
100
AcDbLine
 10
44500.0
 20
-10000.0
 30
0.0
 11
44500.0
 21
10000.0
 31
0.0
  0
LINE
  5
A3
330
17
100
AcDbEntity
  8
轮廓
100
AcDbLine
 10
44500.0
 20
10000.0
 30
0.0
 11
29000.0
 21
10000.0
 31
0.0
  0
LINE
  5
A4
330
17
100
AcDbEntity
  8
轮廓
100
AcDbLine
 10
29000.0
 20
10000.0
 30
0.0
 11
29000.0
 21
-10000.0
 31
0.0
  0
LINE
  5
A5
330
17
100
AcDbEntity
  8
轮廓
100
AcDbLine
 10
44500.0
 20
-10000.0
 30
0.0
 11
44500.0
 21
10000.0
 31
0.0
  0
LINE
  5
A6
330
17
100
AcDbEntity
  8
轮廓
100
AcDbLine
 10
44500.0
 20
-11200.0
 30
0.0
 11
54500.0
 21
-11200.0
 31
0.0
  0
LINE
  5
A7
330
17
100
AcDbEntity
  8
轮廓
100
AcDbLine
 10
54500.0
 20
-11200.0
 30
0.0
 11
54500.0
 21
11200.0
 31
0.0
  0
LINE
  5
A8
330
17
100
AcDbEntity
  8
轮廓
100
AcDbLine
 10
54500.0
 20
11200.0
 30
0.0
 11
44500.0
 21
11200.0
 31
0.0
  0
LINE
  5
A9
330
17
100
AcDbEntity
  8
轮廓
100
AcDbLine
 10
44500.0
 20
11200.0
 30
0.0
 11
44500.0
 21
-11200.0
 31
0.0
  0
LINE
  5
AA
330
17
100
AcDbEntity
  8
轮廓
100
AcDbLine
 10
54500.0
 20
11200.0
 30
0.0
 11
74500.0
 21
10000.0
 31
0.0
  0
LINE
  5
AB
330
17
100
AcDbEntity
  8
轮廓
100
AcDbLine
 10
54500.0
 20
-11200.0
 30
0.0
 11
74500.0
 21
-10000.0
 31
0.0
  0
LINE
  5
AC
330
17
100
AcDbEntity
  8
轮廓
100
AcDbLine
 10
74500.0
 20
-10000.0
 30
0.0
 11
90900.0
 21
-10000.0
 31
0.0
  0
LINE
  5
AD
330
17
100
AcDbEntity
  8
轮廓
100
AcDbLine
 10
90900.0
 20
-10000.0
 30
0.0
 11
90900.0
 21
10000.0
 31
0.0
  0
LINE
  5
AE
330
17
100
AcDbEntity
  8
轮廓
100
AcDbLine
 10
90900.0
 20
10000.0
 30
0.0
 11
74500.0
 21
10000.0
 31
0.0
  0
LINE
  5
AF
330
17
100
AcDbEntity
  8
轮廓
100
AcDbLine
 10
74500.0
 20
10000.0
 30
0.0
 11
74500.0
 21
-10000.0
 31
0.0
  0
LINE
  5
B0
330
17
100
AcDbEntity
  8
轮廓
  6
DASHED
100
AcDbLine
 10
44000.0
 20
-10000.0
 30
0.0
 11
44000.0
 21
10000.0
 31
0.0
  0
LINE
  5
B1
330
17
100
AcDbEntity
  8
轮廓
  6
DASHED
100
AcDbLine
 10
80200.0
 20
-7000.0
 30
0.0
 11
80200.0
 21
7000.0
 31
0.0
  0
LINE
  5
B2
330
17
100
AcDbEntity
  8
轮廓
  6
DASHED
100
AcDbLine
 10
85200.0
 20
-7000.0
 30
0.0
 11
85200.0
 21
7000.0
 31
0.0
  0
LINE
  5
B3
330
17
100
AcDbEntity
  8
轮廓
  6
DASHED
100
AcDbLine
 10
80200.0
 20
7000.0
 30
0.0
 11
85200.0
 21
7000.0
 31
0.0
  0
LINE
  5
B4
330
17
100
AcDbEntity
  8
轮廓
  6
DASHED
100
AcDbLine
 10
80200.0
 20
-7000.0
 30
0.0
 11
85200.0
 21
-7000.0
 31
0.0
  0
LINE
  5
B5
330
17
100
AcDbEntity
  8
轮廓
  6
DASHED
100
AcDbLine
 10
80200.0
 20
7000.0
 30
0.0
 11
74500.0
 21
10000.0
 31
0.0
  0
LINE
  5
B6
330
17
100
AcDbEntity
  8
轮廓
  6
DASHED
100
AcDbLine
 10
85200.0
 20
7000.0
 30
0.0
 11
90900.0
 21
10000.0
 31
0.0
  0
LINE
  5
B7
330
17
100
AcDbEntity
  8
轮廓
  6
DASHED
100
AcDbLine
 10
80200.0
 20
-7000.0
 30
0.0
 11
74500.0
 21
-10000.0
 31
0.0
  0
LINE
  5
B8
330
17
100
AcDbEntity
  8
轮廓
  6
DASHED
100
AcDbLine
 10
85200.0
 20
-7000.0
 30
0.0
 11
90900.0
 21
-10000.0
 31
0.0
  0
LINE
  5
B9
330
17
100
AcDbEntity
  8
轮廓
100
AcDbLine
 10
0.0
 20
-13800.000000000011
 30
0.0
 11
5000.0
 21
-13800.000000000011
 31
0.0
  0
LINE
  5
BA
330
17
100
AcDbEntity
  8
轮廓
100
AcDbLine
 10
0.0
 20
-22300.00000000001
 30
0.0
 11
5000.0
 21
-22300.00000000001
 31
0.0
  0
LINE
  5
BB
330
17
100
AcDbEntity
  8
轮廓
100
AcDbLine
 10
15000.0
 20
-13800.000000000011
 30
0.0
 11
29000.0
 21
-13800.000000000011
 31
0.0
  0
LINE
  5
BC
330
17
100
AcDbEntity
  8
轮廓
100
AcDbLine
 10
15000.0
 20
-22300.00000000001
 30
0.0
 11
29000.0
 21
-22300.00000000001
 31
0.0
  0
LINE
  5
BD
330
17
100
AcDbEntity
  8
轮廓
100
AcDbLine
 10
39000.0
 20
-13800.000000000011
 30
0.0
 11
90900.0
 21
-13800.000000000011
 31
0.0
  0
LINE
  5
BE
330
17
100
AcDbEntity
  8
轮廓
100
AcDbLine
 10
39000.0
 20
-22300.00000000001
 30
0.0
 11
90900.0
 21
-22300.00000000001
 31
0.0
  0
LINE
  5
BF
330
17
100
AcDbEntity
  8
轮廓
100
AcDbLine
 10
0.0
 20
-29900.000000000007
 30
0.0
 11
90900.0
 21
-29900.000000000007
 31
0.0
  0
LINE
  5
C0
330
17
100
AcDbEntity
  8
轮廓
100
AcDbLine
 10
0.0
 20
-30900.000000000007
 30
0.0
 11
90900.0
 21
-30900.000000000007
 31
0.0
  0
LINE
  5
C1
330
17
100
AcDbEntity
  8
轮廓
100
AcDbLine
 10
0.0
 20
-29900.000000000007
 30
0.0
 11
0.0
 21
-30900.000000000007
 31
0.0
  0
LINE
  5
C2
330
17
100
AcDbEntity
  8
轮廓
100
AcDbLine
 10
90900.0
 20
-29900.000000000007
 30
0.0
 11
90900.0
 21
-30900.000000000007
 31
0.0
  0
LINE
  5
C3
330
17
100
AcDbEntity
  8
轮廓
100
AcDbLine
 10
0.0
 20
13800.000000000011
 30
0.0
 11
5000.0
 21
13800.000000000011
 31
0.0
  0
LINE
  5
C4
330
17
100
AcDbEntity
  8
轮廓
100
AcDbLine
 10
0.0
 20
22300.00000000001
 30
0.0
 11
5000.0
 21
22300.00000000001
 31
0.0
  0
LINE
  5
C5
330
17
100
AcDbEntity
  8
轮廓
100
AcDbLine
 10
15000.0
 20
13800.000000000011
 30
0.0
 11
29000.0
 21
13800.000000000011
 31
0.0
  0
LINE
  5
C6
330
17
100
AcDbEntity
  8
轮廓
100
AcDbLine
 10
15000.0
 20
22300.00000000001
 30
0.0
 11
29000.0
 21
22300.00000000001
 31
0.0
  0
LINE
  5
C7
330
17
100
AcDbEntity
  8
轮廓
100
AcDbLine
 10
39000.0
 20
13800.000000000011
 30
0.0
 11
90900.0
 21
13800.000000000011
 31
0.0
  0
LINE
  5
C8
330
17
100
AcDbEntity
  8
轮廓
100
AcDbLine
 10
39000.0
 20
22300.00000000001
 30
0.0
 11
90900.0
 21
22300.00000000001
 31
0.0
  0
LINE
  5
C9
330
17
100
AcDbEntity
  8
轮廓
100
AcDbLine
 10
0.0
 20
29900.000000000007
 30
0.0
 11
90900.0
 21
29900.000000000007
 31
0.0
  0
LINE
  5
CA
330
17
100
AcDbEntity
  8
轮廓
100
AcDbLine
 10
0.0
 20
30900.000000000007
 30
0.0
 11
90900.0
 21
30900.000000000007
 31
0.0
  0
LINE
  5
CB
330
17
100
AcDbEntity
  8
轮廓
100
AcDbLine
 10
0.0
 20
29900.000000000007
 30
0.0
 11
0.0
 21
30900.000000000007
 31
0.0
  0
LINE
  5
CC
330
17
100
AcDbEntity
  8
轮廓
100
AcDbLine
 10
90900.0
 20
29900.000000000007
 30
0.0
 11
90900.0
 21
30900.000000000007
 31
0.0
  0
LINE
  5
CD
330
17
100
AcDbEntity
  8
轮廓
100
AcDbLine
 10
0.0
 20
30900.000000000007
 30
0.0
 11
0.0
 21
-30900.000000000007
 31
0.0
  0
LINE
  5
CE
330
17
100
AcDbEntity
  8
轮廓
100
AcDbLine
 10
90900.0
 20
30900.000000000007
 30
0.0
 11
90900.0
 21
-30900.000000000007
 31
0.0
  0
LINE
  5
CF
330
17
100
AcDbEntity
  8
高程标注
100
AcDbLine
 10
6350.0
 20
6145.0
 30
0.0
 11
8650.0
 21
6145.0
 31
0.0
  0
LINE
  5
D0
330
17
100
AcDbEntity
  8
高程标注
100
AcDbLine
 10
8650.0
 20
6145.0
 30
0.0
 11
8650.0
 21
6855.0
 31
0.0
  0
LINE
  5
D1
330
17
100
AcDbEntity
  8
高程标注
100
AcDbLine
 10
8650.0
 20
6855.0
 30
0.0
 11
6350.0
 21
6855.0
 31
0.0
  0
LINE
  5
D2
330
17
100
AcDbEntity
  8
高程标注
100
AcDbLine
 10
6350.0
 20
6855.0
 30
0.0
 11
6350.0
 21
6145.0
 31
0.0
  0
TEXT
  5
D3
330
17
100
AcDbEntity
  8
高程标注
100
AcDbText
 10
7500.0
 20
6500.0
 30
0.0
 40
550.0
  1
73.10
  7
CN
 72
1
 11
7500.0
 21
6500.0
 31
0.0
100
AcDbText
 73
2
  0
LINE
  5
D4
330
17
100
AcDbEntity
  8
高程标注
100
AcDbLine
 10
6350.0
 20
-355.0
 30
0.0
 11
8650.0
 21
-355.0
 31
0.0
  0
LINE
  5
D5
330
17
100
AcDbEntity
  8
高程标注
100
AcDbLine
 10
8650.0
 20
-355.0
 30
0.0
 11
8650.0
 21
355.0
 31
0.0
  0
LINE
  5
D6
330
17
100
AcDbEntity
  8
高程标注
100
AcDbLine
 10
8650.0
 20
355.0
 30
0.0
 11
6350.0
 21
355.0
 31
0.0
  0
LINE
  5
D7
330
17
100
AcDbEntity
  8
高程标注
100
AcDbLine
 10
6350.0
 20
355.0
 30
0.0
 11
6350.0
 21
-355.0
 31
0.0
  0
TEXT
  5
D8
330
17
100
AcDbEntity
  8
高程标注
100
AcDbText
 10
7500.0
 20
0.0
 30
0.0
 40
550.0
  1
73.10
  7
CN
 72
1
 11
7500.0
 21
0.0
 31
0.0
100
AcDbText
 73
2
  0
LINE
  5
D9
330
17
100
AcDbEntity
  8
高程标注
100
AcDbLine
 10
6350.0
 20
-6855.0
 30
0.0
 11
8650.0
 21
-6855.0
 31
0.0
  0
LINE
  5
DA
330
17
100
AcDbEntity
  8
高程标注
100
AcDbLine
 10
8650.0
 20
-6855.0
 30
0.0
 11
8650.0
 21
-6145.0
 31
0.0
  0
LINE
  5
DB
330
17
100
AcDbEntity
  8
高程标注
100
AcDbLine
 10
8650.0
 20
-6145.0
 30
0.0
 11
6350.0
 21
-6145.0
 31
0.0
  0
LINE
  5
DC
330
17
100
AcDbEntity
  8
高程标注
100
AcDbLine
 10
6350.0
 20
-6145.0
 30
0.0
 11
6350.0
 21
-6855.0
 31
0.0
  0
TEXT
  5
DD
330
17
100
AcDbEntity
  8
高程标注
100
AcDbText
 10
7500.0
 20
-6500.0
 30
0.0
 40
550.0
  1
73.10
  7
CN
 72
1
 11
7500.0
 21
-6500.0
 31
0.0
100
AcDbText
 73
2
  0
LINE
  5
DE
330
17
100
AcDbEntity
  8
高程标注
100
AcDbLine
 10
20850.0
 20
6645.0
 30
0.0
 11
23150.0
 21
6645.0
 31
0.0
  0
LINE
  5
DF
330
17
100
AcDbEntity
  8
高程标注
100
AcDbLine
 10
23150.0
 20
6645.0
 30
0.0
 11
23150.0
 21
7355.0
 31
0.0
  0
LINE
  5
E0
330
17
100
AcDbEntity
  8
高程标注
100
AcDbLine
 10
23150.0
 20
7355.0
 30
0.0
 11
20850.0
 21
7355.0
 31
0.0
  0
LINE
  5
E1
330
17
100
AcDbEntity
  8
高程标注
100
AcDbLine
 10
20850.0
 20
7355.0
 30
0.0
 11
20850.0
 21
6645.0
 31
0.0
  0
TEXT
  5
E2
330
17
100
AcDbEntity
  8
高程标注
100
AcDbText
 10
22000.0
 20
7000.0
 30
0.0
 40
550.0
  1
73.10
  7
CN
 72
1
 11
22000.0
 21
7000.0
 31
0.0
100
AcDbText
 73
2
  0
LINE
  5
E3
330
17
100
AcDbEntity
  8
高程标注
100
AcDbLine
 10
20850.0
 20
-355.0
 30
0.0
 11
23150.0
 21
-355.0
 31
0.0
  0
LINE
  5
E4
330
17
100
AcDbEntity
  8
高程标注
100
AcDbLine
 10
23150.0
 20
-355.0
 30
0.0
 11
23150.0
 21
355.0
 31
0.0
  0
LINE
  5
E5
330
17
100
AcDbEntity
  8
高程标注
100
AcDbLine
 10
23150.0
 20
355.0
 30
0.0
 11
20850.0
 21
355.0
 31
0.0
  0
LINE
  5
E6
330
17
100
AcDbEntity
  8
高程标注
100
AcDbLine
 10
20850.0
 20
355.0
 30
0.0
 11
20850.0
 21
-355.0
 31
0.0
  0
TEXT
  5
E7
330
17
100
AcDbEntity
  8
高程标注
100
AcDbText
 10
22000.0
 20
0.0
 30
0.0
 40
550.0
  1
73.10
  7
CN
 72
1
 11
22000.0
 21
0.0
 31
0.0
100
AcDbText
 73
2
  0
LINE
  5
E8
330
17
100
AcDbEntity
  8
高程标注
100
AcDbLine
 10
20850.0
 20
-7355.0
 30
0.0
 11
23150.0
 21
-7355.0
 31
0.0
  0
LINE
  5
E9
330
17
100
AcDbEntity
  8
高程标注
100
AcDbLine
 10
23150.0
 20
-7355.0
 30
0.0
 11
23150.0
 21
-6645.0
 31
0.0
  0
LINE
  5
EA
330
17
100
AcDbEntity
  8
高程标注
100
AcDbLine
 10
23150.0
 20
-6645.0
 30
0.0
 11
20850.0
 21
-6645.0
 31
0.0
  0
LINE
  5
EB
330
17
100
AcDbEntity
  8
高程标注
100
AcDbLine
 10
20850.0
 20
-6645.0
 30
0.0
 11
20850.0
 21
-7355.0
 31
0.0
  0
TEXT
  5
EC
330
17
100
AcDbEntity
  8
高程标注
100
AcDbText
 10
22000.0
 20
-7000.0
 30
0.0
 40
550.0
  1
73.10
  7
CN
 72
1
 11
22000.0
 21
-7000.0
 31
0.0
100
AcDbText
 73
2
  0
LINE
  5
ED
330
17
100
AcDbEntity
  8
高程标注
100
AcDbLine
 10
35600.0
 20
6145.0
 30
0.0
 11
37900.0
 21
6145.0
 31
0.0
  0
LINE
  5
EE
330
17
100
AcDbEntity
  8
高程标注
100
AcDbLine
 10
37900.0
 20
6145.0
 30
0.0
 11
37900.0
 21
6855.0
 31
0.0
  0
LINE
  5
EF
330
17
100
AcDbEntity
  8
高程标注
100
AcDbLine
 10
37900.0
 20
6855.0
 30
0.0
 11
35600.0
 21
6855.0
 31
0.0
  0
LINE
  5
F0
330
17
100
AcDbEntity
  8
高程标注
100
AcDbLine
 10
35600.0
 20
6855.0
 30
0.0
 11
35600.0
 21
6145.0
 31
0.0
  0
TEXT
  5
F1
330
17
100
AcDbEntity
  8
高程标注
100
AcDbText
 10
36750.0
 20
6500.0
 30
0.0
 40
550.0
  1
73.10
  7
CN
 72
1
 11
36750.0
 21
6500.0
 31
0.0
100
AcDbText
 73
2
  0
LINE
  5
F2
330
17
100
AcDbEntity
  8
高程标注
100
AcDbLine
 10
35600.0
 20
-355.0
 30
0.0
 11
37900.0
 21
-355.0
 31
0.0
  0
LINE
  5
F3
330
17
100
AcDbEntity
  8
高程标注
100
AcDbLine
 10
37900.0
 20
-355.0
 30
0.0
 11
37900.0
 21
355.0
 31
0.0
  0
LINE
  5
F4
330
17
100
AcDbEntity
  8
高程标注
100
AcDbLine
 10
37900.0
 20
355.0
 30
0.0
 11
35600.0
 21
355.0
 31
0.0
  0
LINE
  5
F5
330
17
100
AcDbEntity
  8
高程标注
100
AcDbLine
 10
35600.0
 20
355.0
 30
0.0
 11
35600.0
 21
-355.0
 31
0.0
  0
TEXT
  5
F6
330
17
100
AcDbEntity
  8
高程标注
100
AcDbText
 10
36750.0
 20
0.0
 30
0.0
 40
550.0
  1
73.10
  7
CN
 72
1
 11
36750.0
 21
0.0
 31
0.0
100
AcDbText
 73
2
  0
LINE
  5
F7
330
17
100
AcDbEntity
  8
高程标注
100
AcDbLine
 10
35600.0
 20
-6855.0
 30
0.0
 11
37900.0
 21
-6855.0
 31
0.0
  0
LINE
  5
F8
330
17
100
AcDbEntity
  8
高程标注
100
AcDbLine
 10
37900.0
 20
-6855.0
 30
0.0
 11
37900.0
 21
-6145.0
 31
0.0
  0
LINE
  5
F9
330
17
100
AcDbEntity
  8
高程标注
100
AcDbLine
 10
37900.0
 20
-6145.0
 30
0.0
 11
35600.0
 21
-6145.0
 31
0.0
  0
LINE
  5
FA
330
17
100
AcDbEntity
  8
高程标注
100
AcDbLine
 10
35600.0
 20
-6145.0
 30
0.0
 11
35600.0
 21
-6855.0
 31
0.0
  0
TEXT
  5
FB
330
17
100
AcDbEntity
  8
高程标注
100
AcDbText
 10
36750.0
 20
-6500.0
 30
0.0
 40
550.0
  1
73.10
  7
CN
 72
1
 11
36750.0
 21
-6500.0
 31
0.0
100
AcDbText
 73
2
  0
LINE
  5
FC
330
17
100
AcDbEntity
  8
高程标注
100
AcDbLine
 10
48350.0
 20
6645.0
 30
0.0
 11
50650.0
 21
6645.0
 31
0.0
  0
LINE
  5
FD
330
17
100
AcDbEntity
  8
高程标注
100
AcDbLine
 10
50650.0
 20
6645.0
 30
0.0
 11
50650.0
 21
7355.0
 31
0.0
  0
LINE
  5
FE
330
17
100
AcDbEntity
  8
高程标注
100
AcDbLine
 10
50650.0
 20
7355.0
 30
0.0
 11
48350.0
 21
7355.0
 31
0.0
  0
LINE
  5
FF
330
17
100
AcDbEntity
  8
高程标注
100
AcDbLine
 10
48350.0
 20
7355.0
 30
0.0
 11
48350.0
 21
6645.0
 31
0.0
  0
TEXT
  5
100
330
17
100
AcDbEntity
  8
高程标注
100
AcDbText
 10
49500.0
 20
7000.0
 30
0.0
 40
550.0
  1
73.60
  7
CN
 72
1
 11
49500.0
 21
7000.0
 31
0.0
100
AcDbText
 73
2
  0
LINE
  5
101
330
17
100
AcDbEntity
  8
高程标注
100
AcDbLine
 10
48350.0
 20
-355.0
 30
0.0
 11
50650.0
 21
-355.0
 31
0.0
  0
LINE
  5
102
330
17
100
AcDbEntity
  8
高程标注
100
AcDbLine
 10
50650.0
 20
-355.0
 30
0.0
 11
50650.0
 21
355.0
 31
0.0
  0
LINE
  5
103
330
17
100
AcDbEntity
  8
高程标注
100
AcDbLine
 10
50650.0
 20
355.0
 30
0.0
 11
48350.0
 21
355.0
 31
0.0
  0
LINE
  5
104
330
17
100
AcDbEntity
  8
高程标注
100
AcDbLine
 10
48350.0
 20
355.0
 30
0.0
 11
48350.0
 21
-355.0
 31
0.0
  0
TEXT
  5
105
330
17
100
AcDbEntity
  8
高程标注
100
AcDbText
 10
49500.0
 20
0.0
 30
0.0
 40
550.0
  1
73.60
  7
CN
 72
1
 11
49500.0
 21
0.0
 31
0.0
100
AcDbText
 73
2
  0
LINE
  5
106
330
17
100
AcDbEntity
  8
高程标注
100
AcDbLine
 10
48350.0
 20
-7355.0
 30
0.0
 11
50650.0
 21
-7355.0
 31
0.0
  0
LINE
  5
107
330
17
100
AcDbEntity
  8
高程标注
100
AcDbLine
 10
50650.0
 20
-7355.0
 30
0.0
 11
50650.0
 21
-6645.0
 31
0.0
  0
LINE
  5
108
330
17
100
AcDbEntity
  8
高程标注
100
AcDbLine
 10
50650.0
 20
-6645.0
 30
0.0
 11
48350.0
 21
-6645.0
 31
0.0
  0
LINE
  5
109
330
17
100
AcDbEntity
  8
高程标注
100
AcDbLine
 10
48350.0
 20
-6645.0
 30
0.0
 11
48350.0
 21
-7355.0
 31
0.0
  0
TEXT
  5
10A
330
17
100
AcDbEntity
  8
高程标注
100
AcDbText
 10
49500.0
 20
-7000.0
 30
0.0
 40
550.0
  1
73.60
  7
CN
 72
1
 11
49500.0
 21
-7000.0
 31
0.0
100
AcDbText
 73
2
  0
LINE
  5
10B
330
17
100
AcDbEntity
  8
高程标注
100
AcDbLine
 10
81550.0
 20
-355.0
 30
0.0
 11
83850.0
 21
-355.0
 31
0.0
  0
LINE
  5
10C
330
17
100
AcDbEntity
  8
高程标注
100
AcDbLine
 10
83850.0
 20
-355.0
 30
0.0
 11
83850.0
 21
355.0
 31
0.0
  0
LINE
  5
10D
330
17
100
AcDbEntity
  8
高程标注
100
AcDbLine
 10
83850.0
 20
355.0
 30
0.0
 11
81550.0
 21
355.0
 31
0.0
  0
LINE
  5
10E
330
17
100
AcDbEntity
  8
高程标注
100
AcDbLine
 10
81550.0
 20
355.0
 30
0.0
 11
81550.0
 21
-355.0
 31
0.0
  0
TEXT
  5
10F
330
17
100
AcDbEntity
  8
高程标注
100
AcDbText
 10
82700.0
 20
0.0
 30
0.0
 40
550.0
  1
69.75
  7
CN
 72
1
 11
82700.0
 21
0.0
 31
0.0
100
AcDbText
 73
2
  0
LINE
  5
110
330
17
100
AcDbEntity
  8
高程标注
100
AcDbLine
 10
43850.0
 20
17695.00000000001
 30
0.0
 11
46150.0
 21
17695.00000000001
 31
0.0
  0
LINE
  5
111
330
17
100
AcDbEntity
  8
高程标注
100
AcDbLine
 10
46150.0
 20
17695.00000000001
 30
0.0
 11
46150.0
 21
18405.00000000001
 31
0.0
  0
LINE
  5
112
330
17
100
AcDbEntity
  8
高程标注
100
AcDbLine
 10
46150.0
 20
18405.00000000001
 30
0.0
 11
43850.0
 21
18405.00000000001
 31
0.0
  0
LINE
  5
113
330
17
100
AcDbEntity
  8
高程标注
100
AcDbLine
 10
43850.0
 20
18405.00000000001
 30
0.0
 11
43850.0
 21
17695.00000000001
 31
0.0
  0
TEXT
  5
114
330
17
100
AcDbEntity
  8
高程标注
100
AcDbText
 10
45000.0
 20
18050.00000000001
 30
0.0
 40
550.0
  1
75.00
  7
CN
 72
1
 11
45000.0
 21
18050.00000000001
 31
0.0
100
AcDbText
 73
2
  0
LINE
  5
115
330
17
100
AcDbEntity
  8
高程标注
100
AcDbLine
 10
43850.0
 20
-18405.00000000001
 30
0.0
 11
46150.0
 21
-18405.00000000001
 31
0.0
  0
LINE
  5
116
330
17
100
AcDbEntity
  8
高程标注
100
AcDbLine
 10
46150.0
 20
-18405.00000000001
 30
0.0
 11
46150.0
 21
-17695.00000000001
 31
0.0
  0
LINE
  5
117
330
17
100
AcDbEntity
  8
高程标注
100
AcDbLine
 10
46150.0
 20
-17695.00000000001
 30
0.0
 11
43850.0
 21
-17695.00000000001
 31
0.0
  0
LINE
  5
118
330
17
100
AcDbEntity
  8
高程标注
100
AcDbLine
 10
43850.0
 20
-17695.00000000001
 30
0.0
 11
43850.0
 21
-18405.00000000001
 31
0.0
  0
TEXT
  5
119
330
17
100
AcDbEntity
  8
高程标注
100
AcDbText
 10
45000.0
 20
-18050.00000000001
 30
0.0
 40
550.0
  1
75.00
  7
CN
 72
1
 11
45000.0
 21
-18050.00000000001
 31
0.0
100
AcDbText
 73
2
  0
LINE
  5
11A
330
17
100
AcDbEntity
  8
高程标注
100
AcDbLine
 10
43850.0
 20
30045.000000000007
 30
0.0
 11
46150.0
 21
30045.000000000007
 31
0.0
  0
LINE
  5
11B
330
17
100
AcDbEntity
  8
高程标注
100
AcDbLine
 10
46150.0
 20
30045.000000000007
 30
0.0
 11
46150.0
 21
30755.000000000007
 31
0.0
  0
LINE
  5
11C
330
17
100
AcDbEntity
  8
高程标注
100
AcDbLine
 10
46150.0
 20
30755.000000000007
 30
0.0
 11
43850.0
 21
30755.000000000007
 31
0.0
  0
LINE
  5
11D
330
17
100
AcDbEntity
  8
高程标注
100
AcDbLine
 10
43850.0
 20
30755.000000000007
 30
0.0
 11
43850.0
 21
30045.000000000007
 31
0.0
  0
TEXT
  5
11E
330
17
100
AcDbEntity
  8
高程标注
100
AcDbText
 10
45000.0
 20
30400.000000000007
 30
0.0
 40
550.0
  1
78.80
  7
CN
 72
1
 11
45000.0
 21
30400.000000000007
 31
0.0
100
AcDbText
 73
2
  0
LINE
  5
11F
330
17
100
AcDbEntity
  8
高程标注
100
AcDbLine
 10
43850.0
 20
-30755.000000000007
 30
0.0
 11
46150.0
 21
-30755.000000000007
 31
0.0
  0
LINE
  5
120
330
17
100
AcDbEntity
  8
高程标注
100
AcDbLine
 10
46150.0
 20
-30755.000000000007
 30
0.0
 11
46150.0
 21
-30045.000000000007
 31
0.0
  0
LINE
  5
121
330
17
100
AcDbEntity
  8
高程标注
100
AcDbLine
 10
46150.0
 20
-30045.000000000007
 30
0.0
 11
43850.0
 21
-30045.000000000007
 31
0.0
  0
LINE
  5
122
330
17
100
AcDbEntity
  8
高程标注
100
AcDbLine
 10
43850.0
 20
-30045.000000000007
 30
0.0
 11
43850.0
 21
-30755.000000000007
 31
0.0
  0
TEXT
  5
123
330
17
100
AcDbEntity
  8
高程标注
100
AcDbText
 10
45000.0
 20
-30400.000000000007
 30
0.0
 40
550.0
  1
78.80
  7
CN
 72
1
 11
45000.0
 21
-30400.000000000007
 31
0.0
100
AcDbText
 73
2
  0
LINE
  5
124
330
17
100
AcDbEntity
  8
示坡线
100
AcDbLine
 10
54500.0
 20
2500.0
 30
0.0
 11
56123.21428571428
 21
2500.0
 31
0.0
  0
LINE
  5
125
330
17
100
AcDbEntity
  8
示坡线
100
AcDbLine
 10
54500.0
 20
2246.7785714285715
 30
0.0
 11
55409.0
 21
2246.7785714285715
 31
0.0
  0
LINE
  5
126
330
17
100
AcDbEntity
  8
示坡线
100
AcDbLine
 10
54500.0
 20
1993.557142857143
 30
0.0
 11
56123.21428571428
 21
1993.557142857143
 31
0.0
  0
LINE
  5
127
330
17
100
AcDbEntity
  8
示坡线
100
AcDbLine
 10
54500.0
 20
1740.3357142857142
 30
0.0
 11
55409.0
 21
1740.3357142857142
 31
0.0
  0
LINE
  5
128
330
17
100
AcDbEntity
  8
示坡线
100
AcDbLine
 10
54500.0
 20
1487.1142857142856
 30
0.0
 11
56123.21428571428
 21
1487.1142857142856
 31
0.0
  0
TEXT
  5
129
330
17
100
AcDbEntity
  8
示坡线
100
AcDbText
 10
55409.0
 20
2856.470588235294
 30
0.0
 40
401.02941176470586
  1
1:20
  7
CN
 72
1
 11
55409.0
 21
2856.470588235294
 31
0.0
100
AcDbText
 73
2
  0
LINE
  5
12A
330
17
100
AcDbEntity
  8
示坡线
100
AcDbLine
 10
54500.0
 20
-2500.0
 30
0.0
 11
56123.21428571428
 21
-2500.0
 31
0.0
  0
LINE
  5
12B
330
17
100
AcDbEntity
  8
示坡线
100
AcDbLine
 10
54500.0
 20
-2753.2214285714285
 30
0.0
 11
55409.0
 21
-2753.2214285714285
 31
0.0
  0
LINE
  5
12C
330
17
100
AcDbEntity
  8
示坡线
100
AcDbLine
 10
54500.0
 20
-3006.442857142857
 30
0.0
 11
56123.21428571428
 21
-3006.442857142857
 31
0.0
  0
LINE
  5
12D
330
17
100
AcDbEntity
  8
示坡线
100
AcDbLine
 10
54500.0
 20
-3259.664285714286
 30
0.0
 11
55409.0
 21
-3259.664285714286
 31
0.0
  0
LINE
  5
12E
330
17
100
AcDbEntity
  8
示坡线
100
AcDbLine
 10
54500.0
 20
-3512.885714285714
 30
0.0
 11
56123.21428571428
 21
-3512.885714285714
 31
0.0
  0
TEXT
  5
12F
330
17
100
AcDbEntity
  8
示坡线
100
AcDbText
 10
55409.0
 20
-2143.529411764706
 30
0.0
 40
401.02941176470586
  1
1:20
  7
CN
 72
1
 11
55409.0
 21
-2143.529411764706
 31
0.0
100
AcDbText
 73
2
  0
LINE
  5
130
330
17
100
AcDbEntity
  8
示坡线
100
AcDbLine
 10
26555.785714285714
 20
13800.000000000011
 30
0.0
 11
26555.785714285714
 21
12176.785714285725
 31
0.0
  0
LINE
  5
131
330
17
100
AcDbEntity
  8
示坡线
100
AcDbLine
 10
26912.892857142855
 20
13800.000000000011
 30
0.0
 11
26912.892857142855
 21
12988.392857142868
 31
0.0
  0
LINE
  5
132
330
17
100
AcDbEntity
  8
示坡线
100
AcDbLine
 10
27270.0
 20
13800.000000000011
 30
0.0
 11
27270.0
 21
12176.785714285725
 31
0.0
  0
LINE
  5
133
330
17
100
AcDbEntity
  8
示坡线
100
AcDbLine
 10
27627.10714285714
 20
13800.000000000011
 30
0.0
 11
27627.10714285714
 21
12988.392857142868
 31
0.0
  0
LINE
  5
134
330
17
100
AcDbEntity
  8
示坡线
100
AcDbLine
 10
27984.214285714286
 20
13800.000000000011
 30
0.0
 11
27984.214285714286
 21
12176.785714285725
 31
0.0
  0
LINE
  5
135
330
17
100
AcDbEntity
  8
示坡线
100
AcDbLine
 10
26555.785714285714
 20
-13800.000000000011
 30
0.0
 11
26555.785714285714
 21
-12176.785714285725
 31
0.0
  0
LINE
  5
136
330
17
100
AcDbEntity
  8
示坡线
100
AcDbLine
 10
26912.892857142855
 20
-13800.000000000011
 30
0.0
 11
26912.892857142855
 21
-12988.392857142868
 31
0.0
  0
LINE
  5
137
330
17
100
AcDbEntity
  8
示坡线
100
AcDbLine
 10
27270.0
 20
-13800.000000000011
 30
0.0
 11
27270.0
 21
-12176.785714285725
 31
0.0
  0
LINE
  5
138
330
17
100
AcDbEntity
  8
示坡线
100
AcDbLine
 10
27627.10714285714
 20
-13800.000000000011
 30
0.0
 11
27627.10714285714
 21
-12988.392857142868
 31
0.0
  0
LINE
  5
139
330
17
100
AcDbEntity
  8
示坡线
100
AcDbLine
 10
27984.214285714286
 20
-13800.000000000011
 30
0.0
 11
27984.214285714286
 21
-12176.785714285725
 31
0.0
  0
TEXT
  5
13A
330
17
100
AcDbEntity
  8
示坡线
100
AcDbText
 10
28487.410714285714
 20
12988.392857142868
 30
0.0
 40
401.02941176470586
  1
1:2
  7
CN
 72
1
 11
28487.410714285714
 21
12988.392857142868
 31
0.0
100
AcDbText
 73
2
  0
TEXT
  5
13B
330
17
100
AcDbEntity
  8
示坡线
100
AcDbText
 10
28487.410714285714
 20
-12988.392857142868
 30
0.0
 40
401.02941176470586
  1
1:2
  7
CN
 72
1
 11
28487.410714285714
 21
-12988.392857142868
 31
0.0
100
AcDbText
 73
2
  0
LINE
  5
13C
330
17
100
AcDbEntity
  8
示坡线
100
AcDbLine
 10
26555.785714285714
 20
29900.000000000007
 30
0.0
 11
26555.785714285714
 21
26653.571428571435
 31
0.0
  0
LINE
  5
13D
330
17
100
AcDbEntity
  8
示坡线
100
AcDbLine
 10
26912.892857142855
 20
29900.000000000007
 30
0.0
 11
26912.892857142855
 21
28276.78571428572
 31
0.0
  0
LINE
  5
13E
330
17
100
AcDbEntity
  8
示坡线
100
AcDbLine
 10
27270.0
 20
29900.000000000007
 30
0.0
 11
27270.0
 21
26653.571428571435
 31
0.0
  0
LINE
  5
13F
330
17
100
AcDbEntity
  8
示坡线
100
AcDbLine
 10
27627.10714285714
 20
29900.000000000007
 30
0.0
 11
27627.10714285714
 21
28276.78571428572
 31
0.0
  0
LINE
  5
140
330
17
100
AcDbEntity
  8
示坡线
100
AcDbLine
 10
27984.214285714286
 20
29900.000000000007
 30
0.0
 11
27984.214285714286
 21
26653.571428571435
 31
0.0
  0
LINE
  5
141
330
17
100
AcDbEntity
  8
示坡线
100
AcDbLine
 10
26555.785714285714
 20
-29900.000000000007
 30
0.0
 11
26555.785714285714
 21
-26653.571428571435
 31
0.0
  0
LINE
  5
142
330
17
100
AcDbEntity
  8
示坡线
100
AcDbLine
 10
26912.892857142855
 20
-29900.000000000007
 30
0.0
 11
26912.892857142855
 21
-28276.78571428572
 31
0.0
  0
LINE
  5
143
330
17
100
AcDbEntity
  8
示坡线
100
AcDbLine
 10
27270.0
 20
-29900.000000000007
 30
0.0
 11
27270.0
 21
-26653.571428571435
 31
0.0
  0
LINE
  5
144
330
17
100
AcDbEntity
  8
示坡线
100
AcDbLine
 10
27627.10714285714
 20
-29900.000000000007
 30
0.0
 11
27627.10714285714
 21
-28276.78571428572
 31
0.0
  0
LINE
  5
145
330
17
100
AcDbEntity
  8
示坡线
100
AcDbLine
 10
27984.214285714286
 20
-29900.000000000007
 30
0.0
 11
27984.214285714286
 21
-26653.571428571435
 31
0.0
  0
TEXT
  5
146
330
17
100
AcDbEntity
  8
示坡线
100
AcDbText
 10
28487.410714285714
 20
28276.78571428572
 30
0.0
 40
401.02941176470586
  1
1:2
  7
CN
 72
1
 11
28487.410714285714
 21
28276.78571428572
 31
0.0
100
AcDbText
 73
2
  0
TEXT
  5
147
330
17
100
AcDbEntity
  8
示坡线
100
AcDbText
 10
28487.410714285714
 20
-28276.78571428572
 30
0.0
 40
401.02941176470586
  1
1:2
  7
CN
 72
1
 11
28487.410714285714
 21
-28276.78571428572
 31
0.0
100
AcDbText
 73
2
  0
LINE
  5
148
330
17
100
AcDbEntity
  8
示坡线
100
AcDbLine
 10
44735.78571428572
 20
13800.000000000011
 30
0.0
 11
44735.78571428572
 21
12176.785714285725
 31
0.0
  0
LINE
  5
149
330
17
100
AcDbEntity
  8
示坡线
100
AcDbLine
 10
45092.89285714286
 20
13800.000000000011
 30
0.0
 11
45092.89285714286
 21
12988.392857142868
 31
0.0
  0
LINE
  5
14A
330
17
100
AcDbEntity
  8
示坡线
100
AcDbLine
 10
45450.0
 20
13800.000000000011
 30
0.0
 11
45450.0
 21
12176.785714285725
 31
0.0
  0
LINE
  5
14B
330
17
100
AcDbEntity
  8
示坡线
100
AcDbLine
 10
45807.107142857145
 20
13800.000000000011
 30
0.0
 11
45807.107142857145
 21
12988.392857142868
 31
0.0
  0
LINE
  5
14C
330
17
100
AcDbEntity
  8
示坡线
100
AcDbLine
 10
46164.21428571429
 20
13800.000000000011
 30
0.0
 11
46164.21428571429
 21
12176.785714285725
 31
0.0
  0
LINE
  5
14D
330
17
100
AcDbEntity
  8
示坡线
100
AcDbLine
 10
44735.78571428572
 20
-13800.000000000011
 30
0.0
 11
44735.78571428572
 21
-12176.785714285725
 31
0.0
  0
LINE
  5
14E
330
17
100
AcDbEntity
  8
示坡线
100
AcDbLine
 10
45092.89285714286
 20
-13800.000000000011
 30
0.0
 11
45092.89285714286
 21
-12988.392857142868
 31
0.0
  0
LINE
  5
14F
330
17
100
AcDbEntity
  8
示坡线
100
AcDbLine
 10
45450.0
 20
-13800.000000000011
 30
0.0
 11
45450.0
 21
-12176.785714285725
 31
0.0
  0
LINE
  5
150
330
17
100
AcDbEntity
  8
示坡线
100
AcDbLine
 10
45807.107142857145
 20
-13800.000000000011
 30
0.0
 11
45807.107142857145
 21
-12988.392857142868
 31
0.0
  0
LINE
  5
151
330
17
100
AcDbEntity
  8
示坡线
100
AcDbLine
 10
46164.21428571429
 20
-13800.000000000011
 30
0.0
 11
46164.21428571429
 21
-12176.785714285725
 31
0.0
  0
TEXT
  5
152
330
17
100
AcDbEntity
  8
示坡线
100
AcDbText
 10
46667.41071428572
 20
12988.392857142868
 30
0.0
 40
401.02941176470586
  1
1:2
  7
CN
 72
1
 11
46667.41071428572
 21
12988.392857142868
 31
0.0
100
AcDbText
 73
2
  0
TEXT
  5
153
330
17
100
AcDbEntity
  8
示坡线
100
AcDbText
 10
46667.41071428572
 20
-12988.392857142868
 30
0.0
 40
401.02941176470586
  1
1:2
  7
CN
 72
1
 11
46667.41071428572
 21
-12988.392857142868
 31
0.0
100
AcDbText
 73
2
  0
LINE
  5
154
330
17
100
AcDbEntity
  8
示坡线
100
AcDbLine
 10
44735.78571428572
 20
29900.000000000007
 30
0.0
 11
44735.78571428572
 21
26653.571428571435
 31
0.0
  0
LINE
  5
155
330
17
100
AcDbEntity
  8
示坡线
100
AcDbLine
 10
45092.89285714286
 20
29900.000000000007
 30
0.0
 11
45092.89285714286
 21
28276.78571428572
 31
0.0
  0
LINE
  5
156
330
17
100
AcDbEntity
  8
示坡线
100
AcDbLine
 10
45450.0
 20
29900.000000000007
 30
0.0
 11
45450.0
 21
26653.571428571435
 31
0.0
  0
LINE
  5
157
330
17
100
AcDbEntity
  8
示坡线
100
AcDbLine
 10
45807.107142857145
 20
29900.000000000007
 30
0.0
 11
45807.107142857145
 21
28276.78571428572
 31
0.0
  0
LINE
  5
158
330
17
100
AcDbEntity
  8
示坡线
100
AcDbLine
 10
46164.21428571429
 20
29900.000000000007
 30
0.0
 11
46164.21428571429
 21
26653.571428571435
 31
0.0
  0
LINE
  5
159
330
17
100
AcDbEntity
  8
示坡线
100
AcDbLine
 10
44735.78571428572
 20
-29900.000000000007
 30
0.0
 11
44735.78571428572
 21
-26653.571428571435
 31
0.0
  0
LINE
  5
15A
330
17
100
AcDbEntity
  8
示坡线
100
AcDbLine
 10
45092.89285714286
 20
-29900.000000000007
 30
0.0
 11
45092.89285714286
 21
-28276.78571428572
 31
0.0
  0
LINE
  5
15B
330
17
100
AcDbEntity
  8
示坡线
100
AcDbLine
 10
45450.0
 20
-29900.000000000007
 30
0.0
 11
45450.0
 21
-26653.571428571435
 31
0.0
  0
LINE
  5
15C
330
17
100
AcDbEntity
  8
示坡线
100
AcDbLine
 10
45807.107142857145
 20
-29900.000000000007
 30
0.0
 11
45807.107142857145
 21
-28276.78571428572
 31
0.0
  0
LINE
  5
15D
330
17
100
AcDbEntity
  8
示坡线
100
AcDbLine
 10
46164.21428571429
 20
-29900.000000000007
 30
0.0
 11
46164.21428571429
 21
-26653.571428571435
 31
0.0
  0
TEXT
  5
15E
330
17
100
AcDbEntity
  8
示坡线
100
AcDbText
 10
46667.41071428572
 20
28276.78571428572
 30
0.0
 40
401.02941176470586
  1
1:2
  7
CN
 72
1
 11
46667.41071428572
 21
28276.78571428572
 31
0.0
100
AcDbText
 73
2
  0
TEXT
  5
15F
330
17
100
AcDbEntity
  8
示坡线
100
AcDbText
 10
46667.41071428572
 20
-28276.78571428572
 30
0.0
 40
401.02941176470586
  1
1:2
  7
CN
 72
1
 11
46667.41071428572
 21
-28276.78571428572
 31
0.0
100
AcDbText
 73
2
  0
LINE
  5
160
330
17
100
AcDbEntity
  8
示坡线
100
AcDbLine
 10
62915.78571428572
 20
13800.000000000011
 30
0.0
 11
62915.78571428572
 21
12176.785714285725
 31
0.0
  0
LINE
  5
161
330
17
100
AcDbEntity
  8
示坡线
100
AcDbLine
 10
63272.89285714286
 20
13800.000000000011
 30
0.0
 11
63272.89285714286
 21
12988.392857142868
 31
0.0
  0
LINE
  5
162
330
17
100
AcDbEntity
  8
示坡线
100
AcDbLine
 10
63630.0
 20
13800.000000000011
 30
0.0
 11
63630.0
 21
12176.785714285725
 31
0.0
  0
LINE
  5
163
330
17
100
AcDbEntity
  8
示坡线
100
AcDbLine
 10
63987.107142857145
 20
13800.000000000011
 30
0.0
 11
63987.107142857145
 21
12988.392857142868
 31
0.0
  0
LINE
  5
164
330
17
100
AcDbEntity
  8
示坡线
100
AcDbLine
 10
64344.21428571429
 20
13800.000000000011
 30
0.0
 11
64344.21428571429
 21
12176.785714285725
 31
0.0
  0
LINE
  5
165
330
17
100
AcDbEntity
  8
示坡线
100
AcDbLine
 10
62915.78571428572
 20
-13800.000000000011
 30
0.0
 11
62915.78571428572
 21
-12176.785714285725
 31
0.0
  0
LINE
  5
166
330
17
100
AcDbEntity
  8
示坡线
100
AcDbLine
 10
63272.89285714286
 20
-13800.000000000011
 30
0.0
 11
63272.89285714286
 21
-12988.392857142868
 31
0.0
  0
LINE
  5
167
330
17
100
AcDbEntity
  8
示坡线
100
AcDbLine
 10
63630.0
 20
-13800.000000000011
 30
0.0
 11
63630.0
 21
-12176.785714285725
 31
0.0
  0
LINE
  5
168
330
17
100
AcDbEntity
  8
示坡线
100
AcDbLine
 10
63987.107142857145
 20
-13800.000000000011
 30
0.0
 11
63987.107142857145
 21
-12988.392857142868
 31
0.0
  0
LINE
  5
169
330
17
100
AcDbEntity
  8
示坡线
100
AcDbLine
 10
64344.21428571429
 20
-13800.000000000011
 30
0.0
 11
64344.21428571429
 21
-12176.785714285725
 31
0.0
  0
TEXT
  5
16A
330
17
100
AcDbEntity
  8
示坡线
100
AcDbText
 10
64847.41071428572
 20
12988.392857142868
 30
0.0
 40
401.02941176470586
  1
1:2
  7
CN
 72
1
 11
64847.41071428572
 21
12988.392857142868
 31
0.0
100
AcDbText
 73
2
  0
TEXT
  5
16B
330
17
100
AcDbEntity
  8
示坡线
100
AcDbText
 10
64847.41071428572
 20
-12988.392857142868
 30
0.0
 40
401.02941176470586
  1
1:2
  7
CN
 72
1
 11
64847.41071428572
 21
-12988.392857142868
 31
0.0
100
AcDbText
 73
2
  0
LINE
  5
16C
330
17
100
AcDbEntity
  8
示坡线
100
AcDbLine
 10
62915.78571428572
 20
29900.000000000007
 30
0.0
 11
62915.78571428572
 21
26653.571428571435
 31
0.0
  0
LINE
  5
16D
330
17
100
AcDbEntity
  8
示坡线
100
AcDbLine
 10
63272.89285714286
 20
29900.000000000007
 30
0.0
 11
63272.89285714286
 21
28276.78571428572
 31
0.0
  0
LINE
  5
16E
330
17
100
AcDbEntity
  8
示坡线
100
AcDbLine
 10
63630.0
 20
29900.000000000007
 30
0.0
 11
63630.0
 21
26653.571428571435
 31
0.0
  0
LINE
  5
16F
330
17
100
AcDbEntity
  8
示坡线
100
AcDbLine
 10
63987.107142857145
 20
29900.000000000007
 30
0.0
 11
63987.107142857145
 21
28276.78571428572
 31
0.0
  0
LINE
  5
170
330
17
100
AcDbEntity
  8
示坡线
100
AcDbLine
 10
64344.21428571429
 20
29900.000000000007
 30
0.0
 11
64344.21428571429
 21
26653.571428571435
 31
0.0
  0
LINE
  5
171
330
17
100
AcDbEntity
  8
示坡线
100
AcDbLine
 10
62915.78571428572
 20
-29900.000000000007
 30
0.0
 11
62915.78571428572
 21
-26653.571428571435
 31
0.0
  0
LINE
  5
172
330
17
100
AcDbEntity
  8
示坡线
100
AcDbLine
 10
63272.89285714286
 20
-29900.000000000007
 30
0.0
 11
63272.89285714286
 21
-28276.78571428572
 31
0.0
  0
LINE
  5
173
330
17
100
AcDbEntity
  8
示坡线
100
AcDbLine
 10
63630.0
 20
-29900.000000000007
 30
0.0
 11
63630.0
 21
-26653.571428571435
 31
0.0
  0
LINE
  5
174
330
17
100
AcDbEntity
  8
示坡线
100
AcDbLine
 10
63987.107142857145
 20
-29900.000000000007
 30
0.0
 11
63987.107142857145
 21
-28276.78571428572
 31
0.0
  0
LINE
  5
175
330
17
100
AcDbEntity
  8
示坡线
100
AcDbLine
 10
64344.21428571429
 20
-29900.000000000007
 30
0.0
 11
64344.21428571429
 21
-26653.571428571435
 31
0.0
  0
TEXT
  5
176
330
17
100
AcDbEntity
  8
示坡线
100
AcDbText
 10
64847.41071428572
 20
28276.78571428572
 30
0.0
 40
401.02941176470586
  1
1:2
  7
CN
 72
1
 11
64847.41071428572
 21
28276.78571428572
 31
0.0
100
AcDbText
 73
2
  0
TEXT
  5
177
330
17
100
AcDbEntity
  8
示坡线
100
AcDbText
 10
64847.41071428572
 20
-28276.78571428572
 30
0.0
 40
401.02941176470586
  1
1:2
  7
CN
 72
1
 11
64847.41071428572
 21
-28276.78571428572
 31
0.0
100
AcDbText
 73
2
  0
LINE
  5
178
330
17
100
AcDbEntity
  8
示坡线
100
AcDbLine
 10
81095.78571428571
 20
13800.000000000011
 30
0.0
 11
81095.78571428571
 21
12176.785714285725
 31
0.0
  0
LINE
  5
179
330
17
100
AcDbEntity
  8
示坡线
100
AcDbLine
 10
81452.89285714286
 20
13800.000000000011
 30
0.0
 11
81452.89285714286
 21
12988.392857142868
 31
0.0
  0
LINE
  5
17A
330
17
100
AcDbEntity
  8
示坡线
100
AcDbLine
 10
81810.0
 20
13800.000000000011
 30
0.0
 11
81810.0
 21
12176.785714285725
 31
0.0
  0
LINE
  5
17B
330
17
100
AcDbEntity
  8
示坡线
100
AcDbLine
 10
82167.10714285714
 20
13800.000000000011
 30
0.0
 11
82167.10714285714
 21
12988.392857142868
 31
0.0
  0
LINE
  5
17C
330
17
100
AcDbEntity
  8
示坡线
100
AcDbLine
 10
82524.21428571428
 20
13800.000000000011
 30
0.0
 11
82524.21428571428
 21
12176.785714285725
 31
0.0
  0
LINE
  5
17D
330
17
100
AcDbEntity
  8
示坡线
100
AcDbLine
 10
81095.78571428571
 20
-13800.000000000011
 30
0.0
 11
81095.78571428571
 21
-12176.785714285725
 31
0.0
  0
LINE
  5
17E
330
17
100
AcDbEntity
  8
示坡线
100
AcDbLine
 10
81452.89285714286
 20
-13800.000000000011
 30
0.0
 11
81452.89285714286
 21
-12988.392857142868
 31
0.0
  0
LINE
  5
17F
330
17
100
AcDbEntity
  8
示坡线
100
AcDbLine
 10
81810.0
 20
-13800.000000000011
 30
0.0
 11
81810.0
 21
-12176.785714285725
 31
0.0
  0
LINE
  5
180
330
17
100
AcDbEntity
  8
示坡线
100
AcDbLine
 10
82167.10714285714
 20
-13800.000000000011
 30
0.0
 11
82167.10714285714
 21
-12988.392857142868
 31
0.0
  0
LINE
  5
181
330
17
100
AcDbEntity
  8
示坡线
100
AcDbLine
 10
82524.21428571428
 20
-13800.000000000011
 30
0.0
 11
82524.21428571428
 21
-12176.785714285725
 31
0.0
  0
TEXT
  5
182
330
17
100
AcDbEntity
  8
示坡线
100
AcDbText
 10
83027.41071428571
 20
12988.392857142868
 30
0.0
 40
401.02941176470586
  1
1:2
  7
CN
 72
1
 11
83027.41071428571
 21
12988.392857142868
 31
0.0
100
AcDbText
 73
2
  0
TEXT
  5
183
330
17
100
AcDbEntity
  8
示坡线
100
AcDbText
 10
83027.41071428571
 20
-12988.392857142868
 30
0.0
 40
401.02941176470586
  1
1:2
  7
CN
 72
1
 11
83027.41071428571
 21
-12988.392857142868
 31
0.0
100
AcDbText
 73
2
  0
LINE
  5
184
330
17
100
AcDbEntity
  8
示坡线
100
AcDbLine
 10
81095.78571428571
 20
29900.000000000007
 30
0.0
 11
81095.78571428571
 21
26653.571428571435
 31
0.0
  0
LINE
  5
185
330
17
100
AcDbEntity
  8
示坡线
100
AcDbLine
 10
81452.89285714286
 20
29900.000000000007
 30
0.0
 11
81452.89285714286
 21
28276.78571428572
 31
0.0
  0
LINE
  5
186
330
17
100
AcDbEntity
  8
示坡线
100
AcDbLine
 10
81810.0
 20
29900.000000000007
 30
0.0
 11
81810.0
 21
26653.571428571435
 31
0.0
  0
LINE
  5
187
330
17
100
AcDbEntity
  8
示坡线
100
AcDbLine
 10
82167.10714285714
 20
29900.000000000007
 30
0.0
 11
82167.10714285714
 21
28276.78571428572
 31
0.0
  0
LINE
  5
188
330
17
100
AcDbEntity
  8
示坡线
100
AcDbLine
 10
82524.21428571428
 20
29900.000000000007
 30
0.0
 11
82524.21428571428
 21
26653.571428571435
 31
0.0
  0
LINE
  5
189
330
17
100
AcDbEntity
  8
示坡线
100
AcDbLine
 10
81095.78571428571
 20
-29900.000000000007
 30
0.0
 11
81095.78571428571
 21
-26653.571428571435
 31
0.0
  0
LINE
  5
18A
330
17
100
AcDbEntity
  8
示坡线
100
AcDbLine
 10
81452.89285714286
 20
-29900.000000000007
 30
0.0
 11
81452.89285714286
 21
-28276.78571428572
 31
0.0
  0
LINE
  5
18B
330
17
100
AcDbEntity
  8
示坡线
100
AcDbLine
 10
81810.0
 20
-29900.000000000007
 30
0.0
 11
81810.0
 21
-26653.571428571435
 31
0.0
  0
LINE
  5
18C
330
17
100
AcDbEntity
  8
示坡线
100
AcDbLine
 10
82167.10714285714
 20
-29900.000000000007
 30
0.0
 11
82167.10714285714
 21
-28276.78571428572
 31
0.0
  0
LINE
  5
18D
330
17
100
AcDbEntity
  8
示坡线
100
AcDbLine
 10
82524.21428571428
 20
-29900.000000000007
 30
0.0
 11
82524.21428571428
 21
-26653.571428571435
 31
0.0
  0
TEXT
  5
18E
330
17
100
AcDbEntity
  8
示坡线
100
AcDbText
 10
83027.41071428571
 20
28276.78571428572
 30
0.0
 40
401.02941176470586
  1
1:2
  7
CN
 72
1
 11
83027.41071428571
 21
28276.78571428572
 31
0.0
100
AcDbText
 73
2
  0
TEXT
  5
18F
330
17
100
AcDbEntity
  8
示坡线
100
AcDbText
 10
83027.41071428571
 20
-28276.78571428572
 30
0.0
 40
401.02941176470586
  1
1:2
  7
CN
 72
1
 11
83027.41071428571
 21
-28276.78571428572
 31
0.0
100
AcDbText
 73
2
  0
LINE
  5
190
330
17
100
AcDbEntity
  8
尺寸标注
100
AcDbLine
 10
0.0
 20
-33497.14285714286
 30
0.0
 11
90900.0
 21
-33497.14285714286
 31
0.0
  0
LINE
  5
191
330
17
100
AcDbEntity
  8
尺寸标注
100
AcDbLine
 10
-292.17857142857144
 20
-33789.321428571435
 30
0.0
 11
292.17857142857144
 21
-33204.96428571429
 31
0.0
  0
LINE
  5
192
330
17
100
AcDbEntity
  8
尺寸标注
100
AcDbLine
 10
14707.82142857143
 20
-33789.321428571435
 30
0.0
 11
15292.17857142857
 21
-33204.96428571429
 31
0.0
  0
LINE
  5
193
330
17
100
AcDbEntity
  8
尺寸标注
100
AcDbLine
 10
28707.821428571428
 20
-33789.321428571435
 30
0.0
 11
29292.178571428572
 21
-33204.96428571429
 31
0.0
  0
LINE
  5
194
330
17
100
AcDbEntity
  8
尺寸标注
100
AcDbLine
 10
44207.82142857143
 20
-33789.321428571435
 30
0.0
 11
44792.17857142857
 21
-33204.96428571429
 31
0.0
  0
LINE
  5
195
330
17
100
AcDbEntity
  8
尺寸标注
100
AcDbLine
 10
54207.82142857143
 20
-33789.321428571435
 30
0.0
 11
54792.17857142857
 21
-33204.96428571429
 31
0.0
  0
LINE
  5
196
330
17
100
AcDbEntity
  8
尺寸标注
100
AcDbLine
 10
74207.82142857143
 20
-33789.321428571435
 30
0.0
 11
74792.17857142857
 21
-33204.96428571429
 31
0.0
  0
LINE
  5
197
330
17
100
AcDbEntity
  8
尺寸标注
100
AcDbLine
 10
90607.82142857143
 20
-33789.321428571435
 30
0.0
 11
91192.17857142857
 21
-33204.96428571429
 31
0.0
  0
TEXT
  5
198
330
17
100
AcDbEntity
  8
尺寸标注
100
AcDbText
 10
7500.0
 20
-32604.375000000004
 30
0.0
 40
445.5882352941176
  1
15000
  7
数字字体
 72
1
 11
7500.0
 21
-32604.375000000004
 31
0.0
100
AcDbText
 73
2
  0
TEXT
  5
199
330
17
100
AcDbEntity
  8
尺寸标注
100
AcDbText
 10
22000.0
 20
-32604.375000000004
 30
0.0
 40
445.5882352941176
  1
14000
  7
数字字体
 72
1
 11
22000.0
 21
-32604.375000000004
 31
0.0
100
AcDbText
 73
2
  0
TEXT
  5
19A
330
17
100
AcDbEntity
  8
尺寸标注
100
AcDbText
 10
36750.0
 20
-32604.375000000004
 30
0.0
 40
445.5882352941176
  1
15500
  7
数字字体
 72
1
 11
36750.0
 21
-32604.375000000004
 31
0.0
100
AcDbText
 73
2
  0
TEXT
  5
19B
330
17
100
AcDbEntity
  8
尺寸标注
100
AcDbText
 10
49500.0
 20
-32604.375000000004
 30
0.0
 40
445.5882352941176
  1
10000
  7
数字字体
 72
1
 11
49500.0
 21
-32604.375000000004
 31
0.0
100
AcDbText
 73
2
  0
TEXT
  5
19C
330
17
100
AcDbEntity
  8
尺寸标注
100
AcDbText
 10
64500.0
 20
-32604.375000000004
 30
0.0
 40
445.5882352941176
  1
20000
  7
数字字体
 72
1
 11
64500.0
 21
-32604.375000000004
 31
0.0
100
AcDbText
 73
2
  0
TEXT
  5
19D
330
17
100
AcDbEntity
  8
尺寸标注
100
AcDbText
 10
82700.0
 20
-32604.375000000004
 30
0.0
 40
445.5882352941176
  1
16400
  7
数字字体
 72
1
 11
82700.0
 21
-32604.375000000004
 31
0.0
100
AcDbText
 73
2
  0
LINE
  5
19E
330
17
100
AcDbEntity
  8
尺寸标注
100
AcDbLine
 10
0.0
 20
-36094.28571428572
 30
0.0
 11
90900.0
 21
-36094.28571428572
 31
0.0
  0
LINE
  5
19F
330
17
100
AcDbEntity
  8
尺寸标注
100
AcDbLine
 10
-292.17857142857144
 20
-36386.46428571429
 30
0.0
 11
292.17857142857144
 21
-35802.107142857145
 31
0.0
  0
LINE
  5
1A0
330
17
100
AcDbEntity
  8
尺寸标注
100
AcDbLine
 10
90607.82142857143
 20
-36386.46428571429
 30
0.0
 11
91192.17857142857
 21
-35802.107142857145
 31
0.0
  0
TEXT
  5
1A1
330
17
100
AcDbEntity
  8
尺寸标注
100
AcDbText
 10
45450.0
 20
-35201.51785714286
 30
0.0
 40
445.5882352941176
  1
90900
  7
数字字体
 72
1
 11
45450.0
 21
-35201.51785714286
 31
0.0
100
AcDbText
 73
2
  0
LINE
  5
1A2
330
17
100
AcDbEntity
  8
尺寸标注
100
AcDbLine
 10
-2597.1428571428573
 20
-11200.0
 30
0.0
 11
-2597.1428571428573
 21
11200.0
 31
0.0
  0
LINE
  5
1A3
330
17
100
AcDbEntity
  8
尺寸标注
100
AcDbLine
 10
-2889.321428571429
 20
-11492.17857142857
 30
0.0
 11
-2304.964285714286
 21
-10907.82142857143
 31
0.0
  0
LINE
  5
1A4
330
17
100
AcDbEntity
  8
尺寸标注
100
AcDbLine
 10
-2889.321428571429
 20
-10292.17857142857
 30
0.0
 11
-2304.964285714286
 21
-9707.82142857143
 31
0.0
  0
LINE
  5
1A5
330
17
100
AcDbEntity
  8
尺寸标注
100
AcDbLine
 10
-2889.321428571429
 20
-4292.178571428572
 30
0.0
 11
-2304.964285714286
 21
-3707.8214285714284
 31
0.0
  0
LINE
  5
1A6
330
17
100
AcDbEntity
  8
尺寸标注
100
AcDbLine
 10
-2889.321428571429
 20
-3292.1785714285716
 30
0.0
 11
-2304.964285714286
 21
-2707.8214285714284
 31
0.0
  0
LINE
  5
1A7
330
17
100
AcDbEntity
  8
尺寸标注
100
AcDbLine
 10
-2889.321428571429
 20
2707.8214285714284
 30
0.0
 11
-2304.964285714286
 21
3292.1785714285716
 31
0.0
  0
LINE
  5
1A8
330
17
100
AcDbEntity
  8
尺寸标注
100
AcDbLine
 10
-2889.321428571429
 20
3707.8214285714284
 30
0.0
 11
-2304.964285714286
 21
4292.178571428572
 31
0.0
  0
LINE
  5
1A9
330
17
100
AcDbEntity
  8
尺寸标注
100
AcDbLine
 10
-2889.321428571429
 20
9707.82142857143
 30
0.0
 11
-2304.964285714286
 21
10292.17857142857
 31
0.0
  0
LINE
  5
1AA
330
17
100
AcDbEntity
  8
尺寸标注
100
AcDbLine
 10
-2889.321428571429
 20
10907.82142857143
 30
0.0
 11
-2304.964285714286
 21
11492.17857142857
 31
0.0
  0
TEXT
  5
1AB
330
17
100
AcDbEntity
  8
尺寸标注
100
AcDbText
 10
-3327.5892857142862
 20
-10600.0
 30
0.0
 40
445.5882352941176
  1
1200
 50
90.0
  7
数字字体
 72
1
 11
-3327.5892857142862
 21
-10600.0
 31
0.0
100
AcDbText
 73
2
  0
TEXT
  5
1AC
330
17
100
AcDbEntity
  8
尺寸标注
100
AcDbText
 10
-3327.5892857142862
 20
-7000.0
 30
0.0
 40
445.5882352941176
  1
6000
 50
90.0
  7
数字字体
 72
1
 11
-3327.5892857142862
 21
-7000.0
 31
0.0
100
AcDbText
 73
2
  0
TEXT
  5
1AD
330
17
100
AcDbEntity
  8
尺寸标注
100
AcDbText
 10
-3327.5892857142862
 20
-3500.0
 30
0.0
 40
445.5882352941176
  1
1000
 50
90.0
  7
数字字体
 72
1
 11
-3327.5892857142862
 21
-3500.0
 31
0.0
100
AcDbText
 73
2
  0
TEXT
  5
1AE
330
17
100
AcDbEntity
  8
尺寸标注
100
AcDbText
 10
-3327.5892857142862
 20
0.0
 30
0.0
 40
445.5882352941176
  1
6000
 50
90.0
  7
数字字体
 72
1
 11
-3327.5892857142862
 21
0.0
 31
0.0
100
AcDbText
 73
2
  0
TEXT
  5
1AF
330
17
100
AcDbEntity
  8
尺寸标注
100
AcDbText
 10
-3327.5892857142862
 20
3500.0
 30
0.0
 40
445.5882352941176
  1
1000
 50
90.0
  7
数字字体
 72
1
 11
-3327.5892857142862
 21
3500.0
 31
0.0
100
AcDbText
 73
2
  0
TEXT
  5
1B0
330
17
100
AcDbEntity
  8
尺寸标注
100
AcDbText
 10
-3327.5892857142862
 20
7000.0
 30
0.0
 40
445.5882352941176
  1
6000
 50
90.0
  7
数字字体
 72
1
 11
-3327.5892857142862
 21
7000.0
 31
0.0
100
AcDbText
 73
2
  0
TEXT
  5
1B1
330
17
100
AcDbEntity
  8
尺寸标注
100
AcDbText
 10
-3327.5892857142862
 20
10600.0
 30
0.0
 40
445.5882352941176
  1
1200
 50
90.0
  7
数字字体
 72
1
 11
-3327.5892857142862
 21
10600.0
 31
0.0
100
AcDbText
 73
2
  0
LINE
  5
1B2
330
17
100
AcDbEntity
  8
尺寸标注
100
AcDbLine
 10
-5194.285714285715
 20
-11200.0
 30
0.0
 11
-5194.285714285715
 21
11200.0
 31
0.0
  0
LINE
  5
1B3
330
17
100
AcDbEntity
  8
尺寸标注
100
AcDbLine
 10
-5486.464285714286
 20
-11492.17857142857
 30
0.0
 11
-4902.107142857143
 21
-10907.82142857143
 31
0.0
  0
LINE
  5
1B4
330
17
100
AcDbEntity
  8
尺寸标注
100
AcDbLine
 10
-5486.464285714286
 20
10907.82142857143
 30
0.0
 11
-4902.107142857143
 21
11492.17857142857
 31
0.0
  0
TEXT
  5
1B5
330
17
100
AcDbEntity
  8
尺寸标注
100
AcDbText
 10
-5924.732142857143
 20
0.0
 30
0.0
 40
445.5882352941176
  1
22400
 50
90.0
  7
数字字体
 72
1
 11
-5924.732142857143
 21
0.0
 31
0.0
100
AcDbText
 73
2
  0
LINE
  5
1B6
330
17
100
AcDbEntity
  8
尺寸标注
100
AcDbLine
 10
93497.14285714286
 20
13800.000000000011
 30
0.0
 11
93497.14285714286
 21
22300.00000000001
 31
0.0
  0
LINE
  5
1B7
330
17
100
AcDbEntity
  8
尺寸标注
100
AcDbLine
 10
93204.96428571429
 20
13507.82142857144
 30
0.0
 11
93789.32142857142
 21
14092.178571428582
 31
0.0
  0
LINE
  5
1B8
330
17
100
AcDbEntity
  8
尺寸标注
100
AcDbLine
 10
93204.96428571429
 20
22007.82142857144
 30
0.0
 11
93789.32142857142
 21
22592.178571428583
 31
0.0
  0
TEXT
  5
1B9
330
17
100
AcDbEntity
  8
尺寸标注
100
AcDbText
 10
92766.69642857142
 20
18050.00000000001
 30
0.0
 40
445.5882352941176
  1
8500
 50
90.0
  7
数字字体
 72
1
 11
92766.69642857142
 21
18050.00000000001
 31
0.0
100
AcDbText
 73
2
  0
LINE
  5
1BA
330
17
100
AcDbEntity
  8
尺寸标注
100
AcDbLine
 10
93497.14285714286
 20
-22300.00000000001
 30
0.0
 11
93497.14285714286
 21
-13800.000000000011
 31
0.0
  0
LINE
  5
1BB
330
17
100
AcDbEntity
  8
尺寸标注
100
AcDbLine
 10
93204.96428571429
 20
-22592.178571428583
 30
0.0
 11
93789.32142857142
 21
-22007.82142857144
 31
0.0
  0
LINE
  5
1BC
330
17
100
AcDbEntity
  8
尺寸标注
100
AcDbLine
 10
93204.96428571429
 20
-14092.178571428582
 30
0.0
 11
93789.32142857142
 21
-13507.82142857144
 31
0.0
  0
TEXT
  5
1BD
330
17
100
AcDbEntity
  8
尺寸标注
100
AcDbText
 10
92766.69642857142
 20
-18050.00000000001
 30
0.0
 40
445.5882352941176
  1
8500
 50
90.0
  7
数字字体
 72
1
 11
92766.69642857142
 21
-18050.00000000001
 31
0.0
100
AcDbText
 73
2
  0
LINE
  5
1BE
330
17
100
AcDbEntity
  8
尺寸标注
100
AcDbLine
 10
95769.64285714286
 20
29900.000000000007
 30
0.0
 11
95769.64285714286
 21
30900.000000000007
 31
0.0
  0
LINE
  5
1BF
330
17
100
AcDbEntity
  8
尺寸标注
100
AcDbLine
 10
95477.46428571429
 20
29607.821428571435
 30
0.0
 11
96061.82142857142
 21
30192.17857142858
 31
0.0
  0
LINE
  5
1C0
330
17
100
AcDbEntity
  8
尺寸标注
100
AcDbLine
 10
95477.46428571429
 20
30607.821428571435
 30
0.0
 11
96061.82142857142
 21
31192.17857142858
 31
0.0
  0
TEXT
  5
1C1
330
17
100
AcDbEntity
  8
尺寸标注
100
AcDbText
 10
95039.19642857142
 20
30400.000000000007
 30
0.0
 40
445.5882352941176
  1
1000
 50
90.0
  7
数字字体
 72
1
 11
95039.19642857142
 21
30400.000000000007
 31
0.0
100
AcDbText
 73
2
  0
LINE
  5
1C2
330
17
100
AcDbEntity
  8
尺寸标注
100
AcDbLine
 10
95769.64285714286
 20
-30900.000000000007
 30
0.0
 11
95769.64285714286
 21
-29900.000000000007
 31
0.0
  0
LINE
  5
1C3
330
17
100
AcDbEntity
  8
尺寸标注
100
AcDbLine
 10
95477.46428571429
 20
-31192.17857142858
 30
0.0
 11
96061.82142857142
 21
-30607.821428571435
 31
0.0
  0
LINE
  5
1C4
330
17
100
AcDbEntity
  8
尺寸标注
100
AcDbLine
 10
95477.46428571429
 20
-30192.17857142858
 30
0.0
 11
96061.82142857142
 21
-29607.821428571435
 31
0.0
  0
TEXT
  5
1C5
330
17
100
AcDbEntity
  8
尺寸标注
100
AcDbText
 10
95039.19642857142
 20
-30400.000000000007
 30
0.0
 40
445.5882352941176
  1
1000
 50
90.0
  7
数字字体
 72
1
 11
95039.19642857142
 21
-30400.000000000007
 31
0.0
100
AcDbText
 73
2
  0
LINE
  5
1C6
330
17
100
AcDbEntity
  8
图幅
100
AcDbLine
 10
-20017.767857142862
 20
-52247.142857142855
 30
0.0
 11
106132.23214285713
 21
-52247.142857142855
 31
0.0
  0
LINE
  5
1C7
330
17
100
AcDbEntity
  8
图幅
100
AcDbLine
 10
106132.23214285713
 20
-52247.142857142855
 30
0.0
 11
106132.23214285713
 21
36852.857142857145
 31
0.0
  0
LINE
  5
1C8
330
17
100
AcDbEntity
  8
图幅
100
AcDbLine
 10
106132.23214285713
 20
36852.857142857145
 30
0.0
 11
-20017.767857142862
 21
36852.857142857145
 31
0.0
  0
LINE
  5
1C9
330
17
100
AcDbEntity
  8
图幅
100
AcDbLine
 10
-20017.767857142862
 20
36852.857142857145
 30
0.0
 11
-20017.767857142862
 21
-52247.142857142855
 31
0.0
  0
LINE
  5
1CA
330
17
100
AcDbEntity
  8
图框
100
AcDbLine
 10
-16267.767857142862
 20
-51497.142857142855
 30
0.0
 11
105382.23214285713
 21
-51497.142857142855
 31
0.0
  0
LINE
  5
1CB
330
17
100
AcDbEntity
  8
图框
100
AcDbLine
 10
105382.23214285713
 20
-51497.142857142855
 30
0.0
 11
105382.23214285713
 21
36102.857142857145
 31
0.0
  0
LINE
  5
1CC
330
17
100
AcDbEntity
  8
图框
100
AcDbLine
 10
105382.23214285713
 20
36102.857142857145
 30
0.0
 11
-16267.767857142862
 21
36102.857142857145
 31
0.0
  0
LINE
  5
1CD
330
17
100
AcDbEntity
  8
图框
100
AcDbLine
 10
-16267.767857142862
 20
36102.857142857145
 30
0.0
 11
-16267.767857142862
 21
-51497.142857142855
 31
0.0
  0
LINE
  5
1CE
330
17
100
AcDbEntity
  8
标题栏
100
AcDbLine
 10
78382.23214285713
 20
-51497.142857142855
 30
0.0
 11
105382.23214285713
 21
-51497.142857142855
 31
0.0
  0
LINE
  5
1CF
330
17
100
AcDbEntity
  8
标题栏
100
AcDbLine
 10
105382.23214285713
 20
-51497.142857142855
 30
0.0
 11
105382.23214285713
 21
-43097.142857142855
 31
0.0
  0
LINE
  5
1D0
330
17
100
AcDbEntity
  8
标题栏
100
AcDbLine
 10
105382.23214285713
 20
-43097.142857142855
 30
0.0
 11
78382.23214285713
 21
-43097.142857142855
 31
0.0
  0
LINE
  5
1D1
330
17
100
AcDbEntity
  8
标题栏
100
AcDbLine
 10
78382.23214285713
 20
-43097.142857142855
 30
0.0
 11
78382.23214285713
 21
-51497.142857142855
 31
0.0
  0
LINE
  5
1D2
330
17
100
AcDbEntity
  8
标题栏
100
AcDbLine
 10
81811.23214285713
 20
-51497.142857142855
 30
0.0
 11
81811.23214285713
 21
-47129.142857142855
 31
0.0
  0
LINE
  5
1D3
330
17
100
AcDbEntity
  8
标题栏
100
AcDbLine
 10
88885.23214285713
 20
-51497.142857142855
 30
0.0
 11
88885.23214285713
 21
-47129.142857142855
 31
0.0
  0
LINE
  5
1D4
330
17
100
AcDbEntity
  8
标题栏
100
AcDbLine
 10
93880.23214285713
 20
-51497.142857142855
 30
0.0
 11
93880.23214285713
 21
-47129.142857142855
 31
0.0
  0
LINE
  5
1D5
330
17
100
AcDbEntity
  8
标题栏
100
AcDbLine
 10
99145.23214285713
 20
-47129.142857142855
 30
0.0
 11
99145.23214285713
 21
-43097.142857142855
 31
0.0
  0
LINE
  5
1D6
330
17
100
AcDbEntity
  8
标题栏
100
AcDbLine
 10
102952.23214285713
 20
-47129.142857142855
 30
0.0
 11
102952.23214285713
 21
-43097.142857142855
 31
0.0
  0
LINE
  5
1D7
330
17
100
AcDbEntity
  8
标题栏
100
AcDbLine
 10
78382.23214285713
 20
-49313.142857142855
 30
0.0
 11
93880.23214285713
 21
-49313.142857142855
 31
0.0
  0
LINE
  5
1D8
330
17
100
AcDbEntity
  8
标题栏
100
AcDbLine
 10
78382.23214285713
 20
-47129.142857142855
 30
0.0
 11
105382.23214285713
 21
-47129.142857142855
 31
0.0
  0
LINE
  5
1D9
330
17
100
AcDbEntity
  8
标题栏
100
AcDbLine
 10
99145.23214285713
 20
-45092.142857142855
 30
0.0
 11
105382.23214285713
 21
-45092.142857142855
 31
0.0
  0
TEXT
  5
1DA
330
17
100
AcDbEntity
  8
标题栏
100
AcDbText
 10
80096.73214285713
 20
-48221.142857142855
 30
0.0
 40
600.0
  1
制 图
  7
CN
 72
1
 11
80096.73214285713
 21
-48221.142857142855
 31
0.0
100
AcDbText
 73
2
  0
TEXT
  5
1DB
330
17
100
AcDbEntity
  8
标题栏
100
AcDbText
 10
80096.73214285713
 20
-50405.142857142855
 30
0.0
 40
600.0
  1
审 核
  7
CN
 72
1
 11
80096.73214285713
 21
-50405.142857142855
 31
0.0
100
AcDbText
 73
2
  0
TEXT
  5
1DC
330
17
100
AcDbEntity
  8
标题栏
100
AcDbText
 10
101048.73214285713
 20
-44094.642857142855
 30
0.0
 40
600.0
  1
比 例
  7
CN
 72
1
 11
101048.73214285713
 21
-44094.642857142855
 31
0.0
100
AcDbText
 73
2
  0
TEXT
  5
1DD
330
17
100
AcDbEntity
  8
标题栏
100
AcDbText
 10
101048.73214285713
 20
-46110.642857142855
 30
0.0
 40
600.0
  1
图 号
  7
CN
 72
1
 11
101048.73214285713
 21
-46110.642857142855
 31
0.0
100
AcDbText
 73
2
  0
TEXT
  5
1DE
330
17
100
AcDbEntity
  8
标题栏
100
AcDbText
 10
-15067.767857142862
 20
-44672.142857142855
 30
0.0
 40
450.0
  1
说明：
  7
CN
 11
-15067.767857142862
 21
-44672.142857142855
 31
0.0
100
AcDbText
 73
2
  0
TEXT
  5
1DF
330
17
100
AcDbEntity
  8
标题栏
100
AcDbText
 10
-15067.767857142862
 20
-45422.142857142855
 30
0.0
 40
450.0
  1
1、图中高程为1985国家高程；高程以m计，其余尺寸均以mm计；
  7
CN
 11
-15067.767857142862
 21
-45422.142857142855
 31
0.0
100
AcDbText
 73
2
  0
TEXT
  5
1E0
330
17
100
AcDbEntity
  8
标题栏
100
AcDbText
 10
-15067.767857142862
 20
-46172.142857142855
 30
0.0
 40
450.0
  1
2、排水管采用A110PVC排水管，间距为2m，呈梅花状布置；三层反滤自下而上依次为粗砂垫层厚0.2m；碎石垫层厚0.2m；碎石头垫层厚0.3m；排水管外包两层反滤土工布，土工布规格为400g/㎡；
  7
CN
 11
-15067.767857142862
 21
-46172.142857142855
 31
0.0
100
AcDbText
 73
2
  0
TEXT
  5
1E1
330
17
100
AcDbEntity
  8
标题栏
100
AcDbText
 10
-15067.767857142862
 20
-46922.142857142855
 30
0.0
 40
450.0
  1
3、上游铺盖、混凝土护坡、闸室、消力池底板、下游护底、左右岸两侧挡墙混凝土强度等级为C30F150W6；工作桥、检修板强度等级为C30F150，交通桥及铺装层混凝土强度等级为C40，垫层混凝土强度等级为C15；
  7
CN
 11
-15067.767857142862
 21
-46922.142857142855
 31
0.0
100
AcDbText
 73
2
  0
TEXT
  5
1E2
330
17
100
AcDbEntity
  8
标题栏
100
AcDbText
 10
-15067.767857142862
 20
-47672.142857142855
 30
0.0
 40
450.0
  1
4、回填土压实度不小于0.99；
  7
CN
 11
-15067.767857142862
 21
-47672.142857142855
 31
0.0
100
AcDbText
 73
2
  0
TEXT
  5
1E3
330
17
100
AcDbEntity
  8
标题栏
100
AcDbText
 10
-15067.767857142862
 20
-48422.142857142855
 30
0.0
 40
450.0
  1
5、结构缝宽20mm，缝内填充闭孔泡沫塑料板；橡胶止水采用651（300×8）型橡胶止水带，布置位置距离迎水面200mm；
  7
CN
 11
-15067.767857142862
 21
-48422.142857142855
 31
0.0
100
AcDbText
 73
2
  0
TEXT
  5
1E4
330
17
100
AcDbEntity
  8
标题栏
100
AcDbText
 10
-15067.767857142862
 20
-49172.142857142855
 30
0.0
 40
450.0
  1
6、栏杆采用不锈钢栏杆。
  7
CN
 11
-15067.767857142862
 21
-49172.142857142855
 31
0.0
100
AcDbText
 73
2
  0
TEXT
  5
1E5
330
17
100
AcDbEntity
  8
标题栏
100
AcDbText
 10
-15067.767857142862
 20
-49922.142857142855
 30
0.0
 40
450.0
  1
7、水闸末端与下游渠道自然顺连。
  7
CN
 11
-15067.767857142862
 21
-49922.142857142855
 31
0.0
100
AcDbText
 73
2
  0
ENDSEC
  0
SECTION
  2
OBJECTS
  0
DICTIONARY
  5
A
330
0
100
AcDbDictionary
281
1
  3
ACAD_COLOR
350
B
  3
ACAD_GROUP
350
C
  3
ACAD_LAYOUT
350
D
  3
ACAD_MATERIAL
350
E
  3
ACAD_MLEADERSTYLE
350
F
  3
ACAD_MLINESTYLE
350
10
  3
ACAD_PLOTSETTINGS
350
11
  3
ACAD_PLOTSTYLENAME
350
12
  3
ACAD_SCALELIST
350
14
  3
ACAD_TABLESTYLE
350
15
  3
ACAD_VISUALSTYLE
350
16
  3
EZDXF_META
350
2D
  0
DICTIONARY
  5
B
330
A
100
AcDbDictionary
281
1
  0
DICTIONARY
  5
C
330
A
100
AcDbDictionary
281
1
  0
DICTIONARY
  5
D
330
A
100
AcDbDictionary
281
1
  3
Model
350
1A
  3
Layout1
350
1E
  0
DICTIONARY
  5
E
330
A
100
AcDbDictionary
281
1
  3
ByBlock
350
1F
  3
ByLayer
350
20
  3
Global
350
21
  0
DICTIONARY
  5
F
330
A
100
AcDbDictionary
281
1
  3
Standard
350
2C
  0
DICTIONARY
  5
10
330
A
100
AcDbDictionary
281
1
  3
Standard
350
22
  0
DICTIONARY
  5
11
330
A
100
AcDbDictionary
281
1
  0
ACDBDICTIONARYWDFLT
  5
12
330
A
100
AcDbDictionary
281
1
  3
Normal
350
13
100
AcDbDictionaryWithDefault
340
13
  0
ACDBPLACEHOLDER
  5
13
330
12
  0
DICTIONARY
  5
14
330
A
100
AcDbDictionary
281
1
  0
DICTIONARY
  5
15
330
A
100
AcDbDictionary
281
1
  0
DICTIONARY
  5
16
330
A
100
AcDbDictionary
281
1
  0
LAYOUT
  5
1A
330
D
100
AcDbPlotSettings
  1

  4
A3
  6

 40
7.5
 41
20.0
 42
7.5
 43
20.0
 44
420.0
 45
297.0
 46
0.0
 47
0.0
 48
0.0
 49
0.0
140
0.0
141
0.0
142
1.0
143
1.0
 70
1024
 72
1
 73
0
 74
5
  7

 75
16
 76
0
 77
2
 78
300
147
1.0
148
0.0
149
0.0
100
AcDbLayout
  1
Model
 70
1
 71
0
 10
-20017.767857142862
 20
-52247.142857142855
 11
106132.23214285713
 21
36852.857142857145
 12
0.0
 22
0.0
 32
0.0
 14
-20017.767857142862
 24
-52247.142857142855
 34
0.0
 15
106132.23214285713
 25
36852.857142857145
 35
0.0
146
0.0
 13
0.0
 23
0.0
 33
0.0
 16
1.0
 26
0.0
 36
0.0
 17
0.0
 27
1.0
 37
0.0
 76
1
330
17
  0
LAYOUT
  5
1E
330
D
100
AcDbPlotSettings
  1

  4
A3
  6

 40
7.5
 41
20.0
 42
7.5
 43
20.0
 44
420.0
 45
297.0
 46
0.0
 47
0.0
 48
0.0
 49
0.0
140
0.0
141
0.0
142
1.0
143
1.0
 70
0
 72
1
 73
0
 74
5
  7

 75
16
 76
0
 77
2
 78
300
147
1.0
148
0.0
149
0.0
100
AcDbLayout
  1
Layout1
 70
1
 71
1
 10
0.0
 20
0.0
 11
420.0
 21
297.0
 12
0.0
 22
0.0
 32
0.0
 14
1e+20
 24
1e+20
 34
1e+20
 15
-1e+20
 25
-1e+20
 35
-1e+20
146
0.0
 13
0.0
 23
0.0
 33
0.0
 16
1.0
 26
0.0
 36
0.0
 17
0.0
 27
1.0
 37
0.0
 76
1
330
1B
  0
MATERIAL
  5
1F
102
{ACAD_REACTORS
330
E
102
}
330
E
100
AcDbMaterial
  1
ByBlock
  2

 70
0
 40
1.0
 71
1
 41
1.0
 91
-1023410177
 42
1.0
 72
1
  3

 73
1
 74
1
 75
1
 44
0.5
 73
0
 45
1.0
 46
1.0
 77
1
  4

 78
1
 79
1
170
1
 48
1.0
171
1
  6

172
1
173
1
174
1
140
1.0
141
1.0
175
1
  7

176
1
177
1
178
1
143
1.0
179
1
  8

270
1
271
1
272
1
145
1.0
146
1.0
273
1
  9

274
1
275
1
276
1
 42
1.0
 72
1
  3

 73
1
 74
1
 75
1
 94
63
  0
MATERIAL
  5
20
102
{ACAD_REACTORS
330
E
102
}
330
E
100
AcDbMaterial
  1
ByLayer
  2

 70
0
 40
1.0
 71
1
 41
1.0
 91
-1023410177
 42
1.0
 72
1
  3

 73
1
 74
1
 75
1
 44
0.5
 73
0
 45
1.0
 46
1.0
 77
1
  4

 78
1
 79
1
170
1
 48
1.0
171
1
  6

172
1
173
1
174
1
140
1.0
141
1.0
175
1
  7

176
1
177
1
178
1
143
1.0
179
1
  8

270
1
271
1
272
1
145
1.0
146
1.0
273
1
  9

274
1
275
1
276
1
 42
1.0
 72
1
  3

 73
1
 74
1
 75
1
 94
63
  0
MATERIAL
  5
21
102
{ACAD_REACTORS
330
E
102
}
330
E
100
AcDbMaterial
  1
Global
  2

 70
0
 40
1.0
 71
1
 41
1.0
 91
-1023410177
 42
1.0
 72
1
  3

 73
1
 74
1
 75
1
 44
0.5
 73
0
 45
1.0
 46
1.0
 77
1
  4

 78
1
 79
1
170
1
 48
1.0
171
1
  6

172
1
173
1
174
1
140
1.0
141
1.0
175
1
  7

176
1
177
1
178
1
143
1.0
179
1
  8

270
1
271
1
272
1
145
1.0
146
1.0
273
1
  9

274
1
275
1
276
1
 42
1.0
 72
1
  3

 73
1
 74
1
 75
1
 94
63
  0
MLINESTYLE
  5
22
102
{ACAD_REACTORS
330
10
102
}
330
10
100
AcDbMlineStyle
  2
Standard
 70
0
  3

 62
256
 51
90.0
 52
90.0
 71
2
 49
0.5
 62
256
  6
BYLAYER
 49
-0.5
 62
256
  6
BYLAYER
  0
MLEADERSTYLE
  5
2C
102
{ACAD_REACTORS
330
F
102
}
330
F
100
AcDbMLeaderStyle
179
2
170
2
171
1
172
0
 90
2
 40
0.0
 41
0.0
173
1
 91
-1056964608
 92
-2
290
1
 42
2.0
291
1
 43
8.0
  3
Standard
 44
4.0
300

342
29
174
1
175
1
176
0
178
1
 93
-1056964608
 45
4.0
292
0
297
0
 46
4.0
 94
-1056964608
 47
1.0
 49
1.0
140
1.0
294
1
141
0.0
177
0
142
1.0
295
0
296
0
143
3.75
271
0
272
9
273
9
  0
DICTIONARY
  5
2D
330
A
100
AcDbDictionary
280
1
281
1
  3
CREATED_BY_EZDXF
350
2E
  3
WRITTEN_BY_EZDXF
350
1E8
  0
DICTIONARYVAR
  5
2E
330
2D
100
DictionaryVariables
280
0
  1
1.4.4 @ 2026-10-03T08:41:13.502724+00:00
  0
DICTIONARYVAR
  5
1E8
330
2D
100
DictionaryVariables
280
0
  1
1.4.4 @ 2026-10-03T08:41:13.508256+00:00
  0
ENDSEC
  0
EOF
